<svg xmlns="http://www.w3.org/2000/svg" width="1136" height="713" viewBox="0 0 1136 713">
    <g fill="none" >
        <g class="opacity" id="eventsBackground">
            <path fill="#13A399"
                  d="M1128.04,491.07 C1116.65,518.46 1092.82,543.2 1067.24,566.63 C1044.75333,587.23 1020.7,607.136667 995.08,626.35 C987.98,631.683333 980.766667,636.95 973.44,642.15 L968.35,645.74 C963.836667,648.933333 959.246667,652.096667 954.58,655.23 L954.02,655.61 C949.493333,658.69 944.926667,661.74 940.32,664.76 C925.25,674.66 909.32,684.49 891.71,692.63 C885.71,695.41 879.52,698 873.11,700.32 C869.643333,701.58 866.103333,702.76 862.49,703.86 C856.57,705.66 850.49,707.23 844.14,708.52 C843.08,708.74 842.01,708.95 840.94,709.15 C834.44,710.37 827.86,711.26 821.21,711.87 C796.84,714.1 771.67,712.47 747.26,708.65 C735.06,706.74 723.05,704.28 711.43,701.48 C710,701.14 708.58,700.79 707.15,700.48 C667.58,690.58 630.43,677.14 590.58,667.69 C576.846667,664.43 562.846667,661.663333 548.58,659.39 C541.62,658.283333 534.62,657.283333 527.58,656.39 C511.01,654.33 494.23,652.95 477.38,652.25 C454.66,651.25 431.2,651.68 409.58,655.65 C406.7,656.176667 403.856667,656.77 401.05,657.43 C397.49,658.263333 393.996667,659.213333 390.57,660.28 C381.332325,663.264825 372.341693,666.966064 363.68,671.35 C361.97,672.19 360.28,673.04 358.59,673.9 C353.29,676.6 348.06,679.36 342.75,682.04 C333.193334,687.042042 323.247538,691.262484 313.01,694.66 C307.402542,696.431108 301.700277,697.886722 295.93,699.02 C280.66,702.08 264.41,703.29 248.09,703.37 C240.22,703.37 232.34,703.2 224.55,702.79 L224.31,702.79 C221.65,702.65 218.98,702.49 216.31,702.29 C204.15,701.46 192.03,700.18 180.09,698.43 C139.18,692.43 100.38,681.09 69.17,663.79 C26.78,640.31 -0.14,605.3 3.9,570.32 C6.8,545.12 24.81,521.72 41.9,498.81 C73.69,456.15 103.47,412.52 119.14,366.53 C131.85,329.2 135.64,289.73 164.89,256.18 C174.26,245.44 186.24,235.64 200.19,227.05 C210.617261,220.666124 221.546652,215.14123 232.87,210.53 C245.667731,205.288182 258.833138,200.993298 272.26,197.68 C283.896678,194.793102 295.689383,192.576127 307.58,191.04 C314.04,190.2 320.58,189.55 327.16,189.11 C332.226667,188.756667 337.316667,188.533333 342.43,188.44 L343.22,188.44 C346.346667,188.38 349.473333,188.38 352.6,188.44 C375.398648,188.792962 398.134718,190.929484 420.6,194.83 C434.66,197.18 448.6,200.06 462.25,203.23 C470.396667,205.116667 478.47,207.093333 486.47,209.16 C488.91,209.79 491.35,210.43 493.76,211.08 C550.68,226.33 600.76,247.39 655.6,264.67 C655.88,264.76 656.15,264.85 656.43,264.92 C667.685661,268.381414 679.114592,271.251998 690.67,273.52 C699.16,275.22 707.84,276.69 716.67,277.98 C730.19,279.98 744,281.56 757.91,282.92 L760.98,283.22 C781.39,285.22 801.98,286.71 821.98,288.45 C829.08,289.07 836.12,289.71 843.06,290.45 C847.46,290.89 851.82,291.356667 856.14,291.85 C859.24,292.21 862.35,292.57 865.46,292.95 C868.57,293.33 871.86,293.73 875.06,294.14 C877.14,294.4 879.21,294.67 881.29,294.96 C893.89,296.63 906.46,298.5 918.89,300.64 C926.45,301.94 933.97,303.34 941.4,304.85 C946.78,305.943333 952.113333,307.096667 957.4,308.31 C961.32,309.196667 965.206667,310.13 969.06,311.11 C1000.37,318.98 1029.67,329.3 1054.92,343.23 C1120.49,379.32 1149.83,438.69 1128.04,491.07 Z"
                  opacity=".1"/>
            <circle cx="248.99" cy="68.77" r="21.63" fill="#13A399" opacity=".1"/>
            <circle cx="691.1" cy="21.63" r="21.63" fill="#13A399" opacity=".1"/>
            <circle cx="953.25" cy="70.07" r="21.63" fill="#13A399" opacity=".1"/>
            <circle cx="36.25" cy="121.1" r="36.25" fill="#13A399" opacity=".1"/>
            <circle cx="71" cy="300.1" r="36.25" fill="#13A399" opacity=".1"/>
            <circle cx="1043.92" cy="234.21" r="36.25" fill="#13A399" opacity=".1"/>
        </g>
        <g opacity=".2" class="opacity" id="eventsTree" transform="translate(490 387)">
            <path fill="#3F3D56"
                  d="M58.95,269.23 C58.9180408,270.308565 58.7942599,271.382448 58.58,272.44 C51.62,271.333333 44.62,270.333333 37.58,269.44 C37.58,269.16 37.58,268.87 37.58,268.58 C37.6451608,265.581428 38.508092,262.654366 40.08,260.1 C42.14,256.84 45.27,254.8 48.72,254.91 C52.17,255.02 55.16,257.25 57.01,260.62 C58.4092577,263.266994 59.0788398,266.238696 58.95,269.23 Z"/>
            <ellipse cx="48.816" cy="251.816" fill="#3F3D56" rx="14.01" ry="10.7"
                     transform="rotate(-88.19 48.816 251.816)"/>
            <ellipse cx="49.362" cy="234.695" fill="#3F3D56" rx="14.01" ry="10.7"
                     transform="rotate(-88.19 49.362 234.695)"/>
            <ellipse cx="49.898" cy="217.575" fill="#3F3D56" rx="14.01" ry="10.7"
                     transform="rotate(-88.19 49.898 217.575)"/>
            <ellipse cx="50.443" cy="200.454" fill="#3F3D56" rx="14.01" ry="10.7"
                     transform="rotate(-88.19 50.443 200.454)"/>
            <path fill="#13A399"
                  d="M14.05,81.99 C12.6417587,80.0832553 11.3718453,78.0781289 10.25,75.99 L38.51,72.26 L8.09,71.53 C2.60359429,58.5164441 2.71571068,43.8183463 8.4,30.89 L48.52,53.34 L11.77,24.5 C21.8754937,8.15551926 40.2708404,-1.16744172 59.4273079,0.346760115 C78.5837754,1.86096195 95.2859884,13.9581708 102.69817,31.6873168 C110.110351,49.4164629 106.988381,69.801744 94.61,84.5 C96.8003553,87.4658484 98.6613186,90.6613404 100.16,94.03 L63.07,111.83 L102.4,100 C107.431964,116.603397 103.73811,134.625044 92.58,147.91 C108.450168,169.442224 105.103865,199.5562 84.8938375,217.079147 C64.6838094,234.602094 34.3995305,233.647252 15.3335189,214.885959 C-3.73249259,196.124666 -5.17508995,165.8597 12.02,145.37 C-2.02111757,126.313789 -1.1946498,100.123025 14.02,81.99 L14.05,81.99 Z"/>
            <path fill="#000"
                  d="M104.58,116.57 C104.229988,128.071257 100.00092,139.116174 92.58,147.91 C108.450168,169.442224 105.103865,199.5562 84.8938375,217.079147 C64.6838094,234.602094 34.3995305,233.647252 15.3335189,214.885959 C-3.73249259,196.124666 -5.17508995,165.8597 12.02,145.37 C5.45,136.44 104.76,110.82 104.58,116.57 Z"
                  opacity=".1"/>
        </g>
        <g class="opacity" id="eventsDudeLeft" transform="translate(216 42)">
            <path fill="#BE6F72"
                  d="M138.35,197.35 C138.529648,200.393622 138.351767,203.447812 137.82,206.45 C135.82,215.74 127.36,222.12 119.17,226.96 C110.98,231.8 101.98,236.38 97.11,244.55 C91.24,254.42 93.11,267.69 100,276.91 C106.89,286.13 117.81,291.62 129.05,293.91 C149.55,298.14 172,292.2 187.37,278 C202.74,263.8 210.45,241.61 206.68,221 C198.34,222.17 190.91,214.81 188.21,206.83 C185.51,198.85 186.07,190.2 185.02,181.83 C184.943398,180.414713 184.517375,179.040447 183.78,177.83 C182.61,176.21 180.54,175.55 178.61,175.02 C168.97,172.37 152.75,166.57 142.76,168.79 C133.76,170.85 138.2,189.79 138.35,197.35 Z"/>
            <path fill="#000"
                  d="M138.35,197.35 C138.529648,200.393622 138.351767,203.447812 137.82,206.45 C135.82,215.74 127.36,222.12 119.17,226.96 C110.98,231.8 101.98,236.38 97.11,244.55 C91.24,254.42 93.11,267.69 100,276.91 C106.89,286.13 117.81,291.62 129.05,293.91 C149.55,298.14 172,292.2 187.37,278 C202.74,263.8 210.45,241.61 206.68,221 C198.34,222.17 190.91,214.81 188.21,206.83 C185.51,198.85 186.07,190.2 185.02,181.83 C184.943398,180.414713 184.517375,179.040447 183.78,177.83 C182.61,176.21 180.54,175.55 178.61,175.02 C168.97,172.37 152.75,166.57 142.76,168.79 C133.76,170.85 138.2,189.79 138.35,197.35 Z"
                  opacity=".1"/>
            <path fill="#BE6F72"
                  d="M126.7 640.06C117.143334 645.062042 107.197538 649.282484 96.96 652.68 91.352542 654.451108 85.6502765 655.906722 79.88 657.04 79.4717283 649.350691 79.8908 641.639772 81.13 634.04 81.91 629.67 83.06 625.34 83.36 620.91 83.7846198 614.515545 82.4166646 608.129446 79.41 602.47 90.55 600.95 101.13 598.47 112.32 599.2L113.03 599.25C114.360611 599.283801 115.677247 599.530249 116.93 599.98 118.651661 600.812851 120.113989 602.098869 121.16 603.7 121.736175 604.485755 122.267038 605.303751 122.75 606.15 125.91 611.61 127.11 617.91 127.36 624.4 127.477613 629.628768 127.257154 634.859671 126.7 640.06zM185.01 615.44C181.45 616.273333 177.956667 617.223333 174.53 618.29 165.292325 621.274825 156.301693 624.976064 147.64 629.36 147.077323 626.636352 146.80248 623.861107 146.82 621.08 157.132174 613.968496 169.888362 611.345088 182.17 613.81 182.982641 613.908494 183.755117 614.218864 184.41 614.71 184.647307 614.92011 184.849819 615.166499 185.01 615.44z"/>
            <path fill="#3F3D56"
                  d="M202.2,564.96 C201.52,571.5 200.52,578.06 198.2,584.21 C195.69,590.81 191.61,597.21 192.13,604.26 C192.36,607.32 193.4,610.64 193.55,613.67 C190.67,614.196667 187.826667,614.79 185.02,615.45 C181.46,616.283333 177.966667,617.233333 174.54,618.3 C165.302325,621.284825 156.311693,624.986064 147.65,629.37 C145.94,630.21 144.25,631.06 142.56,631.92 C141.86,631.83 141.17,631.72 140.47,631.59 C135.47,630.68 130.21,628.44 127.38,624.44 C126.732318,623.519433 126.223541,622.508618 125.87,621.44 C124.24,616.57 125.94,610.5 122.55,606.64 L122.39,606.78 L122.27,606.86 C120.413037,608.542196 118.373684,610.011335 116.19,611.24 C106.137786,616.928932 94.143568,618.084739 83.19,614.42 C81.0440889,613.689407 78.9716329,612.758644 77,611.64 C72.42,609.03 68,604.64 68.36,599.4 C68.56,596.48 70.23,593.68 69.78,590.79 C69.45,588.72 68.09,587 67.07,585.17 C60.38,573.17 68.36,557.74 64.16,544.7 C64.06,544.39 63.95,544.08 63.84,543.78 C63.53,542.93 63.18,542.11 62.84,541.29 C61.98,539.38 61.02,537.5 60.26,535.54 C59.6271288,533.892185 59.1255652,532.1969 58.76,530.47 C57.8159655,525.455323 57.4802076,520.345087 57.76,515.25 C57.76,501.82 60.16,488.07 63.58,475.13 C64.19,472.83 64.87,469.58 65.77,466.04 C66.6472935,462.308732 67.8313197,458.656313 69.31,455.12 C71.31,450.52 74.03,446.85 77.75,445.98 C83.35,444.67 91.91,447.44 97.59,448.12 L120.04,450.8 L164.93,456.17 C172.68,457.1 180.82,458.17 187.21,462.53 C187.63,462.82 188.04,463.12 188.45,463.44 C190.138132,464.769683 191.650268,466.308702 192.95,468.02 C193.41,468.61 193.85,469.23 194.27,469.86 C195.72636,472.089542 196.965374,474.453714 197.97,476.92 C203.54,490.3 203.67,505.23 203.71,519.72 C203.71,534.84 203.76,549.95 202.2,564.96 Z"/>
            <path fill="#000"
                  d="M116.14,611.3 C114.79,606.1 111.94,598.57 111.52,596.52 C110.111132,589.642742 109.089524,582.691802 108.46,575.7 C107.35,563.24 105.35,545.7 109.75,533.85 C113.88,536.05 117.51,542.28 119.42,546.53 C126.34,561.94 118.55,580.86 125.05,596.45 C125.536028,597.383785 125.838169,598.402236 125.94,599.45 C125.827096,600.780215 125.349597,602.053545 124.56,603.13 L122.37,606.77 L116.14,611.3 Z"
                  opacity=".1"/>
            <path fill="#BE6F72"
                  d="M260.16,135.56 C267.52,123.56 277.6,111.76 276.97,97.73 C276.74,92.73 275.1,87.84 273.85,82.94 C270.267883,68.7585161 270.031665,53.9384419 273.16,39.65 C285.526024,37.6632958 298.182915,40.4982102 308.52,47.57 C311.79,49.83 314.89,52.64 316.33,56.35 C317.66,59.77 317.44,63.58 317.2,67.24 C316.65,75.65 315.9,84.62 310.72,91.24 C309.11,93.31 307.13,95.06 305.56,97.15 C303.27,100.15 301.93,103.81 300.62,107.38 L283.62,153.63 C275.04,176.94 265.74,201.32 246.84,217.45 C246.38,217.84 232.84,198.61 231.72,196.68 C227.19,188.77 229.17,185.43 234.65,178.81 C245.46,165.72 251.33,149.93 260.16,135.56 Z"/>
            <path fill="#FBBEBE"
                  d="M65.34,529.77 C65.2820597,533.222315 64.9914005,536.666794 64.47,540.08 C64.29,541.34 64.08,542.59 63.83,543.84 C60.42,561.64 51.93,578.57 45.99,595.91 C38.16,618.8 34.72,638.66 31.99,661.39 C24.12,661.39 16.24,661.22 8.45,660.81 L8.21,660.81 C5.55,660.67 2.88,660.51 0.21,660.31 C2.62,639.11 -1.79,616.87 2.52,595.65 C4.26,587.11 7.23,578.82 9.02,570.32 C9.57180695,567.817483 9.98907224,565.287187 10.27,562.74 C10.52,560.32 10.65,557.81 11.74,555.63 C11.8396427,555.419332 11.9532282,555.215547 12.08,555.02 C13.037516,553.511229 14.2252138,552.161573 15.6,551.02 C27.78444,540.33516 42.687514,533.229723 58.66,530.49 C60.93,530.18 63.14,529.92 65.34,529.77 Z"/>
            <circle cx="165.59" cy="153.19" r="39" fill="#BE6F72"/>
            <path fill="#E3E8F4"
                  d="M173.7,244.34 C178.7,235.81 183.08,225.16 192.7,222.79 C198.13,221.44 203.78,223.28 209.07,225.09 C210.602636,225.45273 211.994107,226.259783 213.07,227.41 C213.85149,228.650171 214.270605,230.084168 214.28,231.55 C215.954795,249.179803 215.897856,266.931304 214.11,284.55 C212.84,297.02 210.7,309.43 210.32,321.96 C209.79,339.33 212.65,356.7 211.71,374.05 C211,387.2 208.12,400.12 205.26,412.97 L193.26,466.77 C193.045218,468.43472 192.377635,470.008556 191.33,471.32 C190.318009,472.247971 189.107112,472.932094 187.79,473.32 C152.664605,485.736786 113.924412,482.703113 81.16,464.97 C76.83,462.59 72.51,459.84 69.69,455.78 C65.69,450.02 65.32,442.4 66.62,435.5 C67.92,428.6 70.73,422.09 72.62,415.32 C75.54,404.82 76.23,393.86 76.89,382.98 C77.77,368.66 78.65,354.25 77.12,339.98 C76.07,330.15 73.88,320.47 72.23,310.72 C69.7997629,296.025124 68.3897255,281.179636 68.01,266.29 C67.76,257.4 68.17,247.53 74.32,241.12 C77.32,238 81.32,236.12 85.39,234.6 C92.22,232.08 99.85,230.6 106.75,232.9 C113.65,235.2 119.21,242.44 117.58,249.53 C116.83,252.82 114.7,255.7 114.18,259.04 C113.49,263.46 115.83,267.91 119.18,270.9 C137.2,287.18 164.71,259.78 173.7,244.34 Z"/>
            <path fill="#3F3D56"
                  d="M175.13 204.49C180.602467 202.47414 186.549773 202.12614 192.22 203.49 195.83 204.35 199.73 205.87 203.06 204.26 204.27 203.68 205.27 202.73 206.49 202.19 209.79 200.74 214.07 202.52 216.99 200.41 218.83 199.08 219.43 196.66 220.05 194.46 223.052938 183.958637 229.206708 174.631994 237.68 167.74 236.63 175.41 235.87 184.14 240.94 190 243.25 192.66 246.49 194.33 249.77 195.63 254.48 197.5 259.65 198.74 264.62 197.72 269.59 196.7 274.24 192.94 275.03 187.93 274.86 195.46 267.69 200.72 265.68 207.99 264.92 210.71 264.99 213.6 264.46 216.38 263.11 223.48 258.04 229.18 253.61 234.9 239.461008 253.297968 230.422818 275.106914 227.41 298.12 227.20506 300.850894 226.633254 303.541747 225.71 306.12 224.729991 308.097422 223.620928 310.008216 222.39 311.84 215.06 324.22 217.32 339.84 219.81 353.98 223.7 376.13 227.58 397.83 233.88 419.42 234.96 423.11 236.18 426.96 238.93 429.65 238.06 438.38 229.25 442.36 221.33 446.13 213.51009 449.858989 206.295958 454.743698 199.93 460.62 197.65 462.72 195.4 465.08 194.57 468.07 193.79 470.88 194.35 473.97 193.35 476.7 192.35 479.43 188.35 481.39 186.59 479.09 184.39 470.86 188.15 462.25 187.98 453.73 187.86 447.98 185.98 442.39 185.71 436.64 185.45 430.13 187.37 423.74 189.41 417.56 195.09 400.35 201.95 383.3 203.92 365.29 205.89 347.28 202.21 327.61 189.43 314.76 174.26 299.44 165.84 278.67 149.58 264.6 147 262.37 144.08 259.6 144.51 256.22 144.806931 254.731448 145.462555 253.337818 146.42 252.16 152 244.28 159.42 237.85 165.42 230.31 171.42 222.77 176.22 214.09 175.13 204.49zM121.74 220.62C120.74 221.62 120.05 223 118.89 223.86 117.53519 224.69608 115.990226 225.174365 114.4 225.25 108.514867 226.143824 102.58033 226.674826 96.63 226.84 91.63 226.84 86.44 226.4 81.63 227.77 74.92 229.67 69.56 234.97 66.2 241.07 62.84 247.17 61.25 254.07 59.96 260.94 57.1163927 276.075915 55.5939949 291.430384 55.41 306.83 63.6526611 300.256787 70.998518 292.631888 77.26 284.15 82.06 277.64 86.41 270.44 93.26 266.09 96.41 264.09 99.95 262.77 103.12 260.82 109.73 256.75 114.31 250.17 118.71 243.82 121.95 239.11 131.32 229.91 132.06 224.27 132.69 218.88 125.24 216.25 121.74 220.62zM156.58 126.49C157.814886 127.231735 158.997641 128.056991 160.12 128.96 166.91 133.7 176 132.82 184.21 131.74 186.73 131.42 189.32 131.06 191.48 129.74 194.95 127.6 196.58 123.2 196.24 119.13 195.9 115.06 193.85 111.31 191.35 108.13 184.657108 99.6259676 174.773322 94.2341545 164 93.21 161.239615 92.8481639 158.432767 93.1463272 155.81 94.08 152.58 95.41 150.15 98.15 147.17 99.98 138.38 105.38 124.84 102.98 119.17 111.6 115.02 117.96 117.98 126.6 116.02 133.91 114.56 139.37 110.35 144.34 111.16 149.91 111.61 152.91 113.49 155.53 114.99 158.21 118.434678 164.371205 120.028423 171.395487 119.58 178.44 123.43 181.16 128.8 176.93 129.87 172.35 130.94 167.77 129.71 162.89 130.62 158.27 132.23 150.16 139.39 144.21 142.62 136.77 144.94 131.44 148.72 122.44 156.58 126.49zM268.58.98C266.442881 2.15465632 264.215886 3.1578072 261.92 3.98 261.092846 4.22677655 260.610546 5.08518071 260.83 5.92L269.97 39.92C270.623633 42.3878075 270.595986 44.9866566 269.89 47.44 268.644404 51.4243146 269.115494 55.7474736 271.19 59.37L294.01 114.05C294.01 114.05 296.77 121.45 302.38 119.11 309.442347 117.1508 316.229278 114.308353 322.58 110.65 322.58 110.65 326.71 107.93 323.91 101.21L301.44 47.37C300.544977 43.2789166 297.902772 39.785213 294.21 37.81 292.011111 36.5655668 290.174174 34.7699863 288.88 32.6L270.71 1.6C270.281774.854776868 269.341281.581018089 268.58.98z"/>
            <rect width="29.47" height="49.83" x="281.615" y="52.074" fill="#13A399" rx="11.05"
                  transform="rotate(-22.65 296.35 76.99)"/>
        </g>
        <g class="opacity" id="eventsGirlLeft" transform="translate(107 151)">
            <path fill="#000"
                  d="M174.34,420.77 C174.28206,424.222315 173.9914,427.666794 173.47,431.08 C173.29,432.34 173.08,433.59 172.83,434.84 C169.42,452.64 160.93,469.57 154.99,486.91 C147.16,509.8 143.72,529.66 140.99,552.39 C133.12,552.39 125.24,552.22 117.45,551.81 L117.21,551.81 C114.55,551.67 111.88,551.51 109.21,551.31 C111.62,530.11 107.21,507.87 111.52,486.65 C113.26,478.11 116.23,469.82 118.02,461.32 C118.571807,458.817483 118.989072,456.287187 119.27,453.74 C119.52,451.32 119.65,448.81 120.74,446.63 C120.839643,446.419332 120.953228,446.215547 121.08,446.02 C122.037516,444.511229 123.225214,443.161573 124.6,442.02 C136.78444,431.33516 151.687514,424.229723 167.66,421.49 C169.93,421.18 172.14,420.92 174.34,420.77 Z"
                  opacity=".1"/>
            <path fill="#FBBEBE"
                  d="M123.64 466.34C123.478301 471.897049 123.020988 477.441556 122.27 482.95 119.6 505.46 119.1 528.95 117.27 551.8 114.61 551.66 111.94 551.5 109.27 551.3 97.11 550.47 84.99 549.19 73.05 547.44 73.97 542.293333 74.8966667 537.146667 75.83 532 76.97 525.69 78.11 519.32 77.78 512.92 77.47 506.87 75.85 500.98 74.56 495.05 71.81 482.35 70.27 468.65 65.74 456.67 63.3774648 449.950737 59.6066369 443.813765 54.68 438.67 73.42 431.31 91.43 430.89 111.56 431.67 112.98911 431.590974 114.409405 431.939085 115.64 432.67 116.594 433.49639 117.303056 434.568621 117.69 435.77 120.714898 443.046537 122.613354 450.741519 123.32 458.59 123.560539 461.166067 123.667349 463.752872 123.64 466.34zM171.02 106.26C170.72 108.08 170.53 110.09 171.54 111.63 173.54 114.63 178.12 113.55 181.72 114 187.33 114.69 191.47 120 192.56 125.58 193.65 131.16 192.35 136.84 190.93 142.32 187.716667 154.74 183.89 166.983333 179.45 179.05 167.51 177.64 154.94 173.05 148.6 162.86 142.84 153.59 143.43 141.78 139.77 131.5 137.2 124.26 132.59 117.96 128.03 111.78 135.36 112.7 140.6 104.32 141.03 96.94 141.46 89.56 139.14 82.07 140.72 74.86 141.09 73.15 169.98 78.54 172.79 80.49 180.91 86.12 172.3 98.44 171.02 106.26z"/>
            <path fill="#000"
                  d="M171.02,106.26 C170.72,108.08 170.53,110.09 171.54,111.63 C173.54,114.63 178.12,113.55 181.72,114 C187.33,114.69 191.47,120 192.56,125.58 C193.65,131.16 192.35,136.84 190.93,142.32 C187.716667,154.74 183.89,166.983333 179.45,179.05 C167.51,177.64 154.94,173.05 148.6,162.86 C142.84,153.59 143.43,141.78 139.77,131.5 C137.2,124.26 132.59,117.96 128.03,111.78 C135.36,112.7 140.6,104.32 141.03,96.94 C141.46,89.56 139.14,82.07 140.72,74.86 C141.09,73.15 169.98,78.54 172.79,80.49 C180.91,86.12 172.3,98.44 171.02,106.26 Z"
                  opacity=".1"/>
            <circle cx="164.59" cy="55.19" r="39" fill="#FBBEBE"/>
            <path fill="#3F3D56"
                  d="M152.58,100.66 C154,98.44 151.58,95.34 152.69,92.95 C153.35,91.51 155.02,90.89 156.31,89.95 C157.927819,88.6333847 159.218286,86.959543 160.08,85.06 C166.15194,73.3926527 167.989688,59.9806271 165.28,47.11 C164.36,42.79 163.54,37.05 167.49,35.11 C168.584869,34.6213471 169.784799,34.4150555 170.98,34.51 C178.1,34.74 184.98,39.51 191.89,37.82 C196.719777,36.5067384 200.227205,32.3336961 200.69,27.35 C201.14,20.89 196.3,15.35 191.54,11 C182.97,3.12 169.91,1.37 158.27,1.18 L136.62,0.82 C129.69,0.7 121.92,0.92 117.1,5.89 C110.16,13.04 113.65,24.74 112.65,34.65 C111.799902,42.5594285 107.843194,49.807398 101.65,54.8 C97.16,58.38 90.98,61.8 91.06,67.52 C91.06,69.52 91.92,71.34 92.47,73.23 C94.68,80.71 92.57,88.98 88.33,95.53 C84.09,102.08 77.89,107.12 71.46,111.53 C68.02,113.88 64.46,116.14 61.74,119.33 C58.7579969,123.014587 56.987244,127.530531 56.67,132.26 C56.2420694,135.873963 56.9851681,139.529868 58.79,142.69 C63.02,149.45 73.17,150.44 80.12,146.52 C87.07,142.6 91.31,135.18 94.12,127.72 C95.8,123.29 97.51,118.22 101.81,116.23 C107.25,113.7 113.61,117.7 117.15,122.55 C120.69,127.4 122.87,133.32 127.4,137.26 C134.5,143.44 146.58,142.44 152.58,135.18 C156.87,129.97 157.82,122.76 157.58,116.01 C157.460649,110.512708 155.721311,105.172941 152.58,100.66 Z"/>
            <path fill="#F86D70"
                  d="M166.58,151.49 C162.13,152.44 157.48,150.34 154.17,147.2 C150.86,144.06 148.63,140.01 146.31,136.09 C140.428108,126.202188 133.685299,116.852606 126.16,108.15 C119.6,100.58 110.47,92.89 100.73,95.23 C97.4688669,96.1711621 94.4429782,97.78974 91.85,99.98 C74.3931357,113.80201 65.2643072,135.625084 67.68,157.76 C68.44,164.13 70.17,170.36 70.89,176.76 C71.3749987,182.035236 71.5152967,187.336495 71.31,192.63 C71.04,208.75 70.49,225.8 61.8,239.38 C48.33,260.38 41.12,285.46 31.23,308.38 C25.89,320.77 22.69,333.96 19.55,347.08 C17.69,354.866667 15.8333333,362.65 13.98,370.43 L1.88,421.33 C0.63,426.58 -0.62,432.08 0.7,437.33 C2.7,445.17 10.07,450.65 17.84,452.88 C25.61,455.11 33.84,454.73 41.91,454.8 C57.35,454.95 72.91,456.87 87.4,462.23 C91.54,463.76 95.67,465.59 100.08,465.95 C104.49,466.31 108.88,465.16 113.01,463.56 C124.28,459.2 133.94,451.56 144.32,445.39 C150.803752,441.482876 157.632387,438.179022 164.72,435.52 C168.28,434.19 172.1,432.93 174.55,430.02 C176.4,427.83 177.23,424.97 177.84,422.17 C181.22,406.41 178.95,390.08 177.84,374 C176.73,357.92 167.12,340.93 175.07,326.91 C176.67,324.08 178.58,321.36 179.4,318.22 C180.48,314.12 179.57,309.71 180.48,305.57 C181.15,302.51 182.76,299.76 183.86,296.83 C185.78,291.67 186.04,286.05 186.02,280.54 C185.974833,268.442327 184.701639,256.38049 182.22,244.54 C179.07,229.54 189.49,214.71 195.46,200.54 C197.6,195.47 200.63,190.68 201.52,185.25 C202.32,180.35 201.29,175.36 200.52,170.45 C199.370822,162.840165 198.902301,155.143036 199.12,147.45 C199.31,140.55 200.04,133.52 198.39,126.81 C196.74,120.1 192.03,113.59 185.26,112.21 C183.722931,111.759412 182.064897,112.019856 180.74,112.92 C179.958515,113.686225 179.407646,114.656309 179.15,115.72 C176.95,122.46 177.38,129.72 176.15,136.72 C174.92,143.72 173.48,150.01 166.58,151.49 Z"/>
            <path fill="#BE6F72"
                  d="M72.21,194.44 C72.62,191.67 71.33,187.99 68.53,188.09 C65.95,188.19 64.8,191.42 64.81,194.01 C64.82,196.6 65.17,199.57 63.34,201.39 C61.72,203 59.04,202.95 57.16,204.26 C55.8135192,205.220393 55.0188552,206.776144 55.03,208.43 C55.03,209.82 55.66,211.15 55.7,212.54 C55.74,213.93 54.81,215.54 53.43,215.45 C51.9724376,217.896076 52.3461493,221.017185 54.34,223.05 C55.06,223.75 56,224.35 56.24,225.33 C56.3160125,226.017316 56.2617307,226.712801 56.08,227.38 C55.66,230.13 57.56,233.21 60.33,233.51 C58.78,234.62 59.09,237.22 60.51,238.51 C61.93,239.8 63.97,240.05 65.88,240.05 C70.2149484,240.026018 74.5016934,239.138753 78.49,237.44 C79.8556212,236.989209 81.0633471,236.156295 81.97,235.04 C82.8388219,233.850812 82.7159463,232.206821 81.68,231.16 C83.62,231.48 85.95,231.66 87.22,230.16 C88.99,228.06 87.09,224.95 85.22,222.92 C86.8053737,222.684401 88.0970377,221.525208 88.5021474,219.974465 C88.9072572,218.423723 88.347582,216.780894 87.08,215.8 C86.44,215.33 85.57,214.92 85.48,214.13 C85.39,213.34 86.06,212.83 86.34,212.13 C86.98,210.56 85.52,208.96 84.11,208.01 C80.77,205.79 75.85,205.83 72.88,203.59 C69.91,201.35 71.78,197.44 72.21,194.44 Z"/>
            <path fill="#3F3D56"
                  d="M278.51,42.7 C276.087985,42.9440124 273.650757,43.0008476 271.22,42.87 C270.357945,42.7758073 269.579403,43.3897433 269.47,44.25 L264.82,79.13 C264.462271,81.661961 263.425583,84.049799 261.82,86.04 C259.144394,89.2414317 257.916821,93.4093868 258.43,97.55 L258.43,156.8 C258.43,156.8 258.13,164.7 264.2,164.7 C271.46477,165.612838 278.81523,165.612838 286.08,164.7 C286.08,164.7 290.94,163.78 290.94,156.49 L290.94,98.15 C291.690359,94.0304572 290.593491,89.7892367 287.94,86.55 C286.388173,84.5525545 285.385057,82.1843744 285.03,79.68 L280.2,44.07 C280.086143,43.2390918 279.346487,42.6394888 278.51,42.7 Z"/>
            <path fill="#000"
                  d="M278.51,42.7 C276.087985,42.9440124 273.650757,43.0008476 271.22,42.87 C270.357945,42.7758073 269.579403,43.3897433 269.47,44.25 L264.82,79.13 C264.462271,81.661961 263.425583,84.049799 261.82,86.04 C259.144394,89.2414317 257.916821,93.4093868 258.43,97.55 L258.43,156.8 C258.43,156.8 258.13,164.7 264.2,164.7 C271.46477,165.612838 278.81523,165.612838 286.08,164.7 C286.08,164.7 290.94,163.78 290.94,156.49 L290.94,98.15 C291.690359,94.0304572 290.593491,89.7892367 287.94,86.55 C286.388173,84.5525545 285.385057,82.1843744 285.03,79.68 L280.2,44.07 C280.086143,43.2390918 279.346487,42.6394888 278.51,42.7 Z"
                  opacity=".1"/>
            <rect width="29.47" height="49.83" x="260.12" y="98.61" fill="#13A399" rx="11.05"/>
            <path fill="#FBBEBE"
                  d="M96.95,101.69 C86.2,106.12 81.95,119.9 84.47,131.24 C86.99,142.58 94.58,152.03 101.98,161.02 L122.72,186.32 C128.45,193.32 134.72,200.69 143.46,203.13 C156.24,206.7 169.02,198.56 180.07,191.2 C213.053705,169.220808 248.310728,150.861407 285.23,136.44 C288.84,135.04 292.54,133.62 295.51,131.12 C301.67,125.94 303.4,116.39 299.97,109.12 C296.54,101.85 288.55,97.12 280.5,97.06 C272.45,97 264.62,101.26 259.78,107.7 C257.47,110.77 255.78,114.28 253.55,117.4 C247.91,125.24 239.11,130.09 230.5,134.47 C209.739774,145.062068 188.368819,154.41186 166.5,162.47 C162.5,163.93 157.99,165.32 154.22,163.39 C151.91,162.2 150.35,159.95 148.95,157.75 C142.570379,147.708179 137.49619,136.894444 133.85,125.57 C131.12,117.07 128.91,107.81 122.35,101.77 C113.05,93.21 96.21,95.26 89.24,105.77 C89.24,105.77 81.07,117.72 86.07,122.72 C91.07,127.72 96.95,101.69 96.95,101.69 Z"/>
        </g>
        <g class="opacity" id="eventsDudeRight" transform="translate(534 7)">
            <path fill="#FBBEBE"
                  d="M230.79,204.31 C232.25,208.2 232.29,212.46 232.08,216.61 C231.82,221.67 230.55,227.61 225.85,229.54 C222.79,230.77 219.01,229.84 216.29,231.7 C212.99,233.94 213.15,238.76 213.66,242.7 C215.07,253.53 216.66,264.76 222.56,273.92 C225.73,278.83 230.02,282.92 234.37,286.83 C243.04,294.65 252.55,302.29 263.94,304.9 C265.795346,305.423033 267.747254,305.505218 269.64,305.14 C271.506308,304.563461 273.200302,303.532634 274.57,302.14 C281.17,296.08 284.57,287.43 288.97,279.59 C292.08,273.98 295.79,268.59 297.54,262.41 C300.47999,251.395358 296.92287,239.666163 288.36,232.14 C286.41,230.47 284.25,229.07 282.36,227.34 C277.42,222.86 274.54,216.43 273.36,209.87 C272.18,203.31 272.36,196.56 272.93,189.87 C262.93,189.1 253,190.31 243.24,192.26 C238.9,193.13 232.79,193.53 228.86,195.6 C224.44,197.95 229.58,200.96 230.79,204.31 Z"/>
            <path fill="#000"
                  d="M230.79,204.31 C232.25,208.2 232.29,212.46 232.08,216.61 C231.82,221.67 230.55,227.61 225.85,229.54 C222.79,230.77 219.01,229.84 216.29,231.7 C212.99,233.94 213.15,238.76 213.66,242.7 C215.07,253.53 216.66,264.76 222.56,273.92 C225.73,278.83 230.02,282.92 234.37,286.83 C243.04,294.65 252.55,302.29 263.94,304.9 C265.795346,305.423033 267.747254,305.505218 269.64,305.14 C271.506308,304.563461 273.200302,303.532634 274.57,302.14 C281.17,296.08 284.57,287.43 288.97,279.59 C292.08,273.98 295.79,268.59 297.54,262.41 C300.47999,251.395358 296.92287,239.666163 288.36,232.14 C286.41,230.47 284.25,229.07 282.36,227.34 C277.42,222.86 274.54,216.43 273.36,209.87 C272.18,203.31 272.36,196.56 272.93,189.87 C262.93,189.1 253,190.31 243.24,192.26 C238.9,193.13 232.79,193.53 228.86,195.6 C224.44,197.95 229.58,200.96 230.79,204.31 Z"
                  opacity=".1"/>
            <path fill="#FBBEBE"
                  d="M174.99 233.74C158.75 228.17 150.99 206.41 133.99 203.97 131.31 203.58 128.56 203.73 125.93 203.11 116.14 200.79 111.93 189.47 109.1 179.82 99.56 147.65 87.1 116.17 69.4 87.65 61.93 75.65 50.12 65.79 44.73 52.65 43.49 49.65 42.86 46.23 40.63 43.86 38.4 41.49 33.63 41.15 32.42 44.17 32.0825145 45.2397686 32.0070626 46.3749767 32.2 47.48L33.37 59.93 13.03 58.1C11.1484496 57.7791217 9.21728387 57.9163271 7.4 58.5 5.43753233 59.4820468 3.87314797 61.1099953 2.97 63.11-3.91 76.04 3.42 92.98 15.56 101.16 29.74 110.71 49.99 112.16 59.41 126.41 65.01 134.89 65.12 145.8 68.81 155.27 70.57 159.8 73.14 163.96 75.19 168.35 79.1 176.72 81.1 185.82 84.13 194.54 88.47 207.01 94.9 218.63 101.31 230.18 106.25 239.1 111.31 248.18 118.91 255 123.91 259.48 129.79 262.8 135.67 266 150.13 273.9 167.18 281.5 182.5 275.44 183.38 261.78 179.95 246.55 174.99 233.74zM224.3 664.22C223.07 677.27 215.15 689.09 213.3 701.65 201.1 699.74 189.09 697.28 177.47 694.48 176.04 694.14 174.62 693.79 173.19 693.48 179.77 675.48 174.04 655.32 175.78 636.15 175.95 634.31 176.19 632.47 176.51 630.65 191.58 625.51 205.19 618.65 220.99 620.65 221.3 623.85 221.62 627.06 221.93 630.26 222.563333 636.653333 223.19 643.04 223.81 649.42 224.444192 654.326479 224.608271 659.282318 224.3 664.22zM328.52 696.86C322.6 698.66 316.52 700.23 310.17 701.52 309.11 701.74 308.04 701.95 306.97 702.15 300.47 703.37 293.89 704.26 287.24 704.87 286.56 690.97 277.24 678.19 275.88 663.92 275.601683 660.373731 275.638494 656.809764 275.99 653.27 276.11 651.87 276.25 650.47 276.38 649.07L279.2 620.3C281.444948 620.017504 283.70822 619.907182 285.97 619.97 298.97 620.28 310.8 625.91 323.68 630.3 324.639963 636.369737 324.975048 642.521907 324.68 648.66 324.19 664.28 321.68 680.09 327.48 694.42 327.81 695.23 328.17 696.04 328.52 696.86z"/>
            <path fill="#F86D70"
                  d="M159.72,477.52 C161.47,491.16 154.5,504.22 151.48,517.63 C149.48,526.5 149.21,535.63 148.94,544.73 L147.36,599.24 C147.2,604.69 147.06,610.24 148.72,615.47 C152.06,625.95 162.35,633.03 173.06,635.55 C183.77,638.07 194.97,636.79 205.88,635.35 C211.23,634.64 216.81,633.81 221.24,630.72 C227.33,626.47 229.99,618.9 232.29,611.84 L238.78,591.91 C246.25,608.73 243.09,627.12 247.57,644.97 C247.857593,646.620407 248.544177,648.175522 249.57,649.5 C251.46,651.6 254.57,651.93 257.4,652.13 C277,653.51 296.87,654.88 316.15,651.13 C321.45,650.13 326.98,648.51 330.64,644.53 C334.9,639.9 335.64,633.09 335.59,626.8 C335.32,605.19 327.51,584.34 325.77,562.8 C325.02,553.57 325.39,544.29 325.06,535.03 C324.800359,528.065599 324.149332,521.121305 323.11,514.23 C322.779736,511.073279 321.914014,507.995908 320.55,505.13 C317.55,499.53 311.32,496.49 305.42,494.13 C259.58,475.51 209.16,475.69 159.72,477.52 Z"/>
            <circle cx="244.59" cy="166.19" r="43" fill="#FBBEBE"/>
            <path fill="#E3E8F4"
                  d="M282.07,241.93 C278.88,248.93 273.86,255.93 266.39,257.71 C259.52,259.36 252.24,256.05 247.18,251.12 C242.12,246.19 238.81,239.79 235.3,233.66 C232.74,229.18 229.89,224.66 225.56,221.84 C219.64,218 212,218.1 205.02,219.23 C198.04,220.36 191.11,222.38 184.02,221.92 C175.19,221.33 166.19,216.92 157.86,219.86 C160.56,231.94 159.59,245.22 159.28,257.6 C159.332454,259.511614 159.061991,261.418378 158.48,263.24 C157.752899,264.938521 156.771678,266.516568 155.57,267.92 L147.57,278.23 C156.15,284.65 163.57,293.03 166.57,303.32 C168.26,309.18 167.74,315.4 167.68,321.5 C167.49,339.41 171.38,357.25 170.15,375.12 C168.71,396.05 160.35,415.83 156.04,436.36 C152.348288,453.98422 151.651877,472.10442 153.98,489.96 C198.8,505.47 244.98,513.41 292.36,516.01 C300.73,516.47 309.77,516.54 316.64,511.73 C322.35,507.73 325.55,500.88 326.64,493.98 C327.73,487.08 326.98,480.06 326.22,473.12 C324.16,454.353333 322.103333,435.586667 320.05,416.82 C318.88,406.14 317.71,395.4 318.47,384.69 C319.04,376.69 320.68,368.84 322.31,361.01 L332.31,312.95 C333.74,306.12 335.18,299.24 338.01,292.87 C340.33,287.67 343.54,282.87 346.1,277.81 C349.151627,271.74292 351.256025,265.244244 352.34,258.54 C352.774291,256.594056 352.746893,254.573454 352.26,252.64 C351.19,249.36 347.92,247.39 344.87,245.78 C326.271574,236.005782 306.339101,229.014591 285.71,225.03 C284.31,230.92 284.58,236.44 282.07,241.93 Z"/>
            <path fill="#3F3D56"
                  d="M277.92 213.13C282.92 203.55 292.27 196.83 297.7 187.47 303.790673 176.700564 304.246018 163.637389 298.92 152.47 297.01 148.57 294.42 144.99 292.92 140.91 291.25 136.27 291.09 131.16 289.16 126.62 286.51 120.4 280.77 115.92 274.52 113.34 268.27 110.76 261.52 109.83 254.79 108.93L232.07 105.87C228.78 105.43 225.37 104.99 222.17 105.87 218.97 106.75 215.99 109.36 215.73 112.68 215.42 116.61 218.87 120.27 218.07 124.13 217.78 125.49 216.98 126.87 217.44 128.19 217.849773 129.071786 218.558214 129.780227 219.44 130.19 224.83 133.19 231.27 133.46 237.11 135.42 242.95 137.38 248.81 142.3 248.22 148.42 247.9 151.71 245.78 155.13 247.22 158.08 248.6 160.81 252.22 161.31 255.11 162.16 264.46 164.87 271.02 175.01 269.66 184.66 269.24 187.66 268.16 190.53 267.94 193.54 267.21 204.08 268.87 207.09 277.48 213.22L277.92 213.13zM23.51.7C21.087985.944012367 18.6507566 1.0008476 16.22.87 15.3579452.775807272 14.5794032 1.38974325 14.47 2.25L9.82 37.13C9.46227089 39.661961 8.42558291 42.049799 6.82 44.04 4.14439437 47.2414317 2.91682114 51.4093868 3.43 55.55L3.43 114.8C3.43 114.8 3.13 122.7 9.2 122.7 16.4647705 123.612838 23.8152295 123.612838 31.08 122.7 31.08 122.7 35.94 121.78 35.94 114.49L35.94 56.15C36.6903588 52.0304572 35.5934915 47.7892367 32.94 44.55 31.3881727 42.5525545 30.3850571 40.1843744 30.03 37.68L25.2 2.07C25.0861431 1.2390918 24.3464868.639488827 23.51.7z"/>
            <rect width="29.47" height="49.83" x="5.12" y="56.61" fill="#13A399" rx="11.05"/>
        </g>
        <g class="opacity" id="eventsGirlRight" transform="translate(588 58)">
            <path fill="#BE6F72"
                  d="M282.33,207.71 C282.376001,209.706076 282.01182,211.690351 281.26,213.54 C278.14,220.19 268.59,219.77 262.26,223.54 C254.38,228.24 252.64,238.73 251.92,247.87 C251.1,258.22 250.54,268.72 252.66,278.87 C254.78,289.02 259.88,298.92 268.4,304.87 C278.77,312.08 292.87,312.33 304.71,307.94 C316.55,303.55 326.44,295.06 335.02,285.78 C343.16,276.98 350.45,267.17 354.82,256 C355.59,254 356.27,251.88 355.65,249.88 C354.72,246.88 351.45,245.52 348.79,243.88 C342.58,240.13 338.44,233.59 336.29,226.68 C334.14,219.77 333.78,212.42 333.71,205.17 C333.63,197.64 333.61,189.41 328.81,183.6 C324.01,177.79 315.69,176.16 308.11,176.22 C301.91,176.22 284.75,176.81 280.52,182.22 C277.05,186.72 282.58,201.27 282.33,207.71 Z"/>
            <path fill="#000"
                  d="M282.33,207.71 C282.376001,209.706076 282.01182,211.690351 281.26,213.54 C278.14,220.19 268.59,219.77 262.26,223.54 C254.38,228.24 252.64,238.73 251.92,247.87 C251.1,258.22 250.54,268.72 252.66,278.87 C254.78,289.02 259.88,298.92 268.4,304.87 C278.77,312.08 292.87,312.33 304.71,307.94 C316.55,303.55 326.44,295.06 335.02,285.78 C343.16,276.98 350.45,267.17 354.82,256 C355.59,254 356.27,251.88 355.65,249.88 C354.72,246.88 351.45,245.52 348.79,243.88 C342.58,240.13 338.44,233.59 336.29,226.68 C334.14,219.77 333.78,212.42 333.71,205.17 C333.63,197.64 333.61,189.41 328.81,183.6 C324.01,177.79 315.69,176.16 308.11,176.22 C301.91,176.22 284.75,176.81 280.52,182.22 C277.05,186.72 282.58,201.27 282.33,207.71 Z"
                  opacity=".1"/>
            <path fill="#BE6F72"
                  d="M229.01 475.89C229.319432 477.413836 230.038563 478.82444 231.09 479.97 232.077562 480.749769 233.230223 481.293605 234.46 481.56 267.28 491.19 302.34 487.35 336.32 483.42 331.67 469.26 326.99 454.94 325.7 440.09 324.63 427.84 325.83 415.09 321.49 403.6 320.21 400.2 245.61 415.85 238.25 417.12 234.48 417.77 230.14 417.55 227.47 420.54 224.25 424.16 223.98 432.78 223.64 437.29 222.68 450.32 225.37 463.44 229.01 475.89zM303.74 634.63C297.74 637.41 291.55 640 285.14 642.32 281.673333 643.58 278.133333 644.76 274.52 645.86 268.6 647.66 262.52 649.23 256.17 650.52 252.55 641.34 248.926667 632.156667 245.3 622.97 242.63 616.21 239.96 609.42 237.73 602.51 236.178827 597.79143 234.903341 592.986654 233.91 588.12 230.63616 571.57813 231.487924 554.484471 236.39 538.35 250.25 540.96 263.8 542.66 277.45 544.64 284.74 545.64 292.05 546.82 299.45 548.21 300.03 553.03 300.556667 557.85 301.03 562.67 301.75 570.11 302.34 577.55 302.8 584.99 303.82 601.523333 304.133333 618.07 303.74 634.63z"/>
            <path fill="#000"
                  d="M303.74,634.63 C297.74,637.41 291.55,640 285.14,642.32 C281.673333,643.58 278.133333,644.76 274.52,645.86 C268.6,647.66 262.52,649.23 256.17,650.52 C252.55,641.34 248.926667,632.156667 245.3,622.97 C242.63,616.21 239.96,609.42 237.73,602.51 C236.178827,597.79143 234.903341,592.986654 233.91,588.12 C230.63616,571.57813 231.487924,554.484471 236.39,538.35 C250.25,540.96 263.8,542.66 277.45,544.64 C284.74,545.64 292.05,546.82 299.45,548.21 C300.03,553.03 300.556667,557.85 301.03,562.67 C301.75,570.11 302.34,577.55 302.8,584.99 C303.82,601.523333 304.133333,618.07 303.74,634.63 Z"
                  opacity=".1"/>
            <path fill="#BE6F72"
                  d="M380.64 591.3C380.72 597.06 379.08 602.94 377.56 608.59 377.45 608.99 377.35 609.38 377.25 609.78 373.633322 608.653717 370.515046 606.315893 368.42 603.16 367.33799 601.4488 366.537803 599.574943 366.05 597.61 361.523333 600.69 356.956667 603.74 352.35 606.76 337.28 616.66 321.35 626.49 303.74 634.63 297.74 637.41 291.55 640 285.14 642.32 283.806667 637.653333 282.54 632.956667 281.34 628.23 280.028595 623.363612 279.000206 618.42534 278.26 613.44 276.795031 602.116783 277.930459 590.608606 281.58 579.79L282.03 578.49C283.729074 573.678571 285.924229 569.057015 288.58 564.7 291.07 560.7 296 561.37 301.03 562.7 303.31 563.29 305.62 564 307.72 564.44 320.79 567.18 334.36 564.35 347.72 565.1 354.086836 565.417748 360.32584 567.005549 366.07 569.77 372.5 573 377.68 577.94 379.71 584.77 379.998418 585.753712 380.218937 586.75607 380.37 587.77 380.538409 588.939352 380.628609 590.118638 380.64 591.3zM140.06 130.75C119.41 110.75 95.94 93.8 71.93 77.95 65.682407 74.0317891 59.6719216 69.7476486 53.93 65.12 47.93 60.12 42.7 54.25 36.33 49.75 29.96 45.25 22.08 42.16 14.43 43.64 6.78 45.12-.02 52.44 1.1 60.1 2.1 66.84 8.16 71.46 13.76 75.33 24.36 82.66 35.01 90.01 46.54 95.76 50.5453633 97.5756325 54.4300205 99.646559 58.17 101.96 65.35 106.8 70.58 113.96 76.01 120.69 96.5051321 146.147207 121.608818 167.519264 150.01 183.69 150.35 183.89 162.18 158.36 161.68 155.05 160.58 147.44 145.5 136.03 140.06 130.75z"/>
            <path fill="#3F3D56"
                  d="M316.68,453.91 C300.74,454.91 285.45,460.29 269.86,463.72 C254.27,467.15 237.33,468.48 222.86,461.72 L231.66,521.81 C232.15,525.15 232.66,528.57 231.93,531.86 C231.26,535 229.52,537.96 229.67,541.17 C229.9,546.25 234.67,549.82 239.16,552.17 C252.203881,559.056693 266.817712,562.424078 281.56,561.94 C280.47,566.34 279.11,570.69 278.01,575.09 C285.36,582.98 297.38,583.51 307.87,586.01 C315.87,587.9 323.37,591.18 331.21,593.49 C340.69084,596.288244 350.535339,597.659936 360.42,597.56 C367.09,597.49 374.16,596.56 379.34,592.4 C385.71,587.27 387.69,578.55 389.07,570.49 C389.84,565.99 390.55,561.43 390.07,556.89 C389.55,551.67 387.53,546.73 385.53,541.89 L371.83,508.64 C369.34,502.64 366.83,496.55 363.83,490.76 C354.03,472.03 337.77,452.6 316.68,453.91 Z"/>
            <path fill="#13A399"
                  d="M328.88,246.29 C331.315604,239.890474 337.775791,235.952641 344.58,236.72 C348.58,237.28 352.15,239.47 355.58,241.61 L374.68,253.53 C377.845122,255.413319 380.881792,257.504579 383.77,259.79 C396.94,270.71 402.02,288.66 403.47,305.71 C404.92,322.76 403.47,340.1 406.86,356.87 C398.8,363.55 389.86,369.2 381.8,375.87 C377.58,379.36 373.31,382.87 370.11,387.36 C367.57,390.89 365.76,394.93 363.11,398.36 C358.771006,403.781021 352.474973,407.279216 345.58,408.1 C349.95,410.64 352.4,415.57 353.58,420.48 C354.76,425.39 355.08,430.48 356.39,435.39 C358.19,442.06 361.92,448.15 363.15,454.95 C364.01,459.64 363.63,464.45 363.94,469.21 C365.5,493.84 384.83,515.37 383.58,540.01 C374.456105,536.694134 365.824096,532.156106 357.92,526.52 C354.36,523.97 350.92,521.21 347.55,518.46 L322.08,497.81 C309.69,487.81 297.18,477.59 287.33,465.03 C281.15,457.15 276.11,448.43 269.91,440.57 C263.71,432.71 256.08,425.57 246.61,422.27 C245.22,424.36 242.75,425.81 241.36,427.9 C241.114641,428.22954 240.919206,428.593452 240.78,428.98 C240.61109,429.912287 240.726055,430.873815 241.11,431.74 C242.227056,435.784587 242.897722,439.939363 243.11,444.13 L243.74,451.65 C243.975,453.643097 243.975,455.656903 243.74,457.65 C242.79,464.08 236.83,469.07 230.4,470.07 C229.470127,470.270905 228.505111,470.239997 227.59,469.98 C225.8,469.38 224.81,467.49 224.27,465.69 C221.74,457.15 225.62,448.14 225.93,439.25 C225.973427,436.994181 225.896651,434.73765 225.7,432.49 L225.1,423.62 C219.29,422.41 215.95,416.17 214.41,410.44 C210.25,394.97 206.06,378.96 208.47,363.12 C209.11,358.88 210.23,354.58 209.47,350.34 C208.47,344.67 204.39,340.07 202.24,334.73 C195.24,317.32 210.11,298.42 208.73,279.73 C208.15,271.88 203.17,265.06 200.17,257.78 C198.61725,253.53676 196.6053,249.475974 194.17,245.67 C191.11,241.3 186.98,237.8 182.97,234.28 C170.585605,223.413838 158.839365,211.841221 147.79,199.62 C142.115362,199.031471 136.791822,196.592833 132.64,192.68 C130,190.18 127.83,186.88 127.76,183.25 C127.69,179.62 130.37,175.81 134,175.62 C136.12,175.51 138.1,176.56 140.17,177.02 C146.65,178.44 153.17,173.67 156.06,167.68 C158.95,161.69 158.95,154.8 158.9,148.16 C165.340425,147.01666 171.910548,149.317909 176.23,154.23 C180.7,159.09 183.61,165.15 187.13,170.73 C188.562687,173.20914 190.401601,175.430034 192.57,177.3 C197.38,181.12 204.31,181.84 208.51,186.3 C210.64,188.58 211.82,191.6 213.77,194.04 C219.25,200.91 229.28,201.75 236.77,206.27 C244.26,210.79 249.47,219.05 257.77,221.73 C260.77,222.73 264.04,222.86 267.01,223.97 C273.87,226.52 278.06,233.81 279.01,241.06 C279.96,248.31 278.34,255.64 276.7,262.78 L272.85,279.49 C272,283.19 271.35,287.64 274.08,290.28 C275.369956,291.347357 276.884283,292.109648 278.51,292.51 C285.51,294.79 293.31,297.03 299.89,293.8 C303,292.26 305.44,289.66 307.67,287 C317.43,275.5 323.92,260.44 328.88,246.29 Z"/>
            <path fill="#BE6F72"
                  d="M407.81,586.34 C406.43,595.49 401.39,604.49 393.14,608.68 C388.193292,611.119079 382.485607,611.514198 377.25,609.78 C373.633322,608.653717 370.515046,606.315893 368.42,603.16 C367.33799,601.4488 366.537803,599.574943 366.05,597.61 C366.05,597.51 366,597.4 365.98,597.3 C365.2285,593.761872 364.916143,590.144579 365.05,586.53 C365.047735,580.918385 365.381667,575.311675 366.05,569.74 C366.607944,565.048646 367.530739,560.407922 368.81,555.86 C370.67,549.37 373.35,543.12 375.81,536.86 C377.09,533.56 378.32,530.25 379.33,526.86 C379.94,524.86 380.46,522.8 380.88,520.72 L381.03,519.97 C381.11,519.55 381.18,519.13 381.25,518.71 C382.25,513.01 382.54,507.11 385.11,501.96 C391.11,489.87 402.79,492.96 404.57,504.11 C404.704678,504.97391 404.781516,505.84585 404.8,506.72 C405.07,520.83 399.47,534.62 402.03,548.78 C402.752055,552.233141 403.660043,555.644774 404.75,559 C405.65,562.09 406.46,565.22 407.08,568.39 C408.335842,574.289102 408.582672,580.358401 407.81,586.34 Z"/>
            <path fill="#13A399"
                  d="M413.31,429.44 C413.58,435.22 413.31,441.07 414.47,446.74 C417.18,460.14 427.47,472 426.33,485.62 C426.05,488.94 424.82,492.51 421.92,494.15 C419.02,495.79 414.22,495.66 413.27,498.96 C413,499.88 413.14,500.88 412.84,501.79 C412.21,503.73 409.84,504.56 407.84,504.51 C405.84,504.46 403.84,503.8 401.77,503.97 C394.52,504.58 391.86,514.28 385.4,517.61 C381.05,519.85 375.4,518.61 371.81,515.3 C368.22,511.99 366.65,506.83 366.93,501.94 C367.14,498.25 368.31,494.69 368.93,491.05 C370.06,484.56 369.47,477.91 368.88,471.35 C368.01,461.74 367.11,452.01 363.95,442.9 C362.46,438.6 360.48,434.49 359.19,430.13 C357.35,423.96 356.93,417.47 356.74,411.04 C356.35,397.51 357.28,383.04 365.36,372.16 C371.43,364 380.13,357.37 387,349.82 C391.3,345.09 392.54,343.61 397.29,347.62 C401.2,350.91 405.29,355.45 405.73,359.91 C406.93,371.34 405.73,382.58 407.87,394.22 C410.01,405.86 412.75,417.49 413.31,429.44 Z"/>
            <circle cx="309.59" cy="158.19" r="51" fill="#BE6F72"/>
            <path fill="#3F3D56"
                  d="M356.29 255.75C357.41 254.18 358.74 252.49 360.64 252.16 362.074563 252.051783 363.51034 252.353504 364.78 253.03L378.21 258.64C381.839141 252.646608 383.97891 245.870671 384.45 238.88 384.73 234.59 384.39 230.24 385.21 226.02 386.43 219.76 390.14 214.15 391 207.83 391.68 202.73 390.45 197.6 389.71 192.51 387.43 176.79 389.88 160.75 388.57 144.92 387.26 129.09 380.91 112.13 366.79 104.86 362.79 102.86 358.48 101.66 354.32 100.08 345.05 96.55 336.74 90.9 327.58 87.08 318.42 83.26 307.66 81.51 298.78 85.9 289.9 90.29 284.73 102.64 290.5 110.7 292.4 113.35 295.18 115.23 297.84 117.14 303.25 121.01 308.77 125.79 310.02 132.33 312.26 144.1 300.02 153.33 296.57 164.84 295.296335 169.334907 295.182799 174.079315 296.24 178.63 297.73 185.45 301.37 191.89 301.24 198.87 301.14 206.52 296.56 213.45 295.7 221.06 295.39 223.85 295.58 226.68 295.23 229.46 294.613718 233.127204 293.528139 236.69987 292 240.09 284 260.09 275.89 280.3 264 298.28 276.729604 298.495978 289.314449 295.555047 300.63 289.72 299.003916 297.428244 295.889021 304.745021 291.46 311.26 301.634198 310.082341 311.421613 306.667332 320.12 301.26 318.009416 308.818021 314.951844 316.078914 311.02 322.87 311.36 322.29 317.65 320.87 318.81 320.21 321.194465 318.854176 323.11207 316.807569 324.31 314.34 327.71 308.26 329.83 300.93 332.98 294.61 339.71485 281.063204 347.509083 268.069472 356.29 255.75zM38.51.7C36.087985.944012367 33.6507566 1.0008476 31.22.87 30.3579452.775807272 29.5794032 1.38974325 29.47 2.25L24.82 37.13C24.4622709 39.661961 23.4255829 42.049799 21.82 44.04 19.1443944 47.2414317 17.9168211 51.4093868 18.43 55.55L18.43 114.8C18.43 114.8 18.13 122.7 24.2 122.7 31.4647705 123.612838 38.8152295 123.612838 46.08 122.7 46.08 122.7 50.94 121.78 50.94 114.49L50.94 56.15C51.6903588 52.0304572 50.5934915 47.7892367 47.94 44.55 46.3881727 42.5525545 45.3850571 40.1843744 45.03 37.68L40.2 2.07C40.0861431 1.2390918 39.3464868.639488827 38.51.7z"/>
            <rect width="29.47" height="49.83" x="20.12" y="56.61" fill="#13A399" rx="11.05"/>
        </g>
    </g>
</svg>
