<svg xmlns="http://www.w3.org/2000/svg" width="1133" height="768" viewBox="0 0 1133 768">
  <defs>
    <linearGradient id="undraw_schedule_pnbk-a" x1="50.011%" x2="50.011%" y1="100%" y2="0%">
      <stop offset="0%" stop-color="gray" stop-opacity=".25"/>
      <stop offset="54%" stop-color="gray" stop-opacity=".12"/>
      <stop offset="100%" stop-color="gray" stop-opacity=".1"/>
    </linearGradient>
    <linearGradient id="undraw_schedule_pnbk-b" x1="49.989%" x2="49.989%" y1="100%" y2="0%">
      <stop offset="0%" stop-color="gray" stop-opacity=".25"/>
      <stop offset="54%" stop-color="gray" stop-opacity=".12"/>
      <stop offset="100%" stop-color="gray" stop-opacity=".1"/>
    </linearGradient>
    <linearGradient id="undraw_schedule_pnbk-c" x1="49.989%" x2="49.989%" y1="100%" y2="0%">
      <stop offset="0%" stop-color="gray" stop-opacity=".25"/>
      <stop offset="54%" stop-color="gray" stop-opacity=".12"/>
      <stop offset="100%" stop-color="gray" stop-opacity=".1"/>
    </linearGradient>
    <linearGradient id="undraw_schedule_pnbk-d" x1="-.04%" x2="99.998%" y1="49.997%" y2="49.997%">
      <stop offset="0%" stop-color="gray" stop-opacity=".25"/>
      <stop offset="54%" stop-color="gray" stop-opacity=".12"/>
      <stop offset="100%" stop-color="gray" stop-opacity=".1"/>
    </linearGradient>
  </defs>
  <g fill="none" fill-rule="evenodd" transform="translate(-1)">
    <path id="cleaningBackground" fill="#13A399" class="opacity" fill-rule="nonzero" d="M613.68,112.3 C544.09,112.19 477.04,90.57 412.89,66.51 C348.74,42.45 285.1,15.62 216.77,4.11 C172.77,-3.29 122.87,-2.79 88.6,23.49 C55.63,48.78 46.19,90.75 41.67,129.57 C38.28,158.75 36.76,189.4 49.84,216.14 C58.93,234.71 74.43,250.03 85.4,267.74 C123.57,329.34 100.92,407.74 64.16,470.56 C46.91,499.97 26.7,528.2 13.69,559.36 C0.68,590.52 -4.59,625.88 8.85,656.71 C22.19,687.28 52.19,709.57 84.28,724.78 C149.57,755.78 225.44,762.6 299.28,765.37 C462.76,771.51 626.49,760.57 789.79,749.57 C850.22,745.51 910.92,741.41 970.08,729.28 C1002.93,722.55 1036.74,712.52 1059.98,690.36 C1089.48,662.24 1095.4,616.19 1073.79,583.02 C1037.53,527.33 942.37,516.57 916.27,456.39 C901.9,423.26 914.1,385.39 932.13,353.53 C970.82,285.24 1037.57,224.16 1038.48,147.64 C1039.1,95.08 1004.15,43.71 952.11,20.71 C897.55,-3.43 823.31,2.51 785.28,46.99 C746.12,92.79 675.13,112.4 613.68,112.3 Z" opacity=".1"/>
    <g fill-rule="nonzero" class="opacity" id="cleaningPlant" transform="translate(926 220)">
      <path fill="#13A399" d="M33.84 406C33.84 406 21.55 397.89 9.37 403.66 9.37 403.66 13.12 410.89 28.54 410.2L33.84 406zM35.35 406.44C35.35 406.44 39.09 420.68 29.72 430.37 29.72 430.37 24.08 424.49 29.72 410.11L35.35 406.44zM50.68 392.77C50.68 392.77 49.77 380.65 22.43 384.67 22.43 384.67 22.3 392.49 31.9 396.19 41.5 399.89 45.89 396.77 50.68 392.77zM52.36 392.68C52.36 392.68 63.93 396.4 53.62 422.05 53.62 422.05 45.99 420.34 44.62 410.14 43.25 399.94 47.35 396.4 52.36 392.68zM67.85 375.5C67.85 375.5 69.41 355.57 41.46 357.62 41.46 357.62 39.46 375.62 62.91 380.29L67.85 375.5zM86.32 353C86.32 353 82.48 330.42 54.55 337.15 54.55 337.15 54.44 356.68 81.75 358.39L86.32 353zM99.81 329.74C99.81 329.74 93.4 307.74 65.72 314.33 65.72 314.33 72.3 334.11 97.97 333.81L99.81 329.74zM112.63 307.03C112.63 307.03 106.36 284.2 79.63 291.03 79.63 291.03 88.55 312.72 110.87 310.9L112.63 307.03zM120.9 285.45C120.9 285.45 116.08 257.57 91.19 263.71 91.19 263.71 98.43 289.11 119.09 289.51L120.9 285.45zM128.64 259.38C128.64 259.38 122.86 231.23 97.64 239.38 97.64 239.38 107.53 265.97 126.86 263.22L128.64 259.38zM133.44 235.11C133.44 235.11 124.25 206.97 104.76 207.73 104.76 207.73 114.16 237.46 131.76 240.73L133.44 235.11zM136.49 211.44C136.49 211.44 126.49 177.56 110.63 180.17 110.63 180.17 117.55 206.07 135.93 216.71L136.49 211.44zM138.19 183.16C138.19 183.16 128.82 154.92 113.19 153.8 113.19 153.8 119.57 181.58 137.87 190.49L138.19 183.16zM140.12 156.83C140.12 156.83 128.43 128.56 118.12 127.93 118.12 127.93 123.19 155.75 139.12 161.47L140.12 156.83zM141.41 132.31C141.41 132.31 134.19 101.57 123.89 99.07 123.89 99.07 125.31 124.17 140.38 134.6L141.41 132.31zM145.3 100.22C145.3 100.22 137.74 75.76 129.37 72.03 129.37 72.03 131.03 100.87 143.37 106.21L145.3 100.22zM148.53 79.15L150.06 36.01C150.06 36.01 134.44 68.56 147.38 86.76L148.53 79.15zM160.62 36.28C160.62 36.28 171.88 4.77 174.62 3.02 174.62 3.02 152.52 23.45 154.68 49.75L160.62 36.28zM68.61 375.36C68.61 375.36 88.43 372.76 87.83 400.78 87.83 400.78 69.92 403.69 64.08 380.53L68.61 375.36zM87.25 352.25C87.25 352.25 110.16 352.17 108.25 380.85 108.25 380.85 89.03 384.28 82.68 357.66L87.25 352.25zM100.03 331.57C100.03 331.57 120.82 321.82 134.13 346.98 134.13 346.98 114.92 355.11 98.2 335.63L100.03 331.57zM113.1 307.24C113.1 307.24 134.38 296.86 146.88 321.45 146.88 321.45 124.71 329.09 111.34 311.13L113.1 307.24z"/>
      <path fill="#13A399" d="M120.63 286.05C120.63 286.05 141.12 266.48 157.47 286.28 157.47 286.28 136.54 302.38 119.68 290.41L120.63 286.05zM127.48 258.71C127.48 258.71 148.1 238.71 164.32 259.63 164.32 259.63 141.18 276.06 126.75 262.91L127.48 258.71zM131.34 234.31C131.34 234.31 147.22 209.31 165.91 214.9 165.91 214.9 149.44 241.37 131.52 240.19L131.34 234.31zM136.02 211.28C136.02 211.28 152.02 179.79 167.15 185.28 167.15 185.28 155.62 209.48 135.61 216.59L136.02 211.28zM137.12 181.57C137.12 181.57 153.57 156.79 168.98 159.81 168.98 159.81 155.54 184.94 135.53 188.74L137.12 181.57zM138.38 156.27C138.38 156.27 151.12 128.47 161.49 128.22 161.49 128.22 155.37 155.84 139.23 160.95L138.38 156.27zM140.9 131.7C140.9 131.7 155.07 103.54 165.72 103.49 165.72 103.49 158.47 127.56 141.38 134.18L140.9 131.7zM143.04 101.95C143.04 101.95 153.64 78.65 162.41 76.01 162.41 76.01 157.11 104.41 144.2 108.13L143.04 101.95z"/>
      <path fill="#13A399" d="M149.8 78.33L173.48 42.25C173.48 42.25 167.42 77.84 146.34 85.25L149.8 78.33zM166.06 39.18C166.06 39.18 193.59 20.18 194.58 17.1 194.58 17.1 180.58 43.72 154.58 48.42L166.06 39.18zM167.7 30.63C167.7 30.63 199.31.24 207.38.279960548 207.38.279960548 181.31 1.47 166.94 29.01L167.7 30.63z"/>
      <path fill="#444053" d="M143.34,106.46 L144.49,106.61 C150.43,60.11 159.09,32.61 168.88,29.23 L168.5,28.14 C158.13,31.74 149.43,58.82 143.34,106.46 Z"/>
      <path fill="#444053" d="M134.61,217.63 L136.35,217.78 C136.71,213.44 136.99,208.99 137.18,204.57 C138.84,166.08 141.42,130.75 144.8,104.26 L143.8,103.01 C140.41,129.55 137.11,165.96 135.45,204.49 C135.25,208.89 134.97,213.31 134.61,217.63 Z"/>
      <path fill="#444053" d="M1.38,428.14 C1.69,428 32.32,414.33 64.11,381.7 C82.7325904,362.592717 98.2080273,340.653711 109.96,316.7 C124.65,286.77 133.61,249.99 136.62,214.26 L134.81,215.11 C128.06,295.3 91.55,350.11 62.51,379.95 C31.03,412.29 0.75,425.83 0.45,425.95 L1.38,428.14 Z"/>
    </g>
    <g id="cleaningBrowser" class="opacity" transform="translate(80 48)">
      <path fill="#3F3D56" fill-rule="nonzero" d="M969.71,0.88 L8.83,0.88 C4.10244254,0.88 0.27,4.71244254 0.27,9.44 L0.27,34.38 L978.27,34.38 L978.27,9.44 C978.27,4.71244254 974.437557,0.88 969.71,0.88 Z"/>
      <path fill="#FFF" fill-rule="nonzero" d="M0.27,34.38 L0.27,595.62 C0.27,605.152435 7.99756522,612.88 17.53,612.88 L961.01,612.88 C970.542435,612.88 978.27,605.152435 978.27,595.62 L978.27,34.38 L0.27,34.38 Z"/>
      <circle cx="15.77" cy="17.37" r="4" fill="#FA5959" fill-rule="nonzero" opacity=".8"/>
      <circle cx="26.77" cy="17.37" r="4" fill="#FED253" fill-rule="nonzero" opacity=".8"/>
      <circle cx="37.77" cy="17.37" r="4" fill="#8CCF4D" fill-rule="nonzero" opacity=".8"/>
      <g stroke="#3F3D56" opacity=".3" transform="translate(37 68)">
        <rect width="904" height="510" x=".77" y=".37"/>
        <rect width="668" height="510" x="118.77" y=".37"/>
        <rect width="432" height="510" x="236.77" y=".37"/>
        <rect width="196" height="510" x="354.77" y=".37"/>
        <path d="M452.77,0.37 L452.77,510.37"/>
        <rect width="904" height="362" x=".77" y="74.37"/>
        <rect width="904" height="216" x=".77" y="147.37"/>
        <rect width="904" height="70" x=".77" y="220.37"/>
      </g>
    </g>
    <g id="cleaningGrayPostit" class="opacity" fill="#3F3D56" fill-rule="nonzero" opacity=".1" transform="translate(148 144)">
      <rect width="71" height="26" x="111.27" y=".87"/>
      <rect width="53" height="26" x=".27" y="71.87"/>
      <rect width="71" height="26" x="226.27" y=".87"/>
      <rect width="71" height="26" x="334.27" y=".87"/>
      <rect width="71" height="26" x="434.27" y=".87"/>
      <rect width="71" height="26" x="546.27" y=".87"/>
      <rect width="71" height="26" x="660.27" y=".87"/>
      <rect width="71" height="26" x="781.27" y=".87"/>
    </g>
    <g id="cleaningYellowPostit" class="opacity" fill-rule="nonzero" transform="translate(271 206)">
      <rect width="46.13" height="44.66" x="223.83" y="70.14" fill="url(#undraw_schedule_pnbk-a)"/>
      <rect width="44.54" height="43.12" x="224.63" y="70.91" fill="#FFFFA5"/>
      <rect width="46.13" height="44.66" x="406.83" y="222.14" fill="url(#undraw_schedule_pnbk-a)"/>
      <rect width="44.54" height="43.12" x="407.63" y="222.91" fill="#FFFFA5"/>
      <rect width="46.13" height="44.66" x=".57" y=".23" fill="url(#undraw_schedule_pnbk-b)"/>
      <rect width="44.54" height="43.12" x="1.36" y="1" fill="#FFFFA5"/>
    </g>
    <g id="cleaningRedPostit" class="opacity" fill-rule="nonzero" transform="translate(363 270)">
      <rect width="46.13" height="44.66" x=".23" y=".23" fill="url(#undraw_schedule_pnbk-c)"/>
      <rect width="44.54" height="43.12" x="1.02" y="1" fill="#FF69B4"/>
      <rect width="46.13" height="44.66" x="332.23" y="142.23" fill="url(#undraw_schedule_pnbk-c)"/>
      <rect width="44.54" height="43.12" x="333.02" y="143" fill="#FF69B4"/>
      <rect width="46.13" height="44.66" x="337.23" y="7.23" fill="url(#undraw_schedule_pnbk-c)"/>
      <rect width="44.54" height="43.12" x="338.02" y="8" fill="#FF69B4"/>
    </g>
    <g id="cleaningWoman" class="opacity" fill-rule="nonzero" transform="translate(89 269)">
      <rect width="53" height="26" x="59.27" y="16.87" fill="#3F3D56" opacity=".1"/>
      <rect width="53" height="26" x="59.27" y="89.87" fill="#3F3D56" opacity=".1"/>
      <rect width="53" height="26" x="59.27" y="162.87" fill="#3F3D56" opacity=".1"/>
      <rect width="53" height="26" x="59.27" y="235.87" fill="#3F3D56" opacity=".1"/>
      <rect width="53" height="26" x="59.27" y="308.87" fill="#3F3D56" opacity=".1"/>
      <path fill="url(#undraw_schedule_pnbk-d)" d="M220.27,82.08 C221.75,81.14 221.16,78.62 219.64,77.75 C218.12,76.88 216.23,77.17 214.52,77.51 C214.669354,76.6156977 214.225054,75.7270981 213.42,75.31 L213.42,74.93 C214.42,73.93 214.04,71.93 212.82,71.05 C211.6,70.17 209.7,70.13 208.06,70.21 C208.296386,68.1936019 207.552812,66.1859543 206.06,64.81 C205.773379,64.5008168 205.380422,64.3114831 204.96,64.28 C203.96,64.28 203.68,65.56 203.61,66.51 C203.419741,69.004908 203.008121,71.4779702 202.38,73.9 L171.3,125.9 C167.84,130.9 178.59,115.9 175.13,120.95 C173.377477,123.698908 171.324879,126.244533 169.01,128.54 C166.931559,130.395066 164.606116,131.953213 162.1,133.17 C160.426374,133.218776 158.778336,132.750901 157.38,131.83 C155.624212,130.600161 154.089207,129.082062 152.84,127.34 C150.130834,123.896182 147.680782,120.256201 145.51,116.45 C144.757386,115.24529 144.191001,113.933839 143.83,112.56 C143.37,110.4 143.83,108.06 142.98,106.03 C142.618226,105.273113 142.168453,104.561532 141.64,103.91 L139.49,101.06 L139.49,100.93 C139.25,96.71 135.82,93.45 132.62,90.67 C129.9,88.29 126.95,85.81 123.36,85.35 C121.44,85.1 119.47,85.47 117.55,85.23 C115.98,85.03 114.49,84.44 112.93,84.18 C111.428556,83.9749821 109.908402,83.9447804 108.4,84.09 L107.76,83.5 C111.078928,82.0981264 113.898225,79.7283839 115.85,76.7 C117.33,74.31 118.14,71.55 119.51,69.09 C121.18,66.09 123.66,63.61 125.51,60.73 C129.98,53.9 130.8,45.11 128.99,37.15 C127.18,29.19 122.94,21.96 117.99,15.51 C108.39,3.09 92.29,-1.49 77.13,0.91 C76.13,1.07 75.13,1.26 74.13,1.48 C71.5795327,2.01660467 69.0901105,2.81067339 66.7,3.85 C63.465987,5.17403864 60.6597742,7.36433793 58.59,10.18 C58.0320661,11.0030755 57.5596168,11.8809599 57.18,12.8 C56.9007343,13.5023729 56.6734558,14.2243166 56.5,14.96 C56.0350455,17.1815941 55.9102888,19.4609316 56.13,21.72 C56.19,22.49 56.27,23.26 56.36,24.03 L56.51,25.19 C56.61,25.96 56.72,26.73 56.83,27.5 C56.99,28.66 57.14,29.82 57.25,30.96 C57.3381325,31.7669812 57.3815322,32.5782219 57.38,33.39 C57.38,33.6 57.38,33.8 57.38,34 C57.3446876,34.6036428 57.2543122,35.2027985 57.11,35.79 C57.0311656,36.1129656 56.9309445,36.4303323 56.81,36.74 C56.4497698,37.6587189 55.9760967,38.5287991 55.4,39.33 C54.6210495,40.4174219 53.7761295,41.4560388 52.87,42.44 L52,43.44 C51.71,43.77 51.43,44.11 51.14,44.44 C49.9966886,45.7732039 48.9506613,47.1868446 48.01,48.67 C47.5510313,49.4163613 47.1401952,50.1912717 46.78,50.99 C46.5063335,51.5952366 46.2692405,52.2163534 46.07,52.85 C45.8154749,53.6995021 45.6348034,54.5694019 45.53,55.45 C45.53,55.67 45.53,55.89 45.47,56.11 C45.47,56.54 45.47,56.98 45.47,57.42 C45.4919098,57.8556429 45.5386524,58.2896812 45.61,58.72 C45.6803715,59.1465068 45.7806183,59.5675432 45.91,59.98 C46.0352993,60.3980663 46.1924252,60.8059251 46.38,61.2 C46.38,61.31 46.48,61.42 46.54,61.53 L46.7,61.86 C46.81,62.08 46.92,62.29 47.02,62.51 C47.1709341,62.8284026 47.2817808,63.1643015 47.35,63.51 C47.35,63.62 47.35,63.74 47.35,63.86 C47.35,63.98 47.35,64.12 47.35,64.24 C47.1908492,65.2444389 46.6632026,66.1535597 45.87,66.79 C45.67,66.98 45.47,67.15 45.26,67.33 L44.94,67.59 L44.29,68.1 L43.67,68.6 C43.1252294,69.0564819 42.6200915,69.5582745 42.16,70.1 C36.5292118,69.7987681 30.8852665,70.3516994 25.42,71.74 C23.478309,72.3722586 21.4600046,72.7389173 19.42,72.83 C18.4259598,72.9218839 17.4513326,72.5132902 16.82,71.74 C16.4735204,70.990055 16.3788098,70.1481828 16.55,69.34 C16.8196776,65.991902 16.2705458,62.6284697 14.95,59.54 C14.6308476,58.6361432 14.0789539,57.832448 13.35,57.21 C12.5879663,56.5902513 11.5128801,56.5336679 10.69,57.07 C12.3813968,62.5409959 12.1377443,68.4274988 10,73.74 C8.9020875,76.2442509 7.61503171,78.6612414 6.15,80.97 C3.87,84.86 2.59,89.31 0.56,93.34 C2.83,101.03 2.32,109.24 3.56,117.18 C4.67,124.57 7.25,131.65 9.84,138.66 C11.84,143.95 13.92,149.47 18.16,153.19 C19.5265375,154.568526 21.3698477,155.370276 23.31,155.43 C24.746143,155.252279 26.1182558,154.730876 27.31,153.91 C28.5467673,153.236121 29.6870373,152.398577 30.7,151.42 C31.0747802,151.009402 31.4096238,150.56406 31.7,150.09 C31.8241942,150.759815 32.0790398,151.398628 32.45,151.97 C34.89,146.71 37.57,141.57 40.45,136.54 C41.3078513,136.083215 42.1127155,135.533224 42.85,134.9 C42.85,135.08 42.94,135.26 42.99,135.44 C42.86,135.92 42.74,136.44 42.61,136.89 C42.48,137.34 42.33,137.82 42.19,138.27 C42.05,138.72 41.98,138.94 41.87,139.27 C41.76,139.6 41.6,140.07 41.45,140.47 C41.3,140.87 41.13,141.34 40.96,141.77 C40.79,142.2 40.73,142.39 40.6,142.69 C40.29,143.45 39.97,144.19 39.6,144.93 C39.8786048,145.065571 40.1659033,145.182495 40.46,145.28 L40.65,145.34 C40.909226,145.421951 41.1730062,145.488731 41.44,145.54 L41.73,145.54 C41.9254713,145.570388 42.122413,145.590416 42.32,145.6 L42.54,145.6 L43.19,145.6 C43.9056255,145.568756 44.6144996,145.447811 45.3,145.24 L45.69,146.84 C46.687532,150.435203 47.3306007,154.119451 47.61,157.84 C47.8,162.04 47.07,166.31 47.88,170.44 C48.29,172.59 49.12,174.65 49.42,176.81 C49.6133896,178.844316 49.5764892,180.893963 49.31,182.92 C48.8433333,187.826667 48.3766667,192.736667 47.91,197.65 C47.8671092,199.453548 47.4374228,201.226857 46.65,202.85 C45.96,204.05 44.84,205.42 45.54,206.61 C46.6925207,206.303229 47.8655163,206.079323 49.05,205.94 C48.62,207.5 48.23,209.07 47.86,210.65 C47.499164,211.824365 47.4035301,213.06419 47.58,214.28 C47.83,215.42 48.58,216.45 48.66,217.61 C48.84,219.41 47.59,221 46.9,222.67 C45.14,226.93 47.01,231.73 48.9,235.95 L54.42,248.47 L58.95,258.74 C60.29,261.74 61.64,264.84 62.95,267.92 C68.8535415,281.944051 73.6743063,296.399659 77.37,311.16 C77.4934338,311.830035 77.7483371,312.468993 78.12,313.04 C78.88,314.04 80.27,314.36 81.4,314.98 C84.79,316.85 85.18,322.43 82.08,324.75 C82.71,332.27 77.08,339.54 74.18,346.5 C67.5,362.5 68.71,380.56 66.42,397.76 L69.01,396.25 C69.3171161,396.388137 69.6005829,396.573741 69.85,396.8 C69.79,397.12 69.72,397.453333 69.64,397.8 C69.2896292,399.262453 68.7305626,400.666856 67.98,401.97 C66.47,404.56 64.16,406.87 63.81,409.85 C63.6,411.65 64.15,413.45 64.14,415.26 C64.14,415.43 64.14,415.59 64.14,415.76 C63.91,415.54 63.56,415.56 63.04,415.97 C62.2259726,416.824894 61.6621654,417.886789 61.41,419.04 C60.96,420.33 60.6,421.64 60.24,422.95 L58.9,427.57 C58.2156739,430.354653 57.3094439,433.080031 56.19,435.72 C55.2326149,437.487494 54.4296327,439.334353 53.79,441.24 C53.4335153,442.793237 53.295518,444.388621 53.38,445.98 C53.3537331,447.505165 53.5732085,449.02461 54.03,450.48 C55.2436027,453.378509 57.6209755,455.632476 60.58,456.69 C63.5091073,457.719447 66.577229,458.299355 69.68,458.41 C70.4754112,458.51208 71.2819267,458.488459 72.07,458.34 C72.9139348,458.097109 73.6997959,457.685468 74.38,457.13 C78.6,454.03 80.78,448.33 81.16,443.13 C81.0532558,442.056752 80.8626739,440.993506 80.59,439.95 C80.85,434.26 80.02,428.54 80.45,422.87 C80.54,423.52 80.63,424.16 80.73,424.8 L81.73,431.17 C81.6713923,430.943585 81.5541164,430.736627 81.39,430.57 C80.649815,432.928932 80.5190844,435.436895 81.01,437.86 C81.5085948,440.271866 82.2111192,442.637031 83.11,444.93 L84.47,448.73 C84.797728,449.876265 85.3482241,450.946674 86.09,451.88 C87.28,453.19 89.09,453.68 90.83,454.1 C94.5701229,455.192632 98.4207305,455.86347 102.31,456.1 C102.830045,456.160839 103.356342,456.063247 103.82,455.82 C104.057969,455.643906 104.285052,455.453557 104.5,455.25 C104.845562,455.002298 105.213885,454.788002 105.6,454.61 C107.270968,453.730642 108.533593,452.234862 109.12,450.44 C109.689176,448.633519 109.452313,446.669381 108.47,445.05 C108.015331,444.374694 107.496234,443.745079 106.92,443.17 L100.08,435.92 C99.0342327,434.678032 97.9191219,433.496148 96.74,432.38 C96.454321,432.08725 96.0434831,431.952794 95.64,432.02 C93.78,427.38 94.02,421.96 94.34,416.87 C94.44,415.35 95.27,412.2 95.6,409.61 C96.9192901,409.164466 98.148539,408.487194 99.23,407.61 C100.27239,406.848615 101.012544,405.743696 101.32,404.49 C104.77,386.87 110.32,369.79 115.56,352.62 C116.08,350.93 116.56,349.23 117.09,347.54 C117.31,346.82 117.51,346.09 117.72,345.36 C117.93,344.63 118.07,344.18 118.24,343.59 C118.52,342.59 118.8,341.59 119.07,340.59 C119.15,340.32 119.22,340.05 119.3,339.78 C119.295453,339.726764 119.295453,339.673236 119.3,339.62 C119.63,338.39 119.95,337.16 120.3,335.93 C120.42,335.45 120.55,334.99 120.67,334.51 C121.06,332.95 121.45,331.37 121.82,329.8 C121.88096,329.583276 121.927725,329.362809 121.96,329.14 C122.095093,328.585193 122.056699,328.002294 121.85,327.47 C121.750349,327.263932 121.618722,327.074929 121.46,326.91 C121.35,326.78 121.23,326.65 121.11,326.53 C120.99,326.41 120.85,326.25 120.73,326.1 C120.414274,325.712625 120.176563,325.267767 120.03,324.79 C120.03,324.31 120.03,323.79 120.03,323.35 C120.03,322.91 119.97,322.35 119.94,321.83 C120.047094,321.154399 120.197402,320.486362 120.39,319.83 C120.51,319.44 120.64,319.05 120.76,318.66 C120.88,318.27 121.06,317.66 121.22,317.21 C121.818323,316.527517 122.142527,315.647533 122.13,314.74 C122.75,313.193333 123.433333,311.676667 124.18,310.19 C125.100973,308.683067 125.722344,307.012496 126.01,305.27 C126.005701,303.69564 125.810953,302.127581 125.43,300.6 C124.43,294.1 127.43,287.77 129.64,281.6 C131.279539,277.048758 132.524136,272.36479 133.36,267.6 C134.01,263.95 134.46,260.12 136.41,256.96 C137.053457,256.072627 137.603069,255.12086 138.05,254.12 C138.352721,253.073827 138.500953,251.989035 138.49,250.9 C138.7361,246.484387 139.804401,242.153528 141.64,238.13 C142.046725,237.350031 142.323685,236.509019 142.46,235.64 C142.465305,235.583457 142.465305,235.526543 142.46,235.47 L142.46,235.23 L142.97,235.15 C143.84,229.64 144.72,223.5 144.12,217.95 C143.339632,211.521312 140.208713,205.608541 135.33,201.35 L135.43,201.35 C137.15,200.48 137.92,198.35 137.95,196.47 C137.958289,193.584541 136.656079,190.851372 134.41,189.04 C133.914103,188.731652 133.501927,188.305737 133.21,187.8 C133.044144,187.280499 132.992967,186.731199 133.06,186.19 C133.076553,182.850569 131.073516,179.832186 127.99,178.55 C127.677021,178.463174 127.391354,178.297969 127.16,178.07 C126.903137,177.629206 126.824435,177.106913 126.94,176.61 C127.129,173.300921 125.469677,170.159373 122.63,168.45 C123.03,166.31 123.43,164.07 122.82,161.97 C122.21,159.87 120.24,157.97 118.08,158.27 C119.84,153.47 117.34,148.13 118,143.06 C118.29,140.88 119.16,138.79 119.27,136.6 C119.37,134.6 118.88,132.46 119.85,130.72 C120.82,128.98 123.11,127.62 122.52,125.72 C122.27,124.91 121.52,124.35 121.17,123.56 C120.82,122.77 122.22,121.56 122.94,122 C123.28,121.74 123.62,121.47 123.94,121.19 C124.044378,122.206769 124.245284,123.211298 124.54,124.19 C125.03,125.83 125.78,127.37 126.29,129 C127.07,131.49 127.29,134.19 128.55,136.47 C130.55,140.12 134.78,141.93 137.64,144.96 C139.32,146.73 140.53,148.96 142.26,150.64 C143.573915,151.867086 145.015469,152.949927 146.56,153.87 L155.8,159.87 C156.758416,160.565883 157.826488,161.096539 158.96,161.44 C160.413333,161.716942 161.916608,161.384317 163.11744,160.520097 C164.318271,159.655876 165.111072,158.336049 165.31,156.87 C164.460392,156.569436 163.68597,156.088407 163.04,155.46 C163.17,155.46 163.3,155.46 163.43,155.4 C165.624958,154.826016 167.655544,153.747374 169.36,152.25 C175.94,147.01 180.67,139.86 185.29,132.83 C190.13,125.46 213.42,105.96 213.42,105.96 L213.42,98.06 C216.383645,96.341994 219.01253,94.1026985 221.18,91.45 C222.348554,90.0350922 223.032082,88.2824559 223.13,86.45 C223.221582,84.5282381 222.067773,82.7652503 220.27,82.08 Z M26.57,101.03 C26.1233333,103.903333 25.5733333,106.756667 24.92,109.59 C24.2003237,112.867173 23.2785625,116.096677 22.16,119.26 L21.8,120.26 C21.47,119.64 21.14,119.03 20.8,118.4 C20.05,116.83 19.44,115.2 18.8,113.57 L14.94,103.17 C14.44,101.82 13.94,100.26 14.69,99.02 C15.2397563,98.26033 16.006785,97.6850584 16.89,97.37 C19.6039792,96.1253987 22.4389392,95.1636569 25.35,94.5 C26.2704153,94.3153236 27.1787564,94.0748804 28.07,93.78 C27.3523827,96.1464855 26.8503364,98.5730426 26.57,101.03 Z M30.84,88.03 C30.5782525,87.5606957 30.5782525,86.9893043 30.84,86.52 C31.1289388,86.2289192 31.4676027,85.9918545 31.84,85.82 L32.13,85.62 C31.73,86.45 31.28,87.25 30.84,88.06 L30.84,88.03 Z M38.84,76.72 C37.7048025,77.6618063 36.6723939,78.7210307 35.76,79.88 C34.7809221,81.1732686 33.8985301,82.5369652 33.12,83.96 C33.3606911,82.831677 32.9330182,81.6652963 32.02,80.96 C31.6658567,80.7655582 31.3310149,80.5378658 31.02,80.28 C30.3241212,79.3521616 30.5121616,78.0358788 31.44,77.34 C32.3602043,76.708869 33.4358954,76.3422347 34.55,76.28 L39.16,75.6 C39.02,75.99 38.93,76.37 38.83,76.75 L38.84,76.72 Z M82,411.37 C82.0812893,409.987464 81.9905955,408.600185 81.73,407.24 C82.3,407.24 82.87,407.24 83.43,407.24 C82.96,408.57 82.48,409.98 82,411.37 Z"/>
      <path fill="#303D5C" d="M77.3,3.91 C69.3,5.2 60.4,8.28 57.3,15.78 C54.99,21.45 56.78,27.83 57.37,33.92 C57.5937601,35.5276813 57.5362364,37.1620288 57.2,38.75 C56.54,41.32 54.72,43.4 52.96,45.39 C50.5149981,47.9166365 48.462226,50.7952364 46.87,53.93 C45.43,57.13 44.97,60.93 46.46,64.13 C46.9668507,64.9522475 47.3066604,65.8663357 47.46,66.82 C47.56,68.9 45.38,70.22 43.78,71.55 C37.78,76.55 38.03,85.55 37.98,93.38 C37.8878212,109.345739 34.3434541,125.102651 27.59,139.57 C32.7698163,142.193422 39.0278753,141.375945 43.36,137.51 C42.5284056,141.065023 41.3285921,144.523703 39.78,147.83 C44.86,150.29 50.99,146.25 53.54,141.21 C56.09,136.17 56.39,130.31 58.2,124.96 C60.01,119.61 63.2,114.96 64.61,109.57 C65.06,107.79 65.34,105.89 66.43,104.41 C67.3484049,103.339325 68.4280194,102.418279 69.63,101.68 C74.9046016,97.8726461 78.8586231,92.5132164 80.94,86.35 C87.16,87.72 93.51,89.1 99.85,88.52 C106.19,87.94 112.67,85.07 116.02,79.65 C117.5,77.26 118.3,74.51 119.67,72.05 C121.35,69.05 123.82,66.57 125.67,63.7 C130.13,56.87 130.95,48.1 129.14,40.14 C127.33,32.18 123.14,24.98 118.14,18.53 C108.56,6.09 92.46,1.48 77.3,3.91 Z"/>
      <path fill="#13A399" d="M26.81,103.93 C26.36,106.79 25.81,109.65 25.17,112.48 C24.4443234,115.752377 23.5226624,118.97819 22.41,122.14 C21.7557325,123.52477 21.4567302,125.050713 21.54,126.58 C21.7373025,127.516485 22.0996125,128.410409 22.61,129.22 C26.26,135.71 31.2,141.98 31.61,149.42 C31.71,151.27 31.61,153.28 32.61,154.81 C35.43,148.736667 38.5433333,142.816667 41.95,137.05 C45.51,131.05 49.47,124.91 50.49,117.97 C50.8967739,114.712856 50.8530295,111.415208 50.36,108.17 C49.89,104.52 49.07,100.78 46.85,97.86 C44.43,94.7 37.85,89.93 33.52,90.92 C28.49,92.07 27.45,99.86 26.81,103.93 Z"/>
      <path fill="#EE8E9E" d="M155.7,138.91 C160.48,136.96 165.36,134.91 169.15,131.39 C171.464879,129.094533 173.517477,126.548908 175.27,123.8 L186.52,107.57 C189.18,103.71 191.93,99.66 192.52,95.01 C199.108403,88.0542816 203.077702,79.0270441 203.75,69.47 C203.83,68.52 204.15,67.27 205.1,67.24 C205.520422,67.2714831 205.913379,67.4608168 206.2,67.77 C207.691166,69.1428435 208.434731,71.1467495 208.2,73.16 C209.84,73.08 211.62,73.04 212.96,74 C214.3,74.96 214.66,77.34 213.22,78.13 C214.217598,78.432903 214.831619,79.4333712 214.65,80.46 C216.37,80.12 218.26,79.84 219.78,80.7 C221.3,81.56 221.88,84.08 220.41,85.02 C222.16606,85.699088 223.306524,87.4077822 223.26,89.29 C223.168447,91.123824 222.484164,92.8783942 221.31,94.29 C216.99,100.09 209.37,102.43 204.36,107.65 C202.713769,109.474996 201.23764,111.446517 199.95,113.54 L185.44,135.62 C180.83,142.62 176.1,149.79 169.52,155.01 C167.815544,156.507374 165.784958,157.586016 163.59,158.16 C161.353539,158.72407 158.985398,158.066464 157.36,156.43 C155.91,154.78 155.69,152.43 155.55,150.22 C155.31,146.5 155.95,142.66 155.7,138.91 Z"/>
      <path fill="#303D5C" d="M107.11,445.57 C107.688607,446.142917 108.207906,446.772777 108.66,447.45 C109.64188,449.065855 109.878796,451.026795 109.31,452.83 C108.730352,454.623054 107.469938,456.116878 105.8,456.99 C105.409554,457.165726 105.037696,457.38013 104.69,457.63 C104.47735,457.839188 104.250112,458.033009 104.01,458.21 C103.543117,458.443785 103.019663,458.54085 102.5,458.49 C98.6151707,458.24362 94.7689558,457.572964 91.03,456.49 C89.31,456.06 87.49,455.57 86.29,454.27 C85.5482241,453.336674 84.997728,452.266265 84.67,451.12 L83.31,447.33 C82.4170434,445.039283 81.717923,442.677661 81.22,440.27 C80.7237492,437.850636 80.8545614,435.34455 81.6,432.99 C81.9372189,433.412132 82.1143227,433.939901 82.1,434.48 C82.5002812,437.03143 83.501104,439.451227 85.02,441.54 C85.3374031,442.063373 85.7205187,442.543948 86.16,442.97 C87.1541908,443.732996 88.3289615,444.225641 89.57,444.4 C91.9585839,444.919182 94.387675,445.230346 96.83,445.33 C97.1681122,445.37596 97.5123611,445.33465 97.83,445.21 C98.2221733,444.992417 98.5183792,444.635542 98.66,444.21 C99.0097444,443.24058 99.0097444,442.17942 98.66,441.21 C98,439.36 96.19,438.15 95.33,436.39 C94.68,435.09 95.57,433.66 96.89,434.76 C98.0749389,435.873467 99.1935276,437.055498 100.24,438.3 L107.11,445.57 Z"/>
      <path fill="#EE8E9E" d="M94.54,419.3 C94.15,425.41 93.88,432.01 97.22,437.14 C98.43,438.98 100.04,440.53 101.41,442.26 C102.195655,443.125059 102.716298,444.197585 102.91,445.35 C103.1,447.59 101,449.51 98.79,449.93 C96.58,450.35 94.32,449.65 92.18,448.93 C90.1550548,448.426164 88.248912,447.529156 86.57,446.29 C83.66,443.83 82.89,439.73 82.31,435.97 L80.95,427.23 C79.9198032,422.812031 80.3550444,418.178818 82.19,414.03 L84.43,407.47 C84.5766031,406.83213 84.9277852,406.259703 85.43,405.84 C85.9510865,405.553138 86.5504441,405.440978 87.14,405.52 C89.28,405.63 94.69,406.41 95.73,408.68 C96.61,410.65 94.69,416.95 94.54,419.3 Z"/>
      <path fill="#000" d="M94.54,419.3 C94.15,425.41 93.88,432.01 97.22,437.14 C98.43,438.98 100.04,440.53 101.41,442.26 C102.195655,443.125059 102.716298,444.197585 102.91,445.35 C103.1,447.59 101,449.51 98.79,449.93 C96.58,450.35 94.32,449.65 92.18,448.93 C90.1550548,448.426164 88.248912,447.529156 86.57,446.29 C83.66,443.83 82.89,439.73 82.31,435.97 L80.95,427.23 C79.9198032,422.812031 80.3550444,418.178818 82.19,414.03 L84.43,407.47 C84.5766031,406.83213 84.9277852,406.259703 85.43,405.84 C85.9510865,405.553138 86.5504441,405.440978 87.14,405.52 C89.28,405.63 94.69,406.41 95.73,408.68 C96.61,410.65 94.69,416.95 94.54,419.3 Z" opacity=".05"/>
      <path fill="#303D5C" d="M142.61 238.19C142.614346 238.246583 142.614346 238.303417 142.61 238.36 142.482899 239.224876 142.205377 240.060827 141.79 240.83 139.954344 244.843475 138.882717 249.163896 138.63 253.57 138.640953 254.659035 138.492721 255.743827 138.19 256.79 137.741444 257.78688 137.191907 258.735167 136.55 259.62 134.6 262.79 134.15 266.62 133.5 270.25 132.662089 274.994755 131.417499 279.658621 129.78 284.19 127.55 290.37 124.55 296.69 125.57 303.19 125.950953 304.717581 126.145701 306.28564 126.15 307.86 125.865035 309.600081 125.243431 311.267881 124.32 312.77 123.573333 314.25 122.906667 315.766667 122.32 317.32 121.67 318.98 121.09 320.68 120.58 322.4 119.98 324.49 119.58 326.97 120.96 328.65 121.388776 329.061063 121.768017 329.520852 122.09 330.02 122.349832 330.785211 122.349832 331.614789 122.09 332.38 121.296667 335.713333 120.45 339.046667 119.55 342.38 118.85 344.98 118.11 347.56 117.35 350.14 111.73 369.01 105.35 387.69 101.59 407.02 101.05 409.8 97.48 411.79 94.72 412.4 91.9007116 413.002562 88.963394 412.218038 86.82 410.29 86.63 410.12 86.45 409.93 86.28 409.75 83.38 406.63 82.95 401.84 83.17 397.52 84.17 377.63 94.17 359.42 98.93 340.09 100.651573 333.100542 101.689786 325.960312 102.03 318.77 103.14 294.77 103.59 269.39 96.8 246.32 95.39 241.52 93.72 236.1 96.26 231.8 97.86 229.08 100.83 227.47 103.77 226.31 115.882615 221.58964 129.386478 221.950127 141.23 227.31 141.239764 227.790779 141.219726 228.2717 141.17 228.75 140.915404 230.98575 141.175361 233.250114 141.93 235.37 142.318295 236.263518 142.548383 237.217709 142.61 238.19zM60.39 425.45L59.12 430.07C58.4435744 432.849199 57.5405528 435.568297 56.42 438.2 55.4626149 439.967494 54.6596327 441.814353 54.02 443.72 53.6635153 445.273237 53.525518 446.868621 53.61 448.46 53.5837624 449.981885 53.8032496 451.498035 54.26 452.95 55.4705186 455.844818 57.8447366 458.095606 60.8 459.15 63.7285501 460.180098 66.7972838 460.75675 69.9 460.86 70.6946125 460.970389 71.5019276 460.950122 72.29 460.8 73.1339348 460.557109 73.9197959 460.145468 74.6 459.59 78.82 456.5 80.99 450.8 81.37 445.59 81.2609701 444.374863 81.0229639 443.174775 80.66 442.01 80.33 441.57 77.14 443.37 78.51 444.88 80.51 447.1 74.62 445.95 71.62 445.76 70.3022421 445.646775 68.9950881 445.432816 67.71 445.12L62.85 444.12C61.26 443.78 59.43 443.23 58.85 441.71 58.27 440.19 59.51 438.37 60.47 436.89 63.01 432.96 63.67 428.15 64.26 423.51 64.37 422.6 65.51 416.69 63.16 418.51 62.3533121 419.370162 61.7906412 420.429917 61.53 421.58 61.1 422.83 60.74 424.14 60.39 425.45z"/>
      <path fill="#000" d="M120.91,328.66 C119.53,326.98 119.91,324.5 120.54,322.41 C120.76,321.63 121.01,320.86 121.27,320.09 L102.19,313.63 C102.12,315.35 102.04,317.05 101.96,318.75 C101.627381,325.943691 100.592461,333.087651 98.87,340.08 C94.1,359.4 84.09,377.61 83.11,397.49 C82.88,402.07 83.37,407.19 86.76,410.27 C88.8992756,412.19843 91.8322859,412.986514 94.65,412.39 C97.42,411.78 100.98,409.78 101.53,407 C105.31,387.67 111.66,369 117.29,350.11 C119.043333,344.25 120.623333,338.343333 122.03,332.39 C122.289816,331.628211 122.289816,330.801789 122.03,330.04 C121.716817,329.534281 121.340451,329.070544 120.91,328.66 Z" opacity=".05"/>
      <path fill="#EE8E9E" d="M68.19,404.49 C66.68,407.09 64.38,409.39 64.03,412.37 C63.82,414.16 64.37,415.96 64.36,417.77 C64.2861509,419.267714 64.0206548,420.749787 63.57,422.18 C61.71,428.893333 59.57,435.513333 57.15,442.04 C56.7521885,442.88167 56.5766082,443.811213 56.64,444.74 C56.88,446.27 58.37,447.28 59.79,447.89 C64.34,449.83 69.46,449.7 74.4,449.5 C75.8366499,449.558492 77.260813,449.21198 78.51,448.5 C80.28,447.29 80.72,444.9 80.83,442.76 C81.17,436.56 80.12,430.33 80.83,424.17 C81.08,421.92 81.55,419.71 81.9,417.48 C82.39,414.38 82.64,411.12 81.62,408.15 C80.7754776,406.018396 79.5937306,404.036437 78.12,402.28 C76.8197181,400.377991 75.1746892,398.736353 73.27,397.44 C72.69,397.1 71.04,396.04 70.45,396.7 C70.15,397.04 70.28,397.95 70.24,398.37 C70.1624167,399.015818 70.0489075,399.656812 69.9,400.29 C69.5345196,401.764811 68.9586119,403.179321 68.19,404.49 Z"/>
      <path fill="#000" d="M104.85,245.93 C103.96,247.14 104.14,248.82 104.5,250.28 C105.13,252.92 106.19,255.45 107.05,258.02 C108.457457,262.634572 109.553259,267.3385 110.33,272.1 C111.13,276.4 112.83,281.19 112.14,285.52 C117.355846,295.447287 120.784761,306.214689 122.27,317.33 C122.66,320.18 116.33,323.86 116.45,326.73 C116.69,332.45 121.25,332.91 117.89,337.47 C117.72,337.7 119.15,342.81 118.96,343.03 C117.59,344.68 115.85,346.03 114.38,347.54 C112.484057,349.688042 110.861688,352.062814 109.55,354.61 C100.85,370.33 88.27,388.15 92.15,405.7 C92.3119514,406.99421 91.6491277,408.251978 90.49,408.85 C89.3414727,409.40252 88.084497,409.692854 86.81,409.7 L86.21,409.7 C83.31,406.58 82.88,401.79 83.1,397.47 C84.1,377.58 94.1,359.37 98.86,340.04 C100.581573,333.050542 101.619786,325.910312 101.96,318.72 C103.07,294.72 103.52,269.34 96.73,246.27 C95.32,241.47 93.65,236.05 96.19,231.75 C97.79,229.03 100.76,227.42 103.7,226.26 C115.812615,221.53964 129.316478,221.900127 141.16,227.26 C141.169764,227.740779 141.149726,228.2217 141.1,228.7 C140.845404,230.93575 141.105361,233.200114 141.86,235.32 C142.279221,236.227781 142.533197,237.203048 142.61,238.2 C142.61,238.2 142.95,234.33 142.94,234.39 C135.19,235.5 127.01,240.57 119.19,241.72 C115.135722,242.15264 111.141557,243.031289 107.28,244.34 C106.339124,244.6363 105.49826,245.186494 104.85,245.93 Z" opacity=".05"/>
      <path fill="#303D5C" d="M50.86,203.35 C49.8133333,206.683333 48.89,210.05 48.09,213.45 C47.7340073,214.62528 47.6384563,215.864029 47.81,217.08 C48.06,218.22 48.81,219.24 48.89,220.4 C49.07,222.2 47.82,223.79 47.13,225.46 C45.37,229.71 47.25,234.51 49.13,238.72 L54.65,251.22 L59.19,261.48 C60.54,264.53 61.88,267.58 63.19,270.65 C69.0901821,284.657195 73.9076361,299.096184 77.6,313.84 C77.7243139,314.508182 77.9755097,315.146355 78.34,315.72 C79.11,316.72 80.5,317.04 81.62,317.66 C85.02,319.52 85.41,325.1 82.3,327.42 C82.94,334.93 77.3,342.18 74.41,349.14 C67.73,365.14 68.94,383.14 66.65,400.34 L69.24,398.82 C71.73,399.96 71.64,403.49 72.98,405.88 C74.98,409.47 79.9,409.97 83.98,409.7 C85.251432,409.694054 86.5054141,409.403622 87.65,408.85 C88.8112973,408.254169 89.4749852,406.994761 89.31,405.7 C85.44,388.15 98.01,370.33 106.72,354.61 C108.028215,352.063137 109.647238,349.688346 111.54,347.54 C113.02,345.98 114.75,344.67 116.13,343.03 C119.97,338.42 120.46,331.92 120.2,325.92 C119.590167,311.811155 115.867974,298.011724 109.3,285.51 C110,281.19 108.3,276.4 107.5,272.1 C106.72033,267.339703 105.614391,262.638625 104.19,258.03 C103.33,255.44 102.28,252.92 101.64,250.28 C101.29,248.82 101.1,247.14 101.99,245.93 C102.647508,245.183081 103.49895,244.632759 104.45,244.34 C108.311557,243.031289 112.305722,242.15264 116.36,241.72 L143.19,237.87 C144.05,232.36 144.93,226.22 144.33,220.68 C143.012051,210.186348 135.565372,201.488721 125.4,198.57 C124.23,198.26 122.86,198.06 121.9,198.8 C98.2246853,194.152225 73.7489335,195.719859 50.86,203.35 Z"/>
      <path fill="#EE8E9E" d="M75.19,58.44 C75.5810823,61.0594081 75.1733394,63.7358749 74.02,66.12 C73.2409049,67.4220555 72.2230964,68.5653937 71.02,69.49 C68.4257336,71.5757959 65.4096288,73.0736127 62.18,73.88 C60.28,74.36 58.18,74.68 56.89,76.19 C55.01,78.46 56.27,81.9 57.89,84.38 C60.67,88.7 64.53,92.61 69.48,93.96 C73.48,95.04 77.65,94.38 81.69,95.08 C84.62,95.59 87.38,96.8 90.27,97.49 C98.6250853,99.4012582 107.380067,96.959495 113.54,91 C109.24,87.7 104.78,84.19 102.54,79.25 C100.963426,75.7145127 100.66644,71.7405507 101.7,68.01 C102.7,64.35 105.05,60.79 104.33,57.01 C103.61,53.23 99.93,50.7 96.33,49.44 C93.0248297,48.436151 89.6281789,47.7628504 86.19,47.43 C84.3,47.17 72.3,44.52 71.55,45.83 C71.13,46.57 73.62,50.95 73.93,51.92 C74.6610154,54.0215242 75.0853765,56.2174246 75.19,58.44 Z"/>
      <circle cx="90.32" cy="42.86" r="24.34" fill="#EE8E9E"/>
      <path fill="#13A399" d="M77.46,83.09 L93.97,85.87 C98.0280431,86.6956013 102.158825,87.1110247 106.3,87.11 C108.561088,86.8850907 110.838912,86.8850907 113.1,87.11 C114.66,87.37 116.15,87.96 117.71,88.16 C119.64,88.4 121.6,88.03 123.53,88.28 C127.11,88.74 130.06,91.22 132.78,93.59 C135.97,96.37 139.4,99.59 139.65,103.84 C139.69486,104.32245 139.626373,104.808709 139.45,105.26 C139.136622,105.770002 138.717118,106.20656 138.22,106.54 C135.22,109.03 133.49,112.74 131.33,116.02 C129.106082,119.404104 126.334962,122.394886 123.13,124.87 C122.41,124.41 121.04,125.62 121.35,126.42 C121.66,127.22 122.45,127.77 122.71,128.58 C123.3,130.45 120.99,131.83 120.03,133.58 C119.07,135.33 119.56,137.46 119.46,139.45 C119.34,141.64 118.46,143.73 118.19,145.9 C117.52,150.97 120.03,156.31 118.26,161.1 C120.43,160.83 122.39,162.7 123,164.79 C123.61,166.88 123.22,169.13 122.81,171.27 C125.650294,172.970177 127.313901,176.104845 127.13,179.41 C126.957834,179.797706 126.970746,180.242566 127.165111,180.619634 C127.359475,180.996701 127.714327,181.265304 128.13,181.35 C131.208334,182.632988 133.209775,185.645018 133.2,188.98 C133.133093,189.524506 133.184254,190.077036 133.35,190.6 C133.641391,191.100179 134.049725,191.522238 134.54,191.83 C136.78686,193.636393 138.089631,196.367059 138.08,199.25 C138.08,201.18 137.28,203.25 135.57,204.12 C132.07,205.9 128.32,206.59 124.48,207.42 C120.941709,208.256064 117.359456,208.893725 113.75,209.33 C110.424036,209.602062 107.086429,209.705528 103.75,209.64 L81.67,209.55 C75.46,209.55 69.25,209.55 63.06,209.08 C57.28,208.69 51.37,207.97 45.77,209.49 C45.07,208.3 46.19,206.93 46.88,205.74 C47.6709913,204.118141 48.1008693,202.344041 48.14,200.54 L49.54,185.83 C49.8064163,183.807308 49.8433172,181.760982 49.65,179.73 C49.35,177.56 48.53,175.51 48.11,173.36 C47.31,169.24 48.04,164.98 47.85,160.78 C47.5644258,157.059482 46.9180561,153.37551 45.92,149.78 L41.54,131.78 C40.84,128.89 40.47,125.53 39.39,122.78 C36.0233333,114.113333 32.4933333,105.54 28.8,97.06 C28.5294884,96.3073925 28.6025914,95.474018 29,94.78 L32.65,88.24 C33.6265264,86.3811862 34.743083,84.5993757 35.99,82.91 C39.0726786,79.0115263 43.4381177,76.3327342 48.31,75.35 C53.1885274,74.3960366 58.246664,75.1443443 62.64,77.47 C64.34,78.38 65.92,79.47 67.64,80.37 C70.59,81.77 74.19,83.31 77.46,83.09 Z"/>
      <path fill="#13A399" d="M136.04,99.12 L141.79,106.79 C142.318453,107.441532 142.768226,108.153113 143.13,108.91 C143.99,110.91 143.52,113.27 143.98,115.42 C144.338298,116.796426 144.908442,118.108769 145.67,119.31 C147.831644,123.110893 150.275156,126.744405 152.98,130.18 C154.229682,131.925048 155.768518,133.443591 157.53,134.67 C159.31528,135.903946 161.548471,136.301687 163.65,135.76 C162.78121,136.098474 162.068668,136.746887 161.65,137.58 C159.46,141.92 159.3,147.06 160.23,151.82 C160.491659,153.453717 161.032914,155.03012 161.83,156.48 C162.628454,157.942935 163.928068,159.068557 165.49,159.65 C165.291344,161.115529 164.498154,162.434653 163.296875,163.297304 C162.095595,164.159955 160.592175,164.49005 159.14,164.21 C158.007921,163.870712 156.942459,163.339672 155.99,162.64 L146.75,156.64 C145.20769,155.716618 143.766474,154.63403 142.45,153.41 C140.72,151.69 139.52,149.51 137.84,147.74 C134.98,144.74 130.78,142.9 128.76,139.26 C127.49,136.98 127.27,134.26 126.49,131.8 C125.98,130.17 125.23,128.63 124.74,126.99 C123.22,121.93 124.32,116.38 126.63,111.63 C128.94,106.88 132.62,103.16 136.04,99.12 Z"/>
      <path fill="#303D5C" d="M114.37,28.98 C112.117387,25.486221 109.210752,22.4607402 105.81,20.07 C101.26,16.68 96.03,13.86 90.36,13.54 C87.9893859,13.4190592 85.6201908,13.8042665 83.41,14.67 C83.3,7.8 81.6,3.22 77.3,3.91 C69.3,5.2 60.4,8.28 57.3,15.78 C54.99,21.45 56.78,27.83 57.37,33.92 C57.5937601,35.5276813 57.5362364,37.1620288 57.2,38.75 C56.54,41.32 54.72,43.4 52.96,45.39 C50.5149981,47.9166365 48.462226,50.7952364 46.87,53.93 C45.43,57.13 44.97,60.93 46.46,64.13 C46.9668507,64.9522475 47.3066604,65.8663357 47.46,66.82 C47.56,68.9 45.38,70.22 43.78,71.55 C37.78,76.55 38.03,85.55 37.98,93.38 C37.8878212,109.345739 34.3434541,125.102651 27.59,139.57 C32.7698163,142.193422 39.0278753,141.375945 43.36,137.51 C42.5284056,141.065023 41.3285921,144.523703 39.78,147.83 C44.86,150.29 50.99,146.25 53.54,141.21 C56.09,136.17 56.39,130.31 58.2,124.96 C60.01,119.61 63.2,114.96 64.61,109.57 C65.06,107.79 65.34,105.89 66.43,104.41 C67.3484049,103.339325 68.4280194,102.418279 69.63,101.68 C74.87,97.92 67.15,69.43 69.2,63.31 C72.2,63.98 77.85,49.31 81.04,34.31 C83.264681,35.0768321 85.6377918,35.3131159 87.97,35 C88.7807845,34.8242162 89.6127778,34.7669535 90.44,34.83 C91.2080905,34.9876751 91.9404023,35.2860243 92.6,35.71 C94.9604539,37.1584344 97.4275557,38.4254149 99.98,39.5 C105.26,41.5 111.06,41.21 116.69,40.93 C117.45273,36.7966222 116.623954,32.527712 114.37,28.98 Z"/>
      <g fill="#000" opacity=".1" transform="translate(27 3)">
        <path d="M3.45 136.57C10.2240995 122.121854 13.7858776 106.377021 13.89 90.42 13.94 82.62 13.68 73.56 19.69 68.59 21.29 67.26 23.47 65.94 23.37 63.86 23.2126841 62.9073881 22.8731525 61.9940481 22.37 61.17 20.88 57.99 21.37 54.17 22.77 50.97 24.3625611 47.8329298 26.4190075 44.9539049 28.87 42.43 30.62 40.43 32.45 38.36 33.1 35.79 33.4351832 34.2020679 33.4960625 32.5684754 33.28 30.96 32.68 24.87 30.9 18.49 33.21 12.82 36.21 5.56 44.6 2.45 52.4 1.09 51.7217074.87374377 51.0009965.825696377 50.3.95 42.3 2.24 33.4 5.32 30.3 12.82 27.99 18.49 29.78 24.87 30.37 30.96 30.5937601 32.5676813 30.5362364 34.2020288 30.2 35.79 29.54 38.36 27.72 40.44 25.96 42.43 23.5149981 44.9566365 21.462226 47.8352364 19.87 50.97 18.43 54.17 17.97 57.97 19.46 61.17 19.9668507 61.9922475 20.3066604 62.9063357 20.46 63.86 20.56 65.94 18.38 67.26 16.78 68.59 10.78 73.59 11.03 82.59 10.98 90.42 10.8820607 106.372233 7.33783039 122.114893.59 136.57 2.96918575 137.799562 5.65694879 138.303735 8.32 138.02 6.61807977 137.856624 4.96410745 137.364168 3.45 136.57zM15.64 144.79C17.1783018 141.482533 18.3680495 138.023886 19.19 134.47 18.1631633 135.409121 16.9957118 136.181799 15.73 136.76 14.9497735 139.503995 13.9464289 142.179581 12.73 144.76 14.1927023 145.455729 15.839424 145.665949 17.43 145.36 16.8117247 145.246081 16.2103035 145.054567 15.64 144.79zM59.27 11.67C60.7573907 11.0910259 62.3198191 10.7273572 63.91 10.59L63.36 10.59C61.9824005 10.5188997 60.6013488 10.6230666 59.25 10.9 59.26 11.12 59.27 11.39 59.27 11.67zM75.84 36.47C73.2907839 35.3953764 70.827009 34.1283877 68.47 32.68 67.8069415 32.2557095 67.0712972 31.9573837 66.3 31.8 65.5439249 31.7318674 64.7818856 31.7790734 64.04 31.94 64.581912 32.1375431 65.1041817 32.3852864 65.6 32.68 67.9604539 34.1284344 70.4275557 35.3954149 72.98 36.47 76.9546548 37.7810309 81.1424219 38.3240153 85.32 38.07 82.0928942 38.0689555 78.8886894 37.5281615 75.84 36.47zM56.9 31.28C56.9 31.5 56.81 31.72 56.76 31.94 57.9583029 32.1182388 59.1736847 32.1518128 60.38 32.04 59.1953285 31.9169821 58.028097 31.6620695 56.9 31.28z"/>
      </g>
      <path fill="#EE8E9E" d="M33.24 147.16C33.5215418 149.767294 32.6440988 152.366719 30.84 154.27 29.8263335 155.247743 28.6861815 156.085199 27.45 156.76 26.2573153 157.577329 24.8852686 158.095277 23.45 158.27 21.5154157 158.207394 19.6773857 157.409961 18.31 156.04 14.07 152.32 11.95 146.81 9.99 141.52 7.4 134.52 4.82 127.45 3.71 120.06 2.52 112.14 3.03 103.94.76 96.25 2.76 92.25 4.06 87.79 6.35 83.91 7.80324679 81.5978642 9.08984018 79.1850838 10.2 76.69 12.3264646 71.3781069 12.5664884 65.4975239 10.88 60.03 11.7028801 59.4936679 12.7779663 59.5502513 13.54 60.17 14.266853 60.7943364 14.8183307 61.5974259 15.14 62.5 16.4604885 65.5849663 17.0096509 68.9451539 16.74 72.29 16.5688514 73.0948867 16.6635993 73.9335812 17.01 74.68 17.6392147 75.4570195 18.614179 75.8695044 19.61 75.78 21.6488924 75.6791483 23.6659142 75.3127226 25.61 74.69 31.6510446 73.1485891 37.9078535 72.6314137 44.12 73.16 45.3717246 73.1969701 46.6016794 73.4967929 47.73 74.04 48.8676412 74.6075702 49.5875042 75.7686396 49.59 77.04L34.79 79.21C33.6758954 79.2722347 32.6002043 79.638869 31.68 80.27 30.7585027 80.9652352 30.5709131 82.2738961 31.26 83.2 31.5726969 83.4556207 31.9073263 83.6831687 32.26 83.88 33.0298162 84.4628044 33.4720704 85.3805061 33.4482859 86.3457586 33.4245014 87.311011 32.9375859 88.2058174 32.14 88.75 31.7676027 88.9218545 31.4289388 89.1589192 31.14 89.45 30.54 90.26 31.34 91.33 31.6 92.31 31.8296627 93.7901682 31.1214107 95.2583984 29.82 96 28.5364331 96.7040757 27.1380735 97.17471 25.69 97.39 22.7839094 98.0598005 19.9528819 99.0213447 17.24 100.26 16.356785 100.575058 15.5897563 101.15033 15.04 101.91 14.31 103.15 14.79 104.71 15.29 106.06L19.15 116.44C19.75 118.07 20.36 119.7 21.15 121.27 22.15 123.27 23.34 125.21 24.35 127.27 25.36 129.33 26.02 131.12 26.76 133.08 28.69 138.37 32.58 141.57 33.24 147.16zM204.41 77.19C203.587091 77.8019368 202.992261 78.6713044 202.72 79.66 202.590707 80.0784558 202.748761 80.5323544 203.11 80.78 203.331189 80.8504724 203.568811 80.8504724 203.79 80.78 204.897201 80.5839036 205.932476 80.0973242 206.79 79.37 206.449868 79.5506479 206.147701 79.7950976 205.9 80.09 205.65083 80.3949655 205.603851 80.8177768 205.78 81.17 206.028378 81.4710799 206.390446 81.6557347 206.78 81.68 208.206685 81.9392033 209.673619 81.8708147 211.07 81.48 210.419422 81.7223603 209.816815 82.0778308 209.29 82.53 208.759922 82.9966985 208.463398 83.6739446 208.48 84.38 208.482149 84.6453898 208.598802 84.8969227 208.8 85.07 208.945286 85.1618234 209.109307 85.219914 209.28 85.24 210.603204 85.4724331 211.956796 85.4724331 213.28 85.24 213.973121 85.2123713 214.605255 84.836101 214.96 84.24 215.097115 83.5703984 214.956356 82.8738224 214.57 82.31 213.860599 80.7835977 213.51814 79.1123984 213.57 77.43 213.613391 77.090146 213.565053 76.7448718 213.43 76.43 213.209567 76.1246358 212.89796 75.8970574 212.54 75.78 211.13 75.16 209.21 74.3 207.64 74.78 206.415282 75.3630373 205.31765 76.1820136 204.41 77.19z"/>
    </g>
    <g id="cleaningBluePostit" class="opacity" fill-rule="nonzero" transform="translate(255 206)">
      <rect width="46.13" height="44.66" x="144.79" y="79.82" fill="url(#undraw_schedule_pnbk-a)"/>
      <rect width="44.54" height="43.12" x="145.59" y="80.59" fill="#7CFCFF"/>
      <rect width="46.13" height="44.66" x="476.79" y="221.82" fill="url(#undraw_schedule_pnbk-a)"/>
      <rect width="44.54" height="43.12" x="477.59" y="222.59" fill="#7CFCFF"/>
      <rect width="46.13" height="44.66" x="557.79" y=".82" fill="url(#undraw_schedule_pnbk-a)"/>
      <rect width="44.54" height="43.12" x="558.59" y="1.59" fill="#7CFCFF"/>
      <rect width="46.13" height="44.66" x="552.79" y="142.82" fill="url(#undraw_schedule_pnbk-a)"/>
      <rect width="44.54" height="43.12" x="553.59" y="143.59" fill="#7CFCFF"/>
      <rect width="46.13" height="44.66" x="587.79" y="152.82" fill="url(#undraw_schedule_pnbk-a)"/>
      <rect width="44.54" height="43.12" x="588.59" y="153.59" fill="#7CFCFF"/>
      <rect width="46.13" height="44.66" x=".79" y="142.82" fill="url(#undraw_schedule_pnbk-a)"/>
      <rect width="44.54" height="43.12" x="1.59" y="143.59" fill="#7CFCFF"/>
    </g>
  </g>
</svg>
