<svg xmlns="http://www.w3.org/2000/svg" width="1144" height="864" viewBox="0 0 1144 864">
  <defs>
    <linearGradient id="news-a" x1="50.001%" x2="50.001%" y1="100%" y2="0%">
      <stop offset="0%" stop-color="gray" stop-opacity=".25"/>
      <stop offset="54%" stop-color="gray" stop-opacity=".12"/>
      <stop offset="100%" stop-color="gray" stop-opacity=".1"/>
    </linearGradient>
    <linearGradient id="news-b" x1="50.024%" x2="50.024%" y1="99.995%" y2="-.026%">
      <stop offset="0%" stop-color="gray" stop-opacity=".25"/>
      <stop offset="54%" stop-color="gray" stop-opacity=".12"/>
      <stop offset="100%" stop-color="gray" stop-opacity=".1"/>
    </linearGradient>
    <linearGradient id="news-c" x1="45.261%" x2="53.152%" y1="100.101%" y2="-1.051%">
      <stop offset="0%" stop-color="gray" stop-opacity=".25"/>
      <stop offset="54%" stop-color="gray" stop-opacity=".12"/>
      <stop offset="100%" stop-color="gray" stop-opacity=".1"/>
    </linearGradient>
  </defs>
  <g fill="none" fill-rule="evenodd">
    <g transform="translate(418 10)" class="opacity" id="newsLeave">
      <path fill="#13A399" fill-rule="nonzero" d="M266.74,223.87 C266.74,223.87 252.67,218.16 207.93,238.69 C163.19,259.22 157.57,256.6 146.01,253.46 C134.45,250.32 128.01,249.58 115.55,232.46 C115.55,232.46 106.79,184.98 98.32,177.62 C89.85,170.26 53.82,181.81 53.82,181.81 C53.82,181.81 10.63,191.72 2.4,134 C2.4,134 8.24,90.49 0.29,77.14 C0.29,77.14 16.29,84.07 42.83,72.89 C69.37,61.71 90.52,84.89 90.52,84.89 C90.52,84.89 97.2,102.19 96.52,112.5 C95.84,122.81 100.05,126.68 112.69,121.7 C112.69,121.7 118.89,112.87 110.1,98.28 C101.31,83.69 95.04,72.81 97.5,61.48 C99.96,50.15 107,34.48 129.66,26.58 C152.32,18.68 183.1,17.2 197.88,11.05 C212.66,4.9 216.23,0.9 216.23,0.9 C216.23,0.9 207.12,10.04 228.57,48.65 C250.02,87.26 236.34,104.03 236.34,104.03 C236.34,104.03 224.94,131.19 174.64,129.03 C174.64,129.03 126.17,130.8 152.64,151.36 C152.64,151.36 169.57,147.91 194.87,139.87 C220.17,131.83 238.44,165.02 242.97,188.12 C247.5,211.22 266.74,223.87 266.74,223.87 Z"/>
      <path fill="#444053" fill-rule="nonzero" d="M201.57,30.21 L201.84,30.14 C203.78,37.51 182.11,67.14 163.6,90.67 L163.38,90.5 C189.51,57.29 203.08,35.88 201.57,30.21 Z"/>
      <path fill="#444053" fill-rule="nonzero" d="M163.77,90.01 L163.88,90.31 C149.09,109.12 130.49,131.56 115.6,148.18 C114.18,149.77 112.77,151.43 111.41,153.13 L110.99,152.78 C112.35,151.08 113.77,149.41 115.19,147.78 C130.07,131.21 148.99,108.81 163.77,90.01 Z"/>
      <path fill="#444053" fill-rule="nonzero" d="M111.35,152.34 L111.64,152.84 C84.54,186.67 82.75,239.2 82.64,239.66 L76.92,233.06 C77.04,232.6 84.06,186.4 111.35,152.34 Z"/>
      <path stroke="#444053" d="M235.31 205.52C235.31 205.52 203.31 188.91 178.46 194.87 153.61 200.83 97.46 173.81 97.46 173.81 97.46 173.81 73.65 164.13 68.87 153.11 68.87 153.11 52.54 135.85 51.61 126.91 50.68 117.97 34.78 95.51 24.41 94.64M230.69 221.51C230.69 221.51 214.57 210.67 216.47 198.04M206 235.52C206 235.52 183 227.16 180.68 194.41M168.87 244C168.87 244 146.87 225.75 154.18 193.87M124.25 235.08C124.25 235.08 109.6 204.37 122.63 184.39M235.69 185.28C235.69 185.28 219.04 190.56 222.61 199.28M215.57 155.07C215.57 155.07 193.3 162.14 192.77 193.64M184.57 147.8C184.57 147.8 164.31 172.8 165.8 195.55M149.05 157.61C149.05 157.61 128.92 176.85 131.49 187.56M136.91 150.81C136.91 150.81 118.03 154.2 115.39 148M112.38 128.02C112.38 128.02 121.92 140.65 124.38 137.82M206.93 120.03C206.93 120.03 159.35 123.46 148.57 109.14M102.37 64.37C102.37 64.37 124.7 112.3 140.91 118.37M125.79 41.54C125.79 41.54 139.51 85.63 156.5 99.39"/>
      <path stroke="#444053" stroke-width=".75" d="M226.96 83.65C226.96 83.65 190.77 99.18 169.04 83.47M158.03 32.14C158.03 32.14 166.3 64.55 177.44 72.38M221.49 47.35C221.49 47.35 201.16 55.05 193.56 49.15"/>
      <path stroke="#444053" d="M94.96 138.61C94.96 138.61 94.96 166.86 87.27 168.87M32.09 175.21C32.09 175.21 62.63 177.83 76.72 162.07M87.08 105.24C87.08 105.24 79.69 133.89 59.3 141.61M13.77 145.03C13.77 145.03 35.39 152.55 53.98 133.41M63.04 80.61C63.04 80.61 61.04 104.94 47.77 116.33M14.57 107.95C14.57 107.95 32.51 108.08 36.71 102.23"/>
    </g>
    <g fill-rule="nonzero" id="newsBrowser" class="opacity" transform="translate(7)">
      <path fill="#13A399" d="M584.97,138.46 C513.57,150.37 442.06,143.96 373.22,135.08 C304.38,126.2 235.7,114.86 164.15,117.08 C118.15,118.52 66.98,127.56 35.15,155.3 C4.53,181.99 0.15,218.48 0.44,251.48 C0.66,276.3 2.99,302.01 19.8,321.97 C31.47,335.82 49.31,345.88 62.8,358.69 C109.8,403.27 96.47,472.33 66.71,530.81 C52.71,558.25 35.6,585.18 26.21,613.31 C16.82,641.44 15.89,671.74 33.57,695.03 C51.11,718.12 84.66,731.42 119.57,738.55 C190.46,753.02 269.14,745.55 345.24,735.16 C513.68,712.05 680.24,674.67 846.32,637.36 C907.79,623.56 969.53,609.68 1028.67,589.36 C1061.51,578.1 1094.92,563.93 1115.95,541.52 C1142.64,513.07 1142.88,473.8 1116.51,449.98 C1072.27,409.98 973.3,417.5 938.91,371.98 C919.97,346.98 927.68,313.36 942.15,283.81 C973.15,220.41 1033.9,158.16 1025.15,94.45 C1019.15,50.69 976.77,14.05 920.47,3.92 C861.47,-6.69 786.06,11.03 752.69,54.54 C718.33,99.46 648.01,127.96 584.97,138.46 Z" opacity=".1"/>
      <rect width="950.33" height="538.33" x="69.29" y="151.11" fill="url(#news-a)" rx="12.49"/>
      <rect width="947.42" height="528.97" x="70.8" y="158.68" fill="#FFF" rx="12.49"/>
      <rect width="947.42" height="528.97" x="70.8" y="158.68" fill="#FFF" rx="12.49"/>
      <rect width="947.42" height="528.97" x="70.8" y="158.68" fill="#5A5773" opacity=".04" rx="12.49"/>
      <path fill="#5A5773" d="M1013.41,152.61 L75.57,152.61 C72.9135104,152.61 70.76,154.76351 70.76,157.42 L70.76,177.76 L1018.18017,177.76 L1018.18,157.46 C1018.19065,156.184296 1017.69408,154.956613 1016.79952,154.047052 C1015.90496,153.137491 1014.68571,152.620565 1013.41,152.61 Z"/>
      <g fill="#FFF" transform="translate(83 158)">
        <circle cx="6.72" cy="7.18" r="6.5"/>
        <circle cx="24.22" cy="7.18" r="6.5"/>
        <circle cx="41.72" cy="7.18" r="6.5"/>
      </g>
      <rect width="790" height="392.78" x="134.22" y="294.86" fill="#FFF" rx="10.19"/>
      <rect width="227.24" height="23.85" x="100.72" y="204.45" fill="#5A5773" opacity=".2" rx="3.86"/>
      <rect width="227.24" height="23.85" x="529.22" y="340.45" fill="#13A399" opacity=".2" rx="3.86"/>
      <rect width="354.83" height="23.85" x="529.22" y="407.23" fill="#13A399" opacity=".2" rx="3.86"/>
      <rect width="354.83" height="23.85" x="529.22" y="446.23" fill="#13A399" opacity=".2" rx="3.86"/>
      <rect width="354.83" height="23.85" x="529.22" y="485.23" fill="#13A399" opacity=".2" rx="3.86"/>
      <rect width="354.83" height="23.85" x="529.22" y="524.23" fill="#13A399" opacity=".2" rx="3.86"/>
      <rect width="707" height="23.85" x="177.05" y="567.23" fill="#13A399" opacity=".2" rx="3.86"/>
      <rect width="707" height="23.85" x="177.05" y="606.23" fill="#13A399" opacity=".2" rx="3.86"/>
      <rect width="707" height="23.85" x="177.05" y="645.23" fill="#13A399" opacity=".2" rx="3.86"/>
      <rect width="302" height="221.54" x="177.05" y="327.22" fill="#13A399" opacity=".2" rx="8.5"/>
    </g>
    <g fill-rule="nonzero" id="newsPlant" class="opacity" transform="translate(651 661)">
      <path fill="#13A399" d="M78.3,0 C78.3,0 84.23,7.75 75.56,19.46 C66.89,31.17 59.75,41.05 62.64,48.35 C62.64,48.35 75.71,26.61 86.36,26.35 C97.01,26.09 90.01,13.07 78.3,0 Z"/>
      <path fill="#000" d="M78.3,0 C78.8163972,0.748598007 79.2238026,1.56677577 79.51,2.43 C89.9,14.63 95.43,26.02 85.45,26.3 C76.15,26.57 64.99,43.2 62.32,47.39 C62.4038494,47.730209 62.5107633,48.0643149 62.64,48.39 C62.64,48.39 75.71,26.65 86.36,26.39 C97.01,26.13 90.01,13.07 78.3,0 Z" opacity=".1"/>
      <path fill="#FFD037" d="M89.32,9.88 C89.32,12.61 89.02,14.82 88.64,14.82 C88.26,14.82 87.96,12.61 87.96,9.88 C87.96,7.15 88.34,8.44 88.72,8.44 C89.1,8.44 89.32,7.15 89.32,9.88 Z"/>
      <path fill="#FFD037" d="M93.11,13.14 C90.71,14.44 88.62,15.23 88.44,14.9 C88.26,14.57 90.06,13.24 92.44,11.9 C94.82,10.56 93.89,11.54 94.07,11.9 C94.25,12.26 95.5,11.83 93.11,13.14 Z"/>
      <path fill="#13A399" d="M46.98,0 C46.98,0 41.05,7.75 49.71,19.46 C58.37,31.17 65.53,41.05 62.64,48.35 C62.64,48.35 49.56,26.61 38.92,26.35 C28.28,26.09 35.27,13.07 46.98,0 Z"/>
      <path fill="#000" d="M46.98,0 C46.4575902,0.746518891 46.0466158,1.56509895 45.76,2.43 C35.38,14.63 29.85,26.02 39.83,26.3 C49.13,26.57 60.28,43.2 62.95,47.39 C62.8695336,47.7299967 62.7659597,48.0641062 62.64,48.39 C62.64,48.39 49.56,26.65 38.92,26.39 C28.28,26.13 35.27,13.07 46.98,0 Z" opacity=".1"/>
      <path fill="#FFD037" d="M35.95,9.88 C35.95,12.61 36.26,14.82 36.64,14.82 C37.02,14.82 37.32,12.61 37.32,9.88 C37.32,7.15 36.94,8.46 36.57,8.46 C36.2,8.46 35.95,7.15 35.95,9.88 Z"/>
      <path fill="#FFD037" d="M32.17,13.14 C34.57,14.44 36.66,15.23 36.84,14.9 C37.02,14.57 35.22,13.24 32.84,11.9 C30.46,10.56 31.39,11.54 31.21,11.9 C31.03,12.26 29.77,11.83 32.17,13.14 Z"/>
      <ellipse cx="62.64" cy="98.15" fill="#13A399" opacity=".1" rx="62" ry="9.51"/>
      <path fill="#65617D" d="M94.57,37.9 L94.27,40.32 L93.86,43.74 L93.68,45.17 L93.27,48.59 L93.09,50.02 L92.67,53.43 L87.93,92.33 C87.5,95.8 81.83,98.51 74.93,98.51 L50.31,98.51 C43.46,98.51 37.8,95.8 37.38,92.33 L32.62,53.46 L32.21,50.05 L32.03,48.62 L31.61,45.2 L31.44,43.77 L31.02,40.35 L30.72,37.93 C30.49,35.93 33.56,34.31 37.43,34.31 L87.85,34.31 C91.72,34.28 94.79,35.93 94.57,37.9 Z"/>
      <polygon fill="#9D9CB5" points="94.25 40.32 93.84 43.74 31.44 43.74 31.02 40.32"/>
      <polygon fill="#9D9CB5" points="93.66 45.16 93.25 48.58 32.03 48.58 31.61 45.16"/>
      <polygon fill="#9D9CB5" points="93.07 50.01 92.65 53.43 32.62 53.43 32.21 50.01"/>
    </g>
    <g fill-rule="nonzero" id="newsLeftPerson" class="opacity" transform="translate(849 451)">
      <ellipse cx="174.75" cy="384.07" fill="#13A399" opacity=".1" rx="100.11" ry="24.73"/>
      <path fill="#65617D" d="M101.22,130.27 C101.22,130.27 104.65,112.27 115.66,112.27 L123.72,128.84 L118.35,132.54 C118.35,132.54 106.68,132.86 101.22,130.27 Z"/>
      <path fill="#000" d="M123.72,128.79 L118.35,132.49 C118.35,132.49 110.14,132.75 104.27,131.31 C103.222806,131.0782 102.201151,130.743231 101.22,130.31 L101.28,130.02 L101.28,129.96 C101.781374,127.704045 102.477311,125.495783 103.36,123.36 C103.7,122.55 104.08,121.72 104.5,120.89 C106.11,117.79 108.38,114.74 111.5,113.24 C112.643308,112.662401 113.891715,112.322235 115.17,112.24 L115.66,112.24 L115.84,112.61 L118.56,118.21 L123.72,128.79 Z" opacity=".1"/>
      <path fill="#65617D" d="M215.18,203.4 C215.18,203.4 226.75,202.29 227.77,203.13 C228.79,203.97 235.36,208.22 239.24,205.53 C243.12,202.84 240.54,193.53 240.54,193.13 C240.54,192.73 240.17,179.52 240.17,179.52 L233.23,170.17 L224.53,153.79 L206.75,152.03 L207.21,178.03 L207.12,191.36 L215.18,203.4 Z"/>
      <path fill="#000" d="M215.18,203.4 C215.18,203.4 226.75,202.29 227.77,203.13 C228.79,203.97 235.36,208.22 239.24,205.53 C243.12,202.84 240.54,193.53 240.54,193.13 C240.54,192.73 240.17,179.52 240.17,179.52 L233.23,170.17 L224.53,153.79 L206.75,152.03 L207.21,178.03 L207.12,191.36 L215.18,203.4 Z" opacity=".1"/>
      <path fill="#FBBEBE" d="M113.35,111.76 C113.35,111.76 112.42,123.05 105.35,123.24 C105.35,123.24 103.35,122.04 100.67,120.03 C94.49,115.4 84.67,106.51 87.39,98.24 C91.28,86.39 110.16,108.24 110.16,108.24 L111.62,109.87 L113.35,111.76 Z"/>
      <path fill="#000" d="M113.35,111.76 C113.35,111.76 112.42,123.05 105.35,123.24 C105.35,123.24 103.35,122.04 100.67,120.03 L100.07,119.26 C101.268206,119.871204 102.585747,120.212536 103.93,120.26 C106.093438,120.344896 108.083909,119.082938 108.93,117.09 C109.68808,115.635748 110.356008,114.136251 110.93,112.6 C111.26059,111.70332 111.498498,110.775146 111.64,109.83 L113.35,111.76 Z" opacity=".1"/>
      <path fill="#E7EFFD" d="M110.29,132.22 L108.71,130.22 L103.38,123.36 L100.67,119.85 C101.86424,120.462241 103.178768,120.803676 104.52,120.85 C106.685791,120.943675 108.680845,119.678811 109.52,117.68 C110.262572,116.22869 110.913838,114.732448 111.47,113.2 C112.35,110.7 112.33,109.42 112.02,108.98 C111.71,108.54 114.02,110.66 115.08,111.7 L115.59,112.18 L115.78,112.56 L118.57,117.96 C118.57609,118.036546 118.57609,118.113454 118.57,118.19 C118.77,119.89 119.67,130.68 110.29,132.22 Z"/>
      <path fill="#65617D" d="M165.75 370.46C165.75 370.46 157.97 375.56 154.08 374.81 151.386108 374.471018 148.651772 374.922688 146.21 376.11 143.535426 379.038186 140.159399 381.237249 136.4 382.5 130.1 384.63 121.31 383.79 116.31 382.13 113.95 381.34 113.76 380.32 114.9 379.07 116.04 377.82 119.06 375.98 122.42 373.98 128.81 370.18 135.66 362.69 135.66 362.69 135.703276 361.673338 136.132399 360.711387 136.86 360 137.548092 359.396972 138.174508 358.727009 138.73 358 139.73 356.83 140.66 355.6 140.66 355.6L163.57 356.46C163.57 356.46 163.96 358.11 164.27 359.8 164.530592 360.889787 164.638291 362.010531 164.59 363.13 164.475857 363.956897 164.711395 364.793963 165.24 365.44L165.65 369.22 165.75 370.46zM213.57 376.88C213.3 377.99 212.96 379.97 212.81 380.88 212.81 381.19 212.74 381.39 212.74 381.39 212.74 381.39 210.89 385.46 200.61 386.94 190.33 388.42 190.34 383.52 190.34 383.52L190.44 382.19C190.62 380.03 190.99 375.88 191.26 375 191.63 373.8 190.99 368.52 190.99 368.52L190.88 363 190.8 359.17 207.8 357.41C207.909361 358.682967 208.093007 359.948457 208.35 361.2 208.448917 361.913953 208.705078 362.597049 209.1 363.2 210.02 364.2 210.58 368.75 210.58 368.75 210.58 368.75 213.97 375.4 213.57 376.88z"/>
      <path fill="#000" d="M163.57 356.46C163.57 356.46 163.96 358.11 164.27 359.8 161.8 360.25 151 362.12 148.27 360.8 145.21 359.32 138.64 358.49 138.64 358.49L138.75 358.11C139.75 356.94 140.68 355.71 140.68 355.71L163.57 356.46zM208.41 361.23C204.1 360.5 194.63 362.23 190.91 363.03L190.83 359.2 207.83 357.44C207.949267 358.713562 208.142931 359.979057 208.41 361.23z" opacity=".1"/>
      <path fill="#3F3D56" d="M218.04,220.9 L217.68,233.9 C217.68,233.9 218.14,253.8 216.75,256.9 C215.36,260 215.36,272.73 215.36,272.73 C215.36,272.73 216.29,278.73 215.27,280.04 C214.25,281.35 214.99,286.15 215.73,288.65 C216.47,291.15 215.82,297.35 215.82,297.35 L215.64,332.35 C215.64,332.35 214.64,341.42 213.32,342.72 C212.547561,343.511817 212.264392,344.659798 212.58,345.72 C212.58,345.72 211.47,350.9 211.75,351.83 C212.03,352.76 212.58,354.88 210.46,355.9 C208.34,356.92 208.88,360.16 208.88,360.16 C203.79,358.95 189.35,362.16 189.35,362.16 C187.791233,358.942041 186.42874,355.632652 185.27,352.25 C184.765753,350.862193 184.883952,349.324407 185.594365,348.029962 C186.304778,346.735517 187.538506,345.809953 188.98,345.49 C190.92,345.22 187.59,341.79 187.59,341.79 C187.59,341.79 187.96,341.33 187.03,337.99 C186.1,334.65 187.22,326.14 187.5,323.92 C187.78,321.7 189.16,310.92 189.16,310.92 C189.16,310.92 188.42,297.31 188.98,296.76 C189.54,296.21 191.38,290.83 190.46,289.08 C189.54,287.33 188.05,275.75 188.05,275.08 C188.05,274.41 186.85,259.43 186.85,259.43 C186.85,259.43 185.74,248.97 186.02,246.75 C186.3,244.53 185.27,236.29 185.27,236.29 C185.27,229.44 181.27,222.03 181.27,222.03 L181.17,222.3 L172.57,245.06 C172.57,245.06 171.18,251.91 169.98,255.8 C169.222032,258.429308 168.617677,261.100488 168.17,263.8 L168.09,264.3 L168.01,264.82 L167.95,265.19 C167.95,265.19 168.59,270.09 167.57,271.67 C166.433999,274.059965 165.716908,276.627284 165.45,279.26 C165.45,280.56 165.54,285.56 165.54,285.56 C165.54,285.56 165.91,295.46 164.89,296.56 C164.315112,297.053924 164.128669,297.864546 164.43,298.56 C164.43,298.56 166.09,306.06 165.35,308 C164.61,309.94 165.17,314.48 165.17,314.48 C165.17,314.48 163.69,328.83 163.5,329.57 C163.31,330.31 162.3,336.05 163.41,336.51 C164.52,336.97 166.65,339.75 166.65,339.75 C166.65,339.75 167.11,351.88 165.45,352.8 C163.79,353.72 164.7,358.45 164.7,358.45 C164.7,358.45 151.28,361.04 148.23,359.56 C145.18,358.08 138.6,357.25 138.6,357.25 L139.52,354.25 C139.46,354.36 138.85,355.35 138.42,351.56 C137.95,347.56 141.84,349.56 141.84,349.56 C141.84,349.56 144.9,350.3 139.99,345.49 C135.08,340.68 137.49,335.77 137.77,335.77 C138.05,335.77 138.69,328.64 138.69,328.64 C139.163077,326.136891 139.227243,323.573644 138.88,321.05 C138.23,317.72 137.68,307.35 137.68,307.35 C137.68,307.35 138.14,299.48 137.3,296.61 C136.46,293.74 137.86,288.61 138.14,287.35 C138.42,286.09 137.3,275.13 137.3,275.13 C137.822114,272.159788 137.949884,269.133652 137.68,266.13 C137.12,262.33 138.23,248.35 138.23,248.35 L139.9,232.25 C139.9,232.25 141.1,227.25 140.9,225.25 C140.7,223.25 142.29,216.09 142.29,216.09 C142.200084,214.569955 142.452984,213.049139 143.03,211.64 C143.96,209.79 144.33,203.64 144.33,203.64 L153.22,183.28 L157.57,165.28 L216.35,164.72 C216.35,164.72 216.56,166.28 216.92,169.11 C217.28,171.94 217.78,176.11 218.34,181.3 C218.85,186 219.41,191.53 219.96,197.68 C221.75,217.38 218.04,220.9 218.04,220.9 Z"/>
      <path fill="#FBBEBE" d="M212.57,58.81 L198.88,73.46 C198.88,73.46 181.3,66.46 183.15,64.01 C183.86,63.08 183.75,60.14 183.34,56.9 C182.69,51.77 181.34,45.9 181.34,45.9 C181.34,45.9 212.07,40.9 209.47,46.08 C208.642805,48.0347636 208.57505,50.2279019 209.28,52.23 C210.021147,54.5837795 211.131665,56.8048145 212.57,58.81 Z"/>
      <path fill="#000" d="M209.43,46.03 C208.49,47.93 208.04,48.11 208.63,50.15 C204.63,54.46 199.5,59.15 193.14,59.15 C189.739143,59.1539426 186.384015,58.3665146 183.34,56.85 C182.69,51.72 181.34,45.85 181.34,45.85 C181.34,45.85 212.03,40.85 209.43,46.03 Z" opacity=".1"/>
      <path fill="#FBBEBE" d="M215.18,36.59 C215.18,48.7595945 205.314594,58.625 193.145,58.625 C180.975406,58.625 171.11,48.7595945 171.11,36.59 C171.11,36.48 171.11,36.38 171.11,36.27 C171.198366,24.103167 181.133167,14.3116344 193.3,14.4 C205.466833,14.4883656 215.258366,24.423167 215.17,36.59 L215.18,36.59 Z"/>
      <path fill="#000" d="M218.37,181.94 C215.45,181.94 205.73,182.04 194.87,182.22 L194.74,182.22 L191.15,182.28 L191.04,182.28 C178.16,182.48 165.47,179.97 160.37,180.44 C149.54,181.44 164.26,170.44 164.26,170.44 C172.330849,172.393803 180.631507,173.231608 188.93,172.93 L192.05,172.77 C201.89,172.21 211.78,171.29 216.95,169.77 C217.31,172.61 217.81,176.77 218.37,181.94 Z" opacity=".1"/>
      <path fill="#5F5D7E" d="M218.37,181.38 C215.45,181.38 205.73,181.49 194.87,181.66 L194.74,181.66 L191.15,181.72 L191.04,181.72 C178.16,181.93 165.47,179.41 160.37,179.89 C149.54,180.89 164.26,169.89 164.26,169.89 C172.329866,171.849558 180.63132,172.687443 188.93,172.38 L192.05,172.22 C201.89,171.67 211.78,170.74 216.95,169.22 C217.31,172.05 217.81,176.21 218.37,181.38 Z"/>
      <path fill="#000" d="M187.22,64.92 L170.22,72.92 L157.07,174.56 C157.07,174.56 164.85,171.04 169.29,173.26 C173.73,175.48 187.43,173.45 187.43,173.45 C187.43,173.45 197.43,172.89 198.91,174.01 C200.39,175.13 217.8,169.38 217.8,169.38 C217.8,169.38 220.95,162.38 218.54,161.23 C216.13,160.08 219.28,149.23 219.28,149.23 L217.8,75.91 L214.8,66.47 L206.8,61.65 L198.66,68.13 L194.77,68.69 L187.22,64.92 Z" opacity=".1"/>
      <path fill="#E7EFFD" d="M187.22,63.81 L170.22,71.81 L157.04,173.46 C157.04,173.46 164.82,169.94 169.26,172.16 C173.7,174.38 187.4,172.35 187.4,172.35 C187.4,172.35 197.4,171.79 198.88,172.9 C200.36,174.01 217.77,168.28 217.77,168.28 C217.77,168.28 220.92,161.28 218.51,160.13 C216.1,158.98 219.25,148.13 219.25,148.13 L217.77,74.81 L214.77,65.37 L206.77,60.55 L198.63,67.03 L194.74,67.59 L187.22,63.81 Z"/>
      <path fill="#000" d="M186.94,68.53 C186.94,68.53 191.85,74.36 191.76,75.53 C191.67,76.7 191.48,79.61 191.48,79.61 L187.78,87.1 C187.78,87.1 185.78,96.45 185.78,98.4 C185.78,100.35 182.54,117.19 182.54,117.19 L178.57,143.14 L173.66,177.14 L178.66,185.75 L184.59,180.75 L192.46,120.21 L194.12,108.27 C194.12,108.27 195.88,86.79 195.88,84.57 C195.691259,81.8706762 195.357443,79.1834601 194.88,76.52 C194.88,76.52 196.09,70.96 201.09,69.67 C206.09,68.38 200.71,69.39 200.71,69.39 L197.85,67.08 L195.35,68.08 C195.35,68.08 188.42,65.94 186.94,68.53 Z" opacity=".1"/>
      <path fill="#13A399" d="M186.39,67.97 C186.39,67.97 191.29,73.8 191.2,74.97 C191.11,76.14 190.92,79.04 190.92,79.04 L187.22,86.54 C187.22,86.54 185.22,95.89 185.22,97.83 C185.22,99.77 181.98,116.62 181.98,116.62 L178.1,142.54 L173.19,176.54 L178.19,185.15 L184.11,180.15 L191.98,119.61 L193.65,107.67 C193.65,107.67 195.41,86.19 195.41,83.97 C195.221079,81.2673801 194.887265,78.5768452 194.41,75.91 C194.41,75.91 195.61,70.36 200.61,69.06 C205.61,67.76 200.24,68.79 200.24,68.79 L197.37,66.47 L194.87,67.47 C194.87,67.47 187.87,65.38 186.39,67.97 Z"/>
      <path fill="#000" d="M183.15,58.25 C183.15,58.25 182.41,58.81 182.22,62.51 C182.03,66.21 179.44,74.51 179.44,74.51 C179.44,74.51 189.07,67.85 193.88,68.59 L183.15,58.25 Z" opacity=".1"/>
      <path fill="#E7EFFD" d="M183.15,57.14 C183.15,57.14 182.41,57.7 182.22,61.4 C182.03,65.1 179.44,73.4 179.44,73.4 C179.44,73.4 189.07,66.74 193.88,67.48 L183.15,57.14 Z"/>
      <path fill="#000" d="M209.44,55.29 L194.26,68.62 C194.26,68.62 207.03,76.21 208.7,78.06 C210.37,79.91 212.03,59.92 212.03,59.92 L209.44,55.29 Z" opacity=".1"/>
      <path fill="#E7EFFD" d="M209.99,54.18 L194.81,67.51 C194.81,67.51 207.59,75.1 209.25,76.95 C210.91,78.8 212.58,58.81 212.58,58.81 L209.99,54.18 Z"/>
      <path fill="#000" d="M183.7,58.25 C183.7,58.25 182.04,57.42 180.46,59.83 C179.306579,61.399267 177.737576,62.6149849 175.93,63.34 C175.93,63.34 159.08,66.03 158.43,68.25 L150.56,68.71 C150.56,68.71 147.78,69.08 147.56,74.92 C147.34,80.76 145.8,81.3 145.8,81.3 C145.8,81.3 142.56,87.04 142.8,90 C142.872997,91.8362069 141.906176,93.557149 140.3,94.45 L151.87,124.53 C151.87,124.53 152.24,136.94 150.11,141.47 C147.98,146 144,166.1 144,166.1 C144,166.1 145.67,165.73 145.57,166.84 C145.47,167.95 143.57,180.08 143.57,180.08 C143.57,180.08 143.01,184.89 142.09,186.56 C141.17,188.23 141.09,196.92 141.09,196.92 L139.61,203.22 C139.61,203.22 143.12,211.09 148.49,209.98 C153.86,208.87 163.57,187.85 163.57,187.85 L169.77,165.17 L174.59,142.77 L175.98,127.59 L178.2,93.98 L181.44,71.77 C181.44,71.77 185,59.83 183.7,58.25 Z" opacity=".1"/>
      <path fill="#65617D" d="M183.15,57.14 C183.15,57.14 181.48,56.31 179.91,58.72 C178.751571,60.2884972 177.179636,61.5038038 175.37,62.23 C175.37,62.23 158.52,64.92 157.87,67.14 L150.01,67.6 C150.01,67.6 147.23,67.97 146.95,73.8 C146.67,79.63 145.19,80.19 145.19,80.19 C145.19,80.19 141.95,85.93 142.19,88.89 C142.267716,90.7273387 141.299597,92.4505899 139.69,93.34 L151.3,123.46 C151.3,123.46 151.67,135.87 149.54,140.4 C147.41,144.93 143.43,165.03 143.43,165.03 C143.43,165.03 145.1,164.66 145.01,165.77 C144.92,166.88 143.01,179 143.01,179 C143.01,179 142.46,183.82 141.53,185.48 C140.6,187.14 140.53,195.85 140.53,195.85 L139.05,202.15 C139.05,202.15 142.57,210.02 147.94,208.9 C153.31,207.78 163.03,186.78 163.03,186.78 L169.23,164.1 L174.04,141.7 L175.37,126.46 L177.59,92.85 L180.83,70.64 C180.83,70.64 184.44,58.72 183.15,57.14 Z"/>
      <path fill="#000" d="M123.72,128.79 L118.35,132.49 C118.35,132.49 110.14,132.75 104.27,131.31 L101.27,129.98 L100.67,129.72 L101.29,129.92 C103.673962,130.769391 106.262367,130.860212 108.7,130.18 C116.3,127.62 115.46,115.08 115.16,112.24 C115.16,111.95 115.11,111.77 115.1,111.7 L115.1,111.77 C115.206716,111.940217 115.323595,112.103847 115.45,112.26 L115.79,112.62 L118.57,117.96 C118.57609,118.036546 118.57609,118.113454 118.57,118.19 L123.72,128.79 Z" opacity=".1"/>
      <path fill="#65617D" d="M142.32,92.6 L139.73,93.34 L139.36,98.61 C139.36,98.61 136.36,98.15 135.47,101.76 C135.114447,103.673659 134.324132,105.480094 133.16,107.04 C133.16,107.04 128.07,111.3 127.79,114.91 L124.64,116.85 C124.64,116.85 117.33,115.18 115.64,112.22 C115.64,112.22 118.98,136.1 101.2,130.22 C101.2,130.22 121.1,138.92 122.03,140.13 C122.96,141.34 129.03,144.85 134.62,141.89 C140.21,138.93 141.38,134.39 141.38,134.39 C141.38,134.39 146.75,126.89 146.93,125.78 C147.11,124.67 151.28,123.37 151.28,123.37 L159.28,104.12 L142.32,92.6 Z"/>
      <path fill="#000" d="M207.31,66.4 L209.99,54.18 C209.99,54.18 211.2,58.18 212.4,59.09 L216.4,62.09 C216.4,62.09 220.4,63.94 221.77,63.94 C223.14,63.94 230.66,65.94 231.58,66.94 C232.5,67.94 236.21,67.22 236.21,67.22 C236.21,67.22 239.26,68.22 241.95,68.89 C244.64,69.56 245.95,73.98 245.37,75.74 C244.916592,77.5193221 245.40735,79.4068531 246.67,80.74 C247.78,81.85 248.34,85.46 248.34,85.46 C249.699215,85.9041488 250.827841,86.8674348 251.48,88.14 C252.41,90.14 252.13,94.62 252.13,94.62 L238.34,114.06 C238.34,114.06 238.52,121.56 237.97,123.23 C237.42,124.9 239.91,153.23 239.91,153.23 L242.78,201.92 C241.307966,203.212086 239.762022,204.417455 238.15,205.53 C237.32,205.9 236.49,188.31 236.49,187.67 C236.49,187.03 215.1,155.67 215.1,155.67 C215.1,155.67 212.23,151.04 212.23,150.02 C212.23,149 209.55,139.65 209.55,139.65 L205.48,121.65 L207.31,66.4 Z" opacity=".1"/>
      <path fill="#65617D" d="M253.26,93.57 C253.26,94.21 253.26,94.63 253.26,94.63 L239.48,114.05 C239.48,114.05 239.67,121.55 239.11,123.22 C238.79,124.22 239.49,134.15 240.11,142.33 C240.58,148.23 241.01,153.21 241.01,153.21 L242.23,173.86 L243.88,201.86 C242.407966,203.152086 240.862022,204.357455 239.25,205.47 C238.42,205.84 237.59,188.25 237.59,187.6 C237.59,186.95 216.2,155.6 216.2,155.6 C216.2,155.6 213.33,150.97 213.33,149.95 C213.33,148.93 210.65,139.58 210.65,139.58 L206.58,121.58 L208.43,66.41 L210,54.19 C210,54.19 212.32,58.19 213.52,59.09 L217.52,62.15 C217.52,62.15 221.52,64 222.89,64 C224.26,64 231.78,66 232.7,67 C233.62,68 237.33,67.28 237.33,67.28 C237.33,67.28 240.39,68.28 243.07,68.95 C245.75,69.62 247.07,74.04 246.49,75.8 C246.038541,77.5793169 246.529055,79.4659081 247.79,80.8 C248.9,81.91 249.46,85.52 249.46,85.52 C250.819215,85.9641488 251.947841,86.9274348 252.6,88.2 C253.143671,89.9351991 253.367308,91.7547923 253.26,93.57 Z"/>
      <path fill="#000" d="M140.1 340.22C140.56 340.22 160 340.96 159.63 344.11 159.26 347.26 140.1 340.22 140.1 340.22zM144.45 345.46C144.45 345.46 157.5 347.59 154.08 349.53 150.66 351.47 144.45 345.46 144.45 345.46zM192.96 338.19C192.96 338.19 214.62 340.04 211.38 342.44 208.14 344.84 200.46 345.22 200.09 345.31 199.72 345.4 192.96 338.19 192.96 338.19zM190.37 347.72C190.37 347.72 202.37 349.72 202.77 352.07 203.17 354.42 190.37 347.72 190.37 347.72zM197.03 291.99C197.03 291.99 208.03 294.58 208.7 296.34L197.03 291.99zM154.57 299.95C154.57 299.95 148.83 301.62 154.39 304.95 159.95 308.28 154.57 299.95 154.57 299.95zM180 210.99C180.65 210.99 190.74 207.66 194.26 209.14 196.775917 210.079794 199.434579 210.580407 202.12 210.62L180 210.99zM181.3 221.54L181.2 222.46 172.57 245.06C172.57 245.06 171.18 251.91 169.98 255.8 169.222032 258.429308 168.617677 261.100488 168.17 263.8L175.81 216.43 181.3 221.54z" opacity=".1"/>
      <polygon fill="#3F3D56" points="194.74 181.66 191.15 181.72 191.04 181.72 188.93 172.39 192.05 172.22"/>
      <path fill="#FBBEBE" d="M238.41,170.36 L236.11,172.26 L228.41,178.59 C228.41,178.59 207.59,189.7 201.85,179.15 C196.79,169.85 220.4,163.21 226.09,161.76 L227.3,161.47 L238.41,170.36 Z"/>
      <path fill="#000" d="M149.45 79.36C149.45 79.36 153.52 81.21 154.45 83.8 155.38 86.39 149.45 79.36 149.45 79.36zM136.86 107.13C136.86 107.13 130.94 114.35 133.34 117.13 135.74 119.91 136.86 107.13 136.86 107.13zM242.76 83.46C242.76 83.46 237.21 84.02 237.02 88.83L242.76 83.46zM191.29 159.34C191.85 158.78 204.62 139.9 207.59 141.57L191.29 159.34zM215.18 36.59C215.181048 40.2188689 214.284418 43.7916469 212.57 46.99L212.41 46.99C211.01 46.69 210.28 45.07 209.22 44.05 207.875881 42.7686126 205.864334 42.4869959 204.22 43.35 202.565276 44.33843 201.612472 46.1781932 201.76 48.1 201.06 45.1 201.28 41.98 200.59 39.01 199.9 36.04 197.83 33.01 194.99 33.01 193.77 33.01 192.34 33.46 191.46 32.54 190.93 31.99 190.82 31.12 190.46 30.45 188.46 27.16 182.26 28.82 179.74 30.51 177.22 32.2 174.29 34.88 171.16 36.32 171.248366 24.153167 181.183167 14.3616344 193.35 14.45 205.516833 14.5383656 215.308366 24.473167 215.22 36.64L215.18 36.59z" opacity=".1"/>
      <path fill="#7C5C5C" d="M190.42,29.84 C190.82,30.51 190.93,31.38 191.42,31.94 C192.3,32.85 193.73,32.38 194.95,32.4 C197.79,32.45 199.87,35.46 200.55,38.4 C201.23,41.34 201.02,44.52 201.73,47.48 C201.564921,45.5598709 202.518082,43.7157951 204.18,42.74 C205.823361,41.8807054 207.830795,42.1577312 209.18,43.43 C210.24,44.43 210.97,46.08 212.37,46.37 C213.77,46.66 215.11,45.32 215.61,43.85 C215.969689,42.3309338 216.236847,40.7914367 216.41,39.24 C217.04,36.36 218.93,33.99 219.97,31.24 C221.210804,27.8992315 221.178768,24.2186639 219.88,20.9 C219.18,19.16 218.15,17.6 217.45,15.9 C216.38,13.27 216.1,10.29 214.8,7.78 C212.644811,3.58006791 207.755996,1.57026878 203.27,3.04 C201.27,3.8 199.51,5.26 197.47,5.92 C194.73,6.8 191.81,6.14 188.98,5.74 C186.15,5.34 182.98,5.31 180.74,7.17 C178.12,9.32 177.4,13.35 174.94,15.7 C173.94,16.7 172.62,17.32 171.53,18.23 C170.335199,19.1113114 169.627061,20.5053421 169.62,21.99 C169.79,23.91 171.62,25.65 170.97,27.43 C170.730516,27.9424743 170.390445,28.4015707 169.97,28.78 C167.908294,30.9438533 166.375003,33.5552385 165.49,36.41 C170.49,37.95 175.81,32.49 179.68,29.91 C182.22,28.22 188.39,26.56 190.42,29.84 Z"/>
      <path fill="#000" d="M238.41,170.36 L236.11,172.26 C234.11,168.87 225.73,162.11 225.73,162.11 L226.09,161.76 L227.3,161.47 L238.41,170.36 Z" opacity=".1"/>
      <path fill="#E7EFFD" d="M240.63,166.93 C240.63,166.93 239.81,168.99 238.95,170.77 C238.09,172.55 237.16,174.17 237.12,172.86 C237.02,170.26 226.29,161.56 226.29,161.56 L227.74,160.14 L229.43,158.5 L240.63,166.93 Z"/>
      <path fill="#000" d="M241,153.23 L242.22,173.88 C239.34,169.41 231.45,157.95 226.38,158.32 L238.69,144.16 C239.201429,143.590115 239.672568,142.98532 240.1,142.35 C240.57,148.25 241,153.23 241,153.23 Z" opacity=".1"/>
      <path fill="#000" d="M240.63,166.93 C240.63,166.93 239.81,168.99 238.95,170.77 C235.72,166.35 231.29,161.12 227.74,160.14 L229.43,158.5 L240.63,166.93 Z" opacity=".1"/>
      <path fill="#65617D" d="M249.89,92.04 L253.22,94.63 C253.22,94.63 258.78,94.73 259.33,99.35 C259.88,103.97 264.98,106.11 264.98,106.11 C264.98,106.11 268.77,109.91 268.77,111.67 C268.77,113.43 271.64,116.57 271.64,116.85 C271.64,117.13 274.42,122.77 274.05,123.79 C273.68,124.81 277.05,129.25 275.99,130.92 C275.158156,132.417591 274.416827,133.963697 273.77,135.55 C273.77,135.55 269.42,143.88 267.2,145.45 C264.98,147.02 254.8,160.27 254.8,160.27 C254.8,160.27 243.87,172.85 243.87,176.74 C243.87,176.74 233.23,158.97 226.93,159.43 L239.24,145.27 C239.24,145.27 241.37,142.95 241.47,141.57 C241.57,140.19 247.39,133.79 250.17,133.51 C250.17,133.51 250.63,129.72 249.43,129.62 C248.23,129.52 247.21,126.62 247.21,126.62 C247.21,126.62 239.06,116.99 238.97,110.88 C238.88,104.77 249.89,92.04 249.89,92.04 Z"/>
      <path fill="#000" d="M254.8 100.83C254.8 100.83 247.02 106.57 248.69 108.43 250.36 110.29 254.8 100.83 254.8 100.83zM255.17 124.53C255.17 124.53 269.61 119.9 271.09 124.53L255.17 124.53zM165.75 370.46C165.75 370.46 157.97 375.56 154.08 374.81 151.386108 374.471018 148.651772 374.922688 146.21 376.11 143.535426 379.038186 140.159399 381.237249 136.4 382.5 130.1 384.63 121.31 383.79 116.31 382.13 113.95 381.34 113.76 380.32 114.9 379.07 120.33 380.15 132.48 382.3 135.75 380.74 139.354738 378.826529 142.820005 376.661155 146.12 374.26 146.12 374.26 154.12 373.15 155.19 373.15 155.98 373.15 162.13 370.61 165.6 369.15L165.75 370.46zM212.84 380.91C212.84 381.22 212.77 381.42 212.77 381.42 212.77 381.42 210.92 385.49 200.64 386.97 190.36 388.45 190.37 383.55 190.37 383.55L190.47 382.22C193.72 383.46 200.82 384.83 212.84 380.91zM153.29 99.72C153.29 99.72 153.29 120.83 151.49 122.91 149.69 124.99 153.29 99.72 153.29 99.72zM236.74 106.53L239.43 114.07C239.43 114.07 240.49 106.67 236.74 106.53z" opacity=".1"/>
      <path fill="url(#news-b)" d="M276.05,122.61 C276.43,121.61 273.61,115.89 273.61,115.61 C273.61,115.33 270.7,112.16 270.7,110.39 C270.7,108.62 266.85,104.79 266.85,104.79 C266.85,104.79 261.68,102.65 261.12,97.98 C260.56,93.31 254.93,93.23 254.92,93.23 C254.92,93.23 254.92,92.81 254.92,92.16 C255.034031,90.3161304 254.799956,88.4672731 254.23,86.71 C253.566263,85.4208502 252.419485,84.4466273 251.04,84 C251.04,84 250.47,80.36 249.35,79.24 C248.080229,77.9107867 247.58179,76.0227605 248.03,74.24 C248.6,72.48 247.28,68 244.56,67.34 C241.84,66.68 238.73,65.66 238.73,65.66 L237.98,65.79 L237.61,65.66 C236.949424,65.7863865 236.281361,65.8698943 235.61,65.91 C235.03565,65.9268847 234.473382,65.7429985 234.02,65.39 C233.08,64.39 225.47,62.39 224.02,62.39 C222.57,62.39 218.57,60.52 218.57,60.52 C218.57,60.52 215.75,58.38 214.57,57.44 C213.39,56.5 211.34,53.09 211.03,52.57 L211.03,52.5 C210.685595,51.7058176 210.401459,50.8868373 210.18,50.05 C211.554958,48.611418 212.728941,46.9934068 213.67,45.24 C213.77,45.06 213.86,44.88 213.95,44.69 C214.156654,44.6901775 214.362203,44.6598506 214.56,44.6 L214.81,44.5 C215.766023,44.0034291 216.485494,43.1472575 216.81,42.12 C216.880523,41.9165349 216.940602,41.7095983 216.99,41.5 C216.99,41.43 216.99,41.36 216.99,41.29 L217.08,40.87 C217.075196,40.7900721 217.075196,40.7099279 217.08,40.63 L217.14,40.21 L217.14,39.97 C217.14,39.79 217.14,39.62 217.21,39.44 C217.270546,38.7685935 217.367354,38.1009521 217.5,37.44 C218.06,34.91 219.59,32.77 220.66,30.44 C220.81,30.11 220.96,29.77 221.09,29.44 C221.22,29.11 221.35,28.69 221.46,28.31 L221.55,27.96 C221.62,27.68 221.68,27.4 221.74,27.12 C221.8,26.84 221.74,26.87 221.81,26.74 C221.87,26.36 221.92,25.97 221.96,25.57 C222.138128,23.3386963 221.795809,21.0965041 220.96,19.02 C220.26,17.27 219.21,15.69 218.5,13.94 C217.42,11.29 217.13,8.28 215.82,5.75 C213.613863,1.51008675 208.659528,-0.5055227 204.12,0.99 C202.12,1.75 200.3,3.22 198.23,3.88 C195.45,4.77 192.49,4.1 189.61,3.71 C186.73,3.32 183.61,3.27 181.25,5.15 C178.59,7.31 177.87,11.37 175.37,13.74 C174.37,14.74 173.02,15.37 171.91,16.29 C171.129589,16.9153612 170.529147,17.7366561 170.17,18.67 L170.11,18.86 C170.084164,18.9418236 170.064114,19.0253631 170.05,19.11 C170.027647,19.202228 170.010949,19.2957355 170,19.39 C169.99457,19.4532169 169.99457,19.5167831 170,19.58 C169.979992,19.7460662 169.979992,19.9139338 170,20.08 C170.013531,20.2379705 170.03691,20.3949424 170.07,20.55 L170.07,20.68 C170.07,20.81 170.14,20.94 170.19,21.07 C170.24,21.2 170.19,21.12 170.19,21.14 C170.19,21.16 170.3,21.43 170.36,21.57 L170.45,21.78 C170.45,21.84 170.45,21.9 170.53,21.95 C170.887477,22.6444186 171.178763,23.3709596 171.4,24.12 C171.515668,24.5947677 171.484281,25.0934808 171.31,25.55 C171.072822,26.0696389 170.732618,26.5357183 170.31,26.92 C168.438828,28.8630465 166.994594,31.1758649 166.07,33.71 C165.956667,34.0033333 165.856667,34.2933333 165.77,34.58 L165.9,34.58 C166.168778,34.6567665 166.442856,34.7135876 166.72,34.75 C166.876531,34.7592121 167.033469,34.7592121 167.19,34.75 C167.833372,34.7880611 168.478954,34.7409874 169.11,34.61 L169.59,34.49 C170.243391,34.3195152 170.879474,34.0885166 171.49,33.8 C171.49,33.99 171.49,34.18 171.49,34.37 C171.49,34.56 171.49,34.58 171.49,34.69 C171.502468,43.1071768 176.278362,50.7919893 183.82,54.53 C183.82,54.73 183.87,54.93 183.9,55.13 L183.96,55.64 L183.71,55.4 C183.71,55.4 182.02,54.56 180.42,56.98 C179.246496,58.567949 177.653534,59.7973006 175.82,60.53 C175.82,60.53 158.72,63.23 158.06,65.47 L150.06,65.94 C150.06,65.94 147.24,66.31 146.96,72.19 C146.68,78.07 145.18,78.62 145.18,78.62 C145.18,78.62 141.89,84.41 142.18,87.39 C142.25198,89.2443158 141.268141,90.979592 139.64,91.87 L139.27,97.19 C139.27,97.19 136.17,96.72 135.27,100.36 C134.911983,102.287404 134.110909,104.105226 132.93,105.67 C132.93,105.67 127.76,109.97 127.48,113.6 L124.28,115.6 C124.28,115.6 116.86,113.92 115.17,110.94 C115.17,110.94 114.97,110.74 114.65,110.45 L114.65,110.38 C113.54,109.38 111.19,107.14 111.55,107.65 C111.770993,108.117877 111.823968,108.647627 111.7,109.15 L111.15,108.54 L109.67,106.9 C109.67,106.9 97.67,95.66 90.67,94.77 C90.58,94.59 90.12,92.77 88.92,93.92 C86.9116517,95.764697 85.762745,98.3627875 85.7494614,101.089726 C85.7361778,103.816664 86.8597186,106.425825 88.85,108.29 L100.09,118.78 L100.38,118.99 L102.79,122.09 C102.38,123.09 102.04,124.01 101.79,124.87 L101.79,124.96 L101.61,125.5 C101.58872,125.558622 101.572003,125.618801 101.56,125.68 C101.5,125.86 101.45,126.03 101.4,126.2 L101.31,126.5 C101.31,126.56 101.31,126.62 101.31,126.68 C101.04,127.62 100.87,128.34 100.79,128.74 L100.16,128.54 L100.77,128.81 L100.77,128.9 C100.77,129.03 100.77,129.1 100.77,129.1 L101.35,129.35 C104.64,130.78 121.06,137.99 121.9,139.08 C122.74,140.17 129.04,143.84 134.68,140.85 C140.32,137.86 141.53,133.3 141.53,133.3 C141.53,133.3 146.98,125.74 147.17,124.62 C147.36,123.5 151.58,122.2 151.58,122.2 C151.58,122.2 151.96,134.69 149.8,139.27 C147.64,143.85 143.6,164.08 143.6,164.08 C143.86535,164.04252 144.13465,164.04252 144.4,164.08 L144.16,165.25 C144.490469,165.188199 144.829531,165.188199 145.16,165.25 C144.86,167.55 143.16,178.25 143.16,178.25 C143.16,178.25 142.6,183.1 141.66,184.78 C140.72,186.46 140.66,195.23 140.66,195.23 L139.15,201.57 C139.15,201.57 139.35,202.01 139.72,202.66 C140.732067,204.817939 142.207005,206.726481 144.04,208.25 C143.919461,209.24668 143.663779,210.222307 143.28,211.15 C142.69644,212.567977 142.440084,214.099276 142.53,215.63 C142.53,215.63 140.94,222.81 141.12,224.86 C141.3,226.91 140.12,231.95 140.12,231.95 L138.43,248.18 C138.43,248.18 137.31,262.26 137.87,266.09 C138.138719,269.09368 138.010955,272.119662 137.49,275.09 C137.49,275.09 138.62,286.19 138.34,287.4 C138.06,288.61 136.65,293.84 137.49,296.73 C138.33,299.62 137.87,307.55 137.87,307.55 C137.87,307.55 138.43,318 139.09,321.36 C139.442548,323.903396 139.378374,326.487241 138.9,329.01 C138.9,329.01 138.24,336.19 137.96,336.19 C137.68,336.19 135.24,341.13 140.21,345.98 C145.18,350.83 142.1,350.08 142.1,350.08 C142.1,350.08 138.1,348.08 138.62,352.14 C139.06,355.95 139.68,354.96 139.74,354.85 L138.8,357.92 L139.46,358.01 L138.92,358.66 C138.353806,359.387379 137.717406,360.057273 137.02,360.66 C136.288556,361.374758 135.853003,362.338687 135.8,363.36 C135.8,363.36 128.85,370.92 122.37,374.74 C118.96,376.74 116.02,378.45 114.74,379.87 C113.58,381.13 113.74,382.15 116.17,382.95 C121.24,384.63 130.17,385.47 136.55,383.32 C140.372855,382.055552 143.813163,379.843434 146.55,376.89 C146.55,376.89 150.55,374.83 154.55,375.58 C158.55,376.33 166.39,371.2 166.39,371.2 L166.24,369.88 L165.83,366.06 C165.295111,365.413061 165.055733,364.571613 165.17,363.74 C165.218891,362.610045 165.107792,361.478852 164.84,360.38 C164.77,360.01 164.7,359.64 164.63,359.3 L165.35,359.16 C165.35,359.16 164.42,354.41 166.11,353.47 C167.8,352.53 167.32,340.32 167.32,340.32 C167.32,340.32 165.17,337.52 164.04,337.06 C162.91,336.6 163.94,330.8 164.14,330.06 C164.34,329.32 165.83,314.85 165.83,314.85 C165.83,314.85 165.26,310.29 166.01,308.33 C166.76,306.37 165.07,298.81 165.07,298.81 C164.74923,298.098587 164.94135,297.260619 165.54,296.76 C166.54,295.64 166.2,285.66 166.2,285.66 C166.2,285.66 166.11,280.66 166.11,279.31 C166.11,277.96 167.23,273.25 168.27,271.67 C169.31,270.09 168.64,265.14 168.64,265.14 L168.7,264.77 C168.7,264.63 168.7,264.45 168.78,264.24 L168.86,263.74 C169.318397,261.007127 169.932734,258.30271 170.7,255.64 C171.92,251.73 173.33,244.83 173.33,244.83 L182.06,222.05 L182.16,221.78 C182.16,221.78 186.16,229.24 186.16,236.15 C186.16,236.15 187.16,244.45 186.92,246.69 C186.68,248.93 187.57,259.46 187.57,259.46 C187.57,259.46 188.79,274.57 188.79,275.22 C188.79,275.87 190.3,287.53 191.24,289.31 C192.18,291.09 190.3,296.49 189.73,297.05 C189.16,297.61 189.92,311.32 189.92,311.32 C189.92,311.32 188.51,322.14 188.23,324.38 C187.95,326.62 186.82,335.2 187.76,338.56 C188.7,341.92 188.32,342.38 188.32,342.38 C188.32,342.38 191.71,345.84 189.73,346.12 C188.276548,346.438 187.030551,347.366759 186.310598,348.668801 C185.590645,349.970844 185.466534,351.519939 185.97,352.92 C187.147255,356.333703 188.529776,359.673126 190.11,362.92 L191.67,362.59 L191.67,363.7 L191.78,369.26 C191.78,369.26 192.44,374.57 192.06,375.79 C191.79,376.67 191.41,380.85 191.23,383.04 C191.16,383.84 191.12,384.37 191.12,384.37 C191.12,384.37 191.12,389.31 201.55,387.82 C211.98,386.33 213.85,382.22 213.85,382.22 L213.93,381.71 C214.08,380.77 214.42,378.77 214.7,377.65 C215.07,376.16 211.7,369.44 211.7,369.44 C211.7,369.44 211.14,364.87 210.2,363.85 C209.805328,363.245979 209.54606,362.563694 209.44,361.85 C209.36,361.47 209.28,361.08 209.22,360.7 C209.45527,360.727743 209.688923,360.767798 209.92,360.82 C209.92,360.82 209.35,357.56 211.52,356.53 C213.69,355.5 213.11,353.36 212.83,352.43 C212.55,351.5 213.67,346.27 213.67,346.27 C213.345653,345.208259 213.634169,344.054197 214.42,343.27 C215.74,341.96 216.77,332.82 216.77,332.82 L216.96,297.56 C216.96,297.56 217.62,291.31 216.87,288.79 C216.12,286.27 215.37,281.42 216.4,280.11 C217.43,278.8 216.49,272.75 216.49,272.75 C216.49,272.75 216.49,259.97 217.9,256.75 C219.31,253.53 218.84,233.52 218.84,233.52 L219.21,220.37 C219.21,220.37 222.28,217.47 221.56,202.37 C224.83,202.16 228.56,202.04 229.08,202.5 C230.08,203.34 236.78,207.63 240.73,204.92 C242.360748,203.799702 243.926599,202.587753 245.42,201.29 L243.76,173.29 C244.76,174.85 245.42,175.88 245.42,175.88 C245.42,171.97 256.51,159.28 256.51,159.28 C256.51,159.28 266.84,145.94 269.09,144.36 C271.34,142.78 275.76,134.36 275.76,134.36 C276.413365,132.76014 277.168234,131.203639 278.02,129.7 C279.06,128.11 275.68,123.63 276.05,122.61 Z M251.82,132.4 C249,132.68 243.08,139.12 242.99,140.52 C242.78491,141.443323 242.355604,142.301935 241.74,143.02 C241.74,142.46 241.65,141.89 241.6,141.31 C240.94,133.06 240.22,123.02 240.6,122.05 C241.16,120.37 240.97,112.81 240.97,112.81 L241.08,112.66 C242.97,118.52 248.85,125.42 248.85,125.42 C248.85,125.42 249.85,128.42 251.11,128.49 C252.37,128.56 251.82,132.4 251.82,132.4 Z"/>
      <g fill="#000" opacity=".1" transform="translate(165 20)">
        <path d="M6.29 5.61C6.97 3.88 5.19 2.17 4.96.31 4.72089338.832499408 4.61769897 1.40694832 4.66 1.98 4.78 3.39 5.82 4.7 6.09 5.98 6.1679243 5.86309228 6.23487577 5.73923208 6.29 5.61zM37.01 25.55C36.35 22.63 36.55 19.55 35.87 16.62 35.19 13.69 33.11 10.62 30.27 10.62 29.05 10.62 27.62 11.06 26.74 10.15 26.2 9.6 26.1 8.73 25.74 8.05 23.74 4.77 17.54 6.44 15.01 8.12 11.23 10.63 6.01 15.9 1.17 14.7.94 15.26.72 15.83.54 16.42 5.54 17.96 10.86 12.5 14.73 9.92 17.26 8.24 23.43 6.58 25.46 9.86 25.86 10.53 25.97 11.4 26.46 11.96 27.34 12.87 28.77 12.4 29.99 12.42 32.83 12.47 34.91 15.48 35.59 18.42 36.27 21.36 36.06 24.54 36.77 27.5 36.7202495 26.8405243 36.8018241 26.1777309 37.01 25.55zM50.93 22.08C50.43 23.55 49.11 24.9 47.68 24.6 46.25 24.3 45.56 22.68 44.5 21.66 43.1517123 20.3872636 41.1459665 20.1064592 39.5 20.96 37.9274675 21.9008081 36.9864792 23.618303 37.04 25.45 37.4114096 24.3184543 38.1877783 23.3640194 39.22 22.77 40.8633609 21.9107054 42.8707948 22.1877312 44.22 23.46 45.28 24.46 46.01 26.11 47.41 26.4 48.81 26.69 50.15 25.35 50.65 23.88 50.9214459 23.0158253 51.0925709 22.1232907 51.16 21.22 51.1033248 21.5116432 51.0264735 21.7990005 50.93 22.08zM55.29 9.46C54.29 12.2 52.36 14.57 51.73 17.46 51.61 18.04 51.53 18.64 51.46 19.24 52.1 16.36 53.97 14 55.01 11.24 55.4740323 10.0067949 55.7602339 8.71383693 55.86 7.4 55.7227715 8.10018842 55.5322163 8.7888616 55.29 9.46z"/>
      </g>
      <circle cx="86.51" cy="96.26" r="1" fill="#E6E8EC"/>
      <rect width="181.18" height="208.22" x=".12" y="101.42" fill="#FFF" rx="6.61"/>
      <rect width="181.18" height="208.22" x=".12" y="101.42" fill="#5A5773" opacity=".1" rx="6.61"/>
      <rect width="162.7" height="186.98" x="9.36" y="112.04" fill="#FFF" rx="6.61"/>
      <rect width="111.62" height="38.52" x="33.03" y="149.54" fill="#13A399" rx="6.03"/>
      <rect width="103.43" height="7.86" x="37.13" y="202.15" fill="#13A399"/>
      <rect width="142.32" height="7.86" x="19.55" y="218.74" fill="#13A399"/>
      <rect width="142.32" height="7.86" x="19.55" y="236.2" fill="#13A399"/>
      <rect width="142.32" height="7.86" x="19.55" y="253.66" fill="#13A399"/>
    </g>
    <g fill-rule="nonzero" id="newsRightPerson" class="opacity" transform="translate(0 471)">
      <ellipse cx="140.04" cy="368.19" fill="#13A399" opacity=".1" rx="100.11" ry="24.73"/>
      <rect width="426.61" height="208.22" y="12.59" fill="#FFF" rx="6.61"/>
      <rect width="426.61" height="208.22" y="12.59" fill="#5A5773" opacity=".1" rx="6.61"/>
      <rect width="383.08" height="186.98" x="21.76" y="23.21" fill="#FFF" rx="6.61"/>
      <rect width="262.81" height="38.52" x="77.51" y="60.72" fill="#13A399" rx="6.03"/>
      <rect width="243.53" height="7.86" x="87.15" y="113.32" fill="#13A399"/>
      <rect width="335.1" height="7.86" x="45.75" y="129.91" fill="#13A399"/>
      <rect width="335.1" height="7.86" x="45.75" y="147.37" fill="#13A399"/>
      <rect width="335.1" height="7.86" x="45.75" y="164.83" fill="#13A399"/>
      <path fill="url(#news-c)" d="M104.27,370.64 C105.46,366.3 106.27,362.48 106.27,362.48 C106.292249,359.579069 107.056492,356.732092 108.49,354.21 L108.49,353.01 L108.83,344.2 C108.301279,342.578154 107.632076,341.005525 106.83,339.5 C105.35,336.67 107.33,326.58 107.33,326.58 C107.33,326.58 113.76,312.51 112.68,303.38 C111.6,294.25 126.3,263.55 126.3,263.55 C126.339209,260.524658 126.030516,257.504837 125.38,254.55 C125.261842,253.934107 125.228199,253.304981 125.28,252.68 C125.275014,252.603414 125.275014,252.526586 125.28,252.45 L125.28,252.52 C125.71,246.52 130.87,235.52 130.87,235.52 L131.06,214.12 C131.06,214.12 128.52,201.4 134.06,184.67 C136.01,178.83 137.29,174.15 138.13,170.53 C138.23,170.12 138.32,169.73 138.4,169.35 C128.32,167.41 120.62,165.83 120.62,165.83 C120.62,165.83 127.45,141.45 131.62,137.3 C135.79,133.15 139.45,119.73 139.45,119.73 C139.45,119.73 142.19,102.43 139.05,97.23 C135.91,92.03 135.77,83.23 135.77,83.23 C135.77,83.23 128.35,77.4 127.49,74.91 C126.63,72.42 125.26,66.81 125.37,63.91 C125.48,61.01 126.54,58.41 126.28,56.86 C126.02,55.31 128.79,49.57 127.62,46.75 C127.328948,45.8839691 127.193524,44.973247 127.22,44.06 C127.22,44.06 127.22,44.06 127.22,43.98 C127.303119,41.5582271 127.62128,39.1502539 128.17,36.79 C130.443275,35.0127916 133.067713,33.7380646 135.87,33.05 L136.06,32.39 L136.56,30.68 C136.805859,30.5268823 137.059537,30.3866919 137.32,30.26 L137.37,29.63 L137.53,27.14 L136.57,21.46 C134.57,11.6 147.69,10.65 147.69,10.65 C148.534582,9.18245705 149.891373,8.07850701 151.5,7.55 C154.16,6.73 151.38,22.26 150.11,23.21 C149.11,23.92 146.11,28.71 144.66,31.06 L144.42,31.45 C144.630523,31.650693 144.824487,31.8680668 145,32.1 L144.37,35.47 L144.27,35.98 C145.095486,37.0871962 145.752602,38.3104427 146.22,39.61 C146.22,39.61 143.73,42.13 144.1,45.07 C144.207844,47.3570357 143.868157,49.6431278 143.1,51.8 C143.24,51.65 144.99,49.9 146.65,50.4 C148.31,50.9 152.93,52.49 152.93,52.49 C152.93,52.49 156.4,53.24 156.05,54 C155.7,54.76 158.28,58.24 158.28,58.24 L168.01,49.71 C168.12,49.44 168.22,49.18 168.32,48.91 C168.768249,47.6524559 169.10292,46.3572777 169.32,45.04 C168.294262,44.760088 167.291356,44.4023849 166.32,43.97 C165.344715,43.5950013 164.47366,42.9914356 163.78,42.21 C162.88,41.05 162.78,39.51 162.43,38.1 C161.79,35.34 160.29,32.84 159.24,30.19 C157.478632,25.7438939 157.013997,20.8894974 157.9,16.19 C158.113621,14.7500075 158.661593,13.3800781 159.5,12.19 C161.12,10.14 163.93,9.39 166.02,7.79 C168.11,6.19 169.51,3.66 171.91,2.49 C174.09,1.43 176.68,1.67 179.07,2.15 C183.711199,3.0969065 188.13621,4.89742812 192.12,7.46 C193.46,8.33 194.93,9.33 196.52,9.1 C197.839502,8.74897662 199.002118,7.96333016 199.82,6.87 C199.815576,6.8234382 199.815576,6.7765618 199.82,6.73 L199.93,6.62 C200.838415,8.8647299 201.241291,11.2819857 201.11,13.7 C201.11,14.07 201.11,14.45 201.03,14.82 C201.03,14.95 201.03,15.08 201.03,15.21 C201.020007,15.319773 201.020007,15.430227 201.03,15.54 C201.025315,15.705418 201.045541,15.8705996 201.09,16.03 C201.265534,16.5230886 201.549122,16.9706786 201.92,17.34 C202.191743,17.6742491 202.432723,18.0323722 202.64,18.41 C202.64,18.28 202.57,18.15 202.53,18.02 C203.096168,18.9178493 203.394505,19.9585578 203.39,21.02 C203.413058,21.793666 203.129051,22.545026 202.6,23.11 C202.11669,23.5582759 201.58704,23.9538372 201.02,24.29 C202.057133,31.7276338 198.354707,39.0247649 191.74,42.58 C191.62,42.84 191.5,43.11 191.39,43.38 C189.901591,46.5582239 189.182191,50.0421735 189.29,53.55 C189.29,53.8 189.29,54.05 189.37,54.3 C189.45,54.55 189.6,54.57 189.7,54.71 C189.7,54.71 205.2,55.46 208.98,52.29 C212.76,49.12 217.88,60.72 217.88,60.72 C217.88,60.72 223.4,62.01 224.55,60.98 C225.7,59.95 232.19,61.12 232.19,61.12 C234.940309,58.8515362 238.452444,57.7177819 242.01,57.95 C244.24591,56.383699 246.693927,55.1445377 249.28,54.27 L249.46,54.21 C250.591321,53.8416729 251.791634,53.7356623 252.97,53.9 C252.97,53.9 260.84,47.9 263.19,44.59 C265.54,41.28 276.57,29.15 276.57,29.09 L276.64,28.49 L276.83,26.67 C277.139761,26.7342348 277.454036,26.774355 277.77,26.79 L278.01,26.16 C278.685953,24.4023358 279.505385,22.7032702 280.46,21.08 C280.46,21.08 280.55,18.77 279.9,18.17 C279.25,17.57 280.53,9.17 280.53,9.17 C280.53,9.17 288.02,-6.63 293.71,5.6 C293.71,5.6 305.05,13.81 294.93,22.47 C294.93,22.47 290.93,24.21 290.36,25.68 C289.96,26.68 288.53,29.3 287.57,31.07 L287.14,31.86 L287.25,31.96 L287.05,33.46 L286.97,34.05 C288.76,35.16 289.97,36.24 289.64,37.05 C289.04434,38.360696 288.617591,39.74175 288.37,41.16 C288.37,41.16 274.23,57.46 272.21,64.65 C272.21,64.65 235.15,84.79 223.21,85.87 L224.86,96.71 C225.055761,99.6357274 225.102488,102.569522 225,105.5 C224.75,107.8 225.94,118.31 225.94,118.31 C225.94,118.31 227.41,133.77 229.08,135.99 C230.75,138.21 230.08,147.43 230.08,147.43 C230.330595,151.862216 230.959551,156.264906 231.96,160.59 C233.48,166.5 231.96,173.68 231.96,173.68 C231.96,173.68 237.47,187.75 223.37,177.81 C223.37,177.81 216.29,177.1 208.13,176.51 C208.13,176.77 208.13,177.05 208.13,177.32 C208.13,178.38 208.08,179.52 208.05,180.72 C207.85,188.65 207.48,199.57 206.8,207.82 C205.6,222.41 200.04,251.15 200.04,251.15 L199.48,265.67 C199.717781,267.046441 199.804962,268.444683 199.74,269.84 C199.645786,274.963669 198.095402,279.954726 195.27,284.23 L193.78,293.88 C193.78,293.88 190.93,300.16 190.73,303.97 C190.724643,304.281925 190.751451,304.593572 190.81,304.9 C190.883323,305.393054 190.906775,305.892243 190.88,306.39 C190.88,310.79 187.8,321.21 187.8,321.21 C187.8,321.21 187.23,331.82 185.62,332.37 C184.24,332.85 187.2,338.56 188.08,340.2 C188.112752,340.102434 188.13619,340.001986 188.15,339.9 L188.34,340.22 C188.634294,341.091963 188.766473,342.010436 188.73,342.93 C188.851559,344.416076 188.108571,345.839812 186.82,346.59 C183.73,348.32 182.05,349.79 184.59,350.51 C185.527746,350.69281 186.455606,350.923106 187.37,351.2 L187.52,350.85 C188.258953,351.169056 188.67537,351.960248 188.52,352.75 C188.450543,354.007466 188.076471,355.229204 187.43,356.31 C186.198442,359.039075 184.654815,361.616261 182.83,363.99 L181.61,363.81 C181.775024,364.278554 181.996665,364.725195 182.27,365.14 C182.707536,365.82827 183.304354,366.401078 184.01,366.81 C184.658651,367.228974 185.387464,367.508238 186.15,367.63 C187.892438,367.758556 189.498681,368.619822 190.57,370 C192.07,372.11 192.96,374.94 189.73,377.27 L178.22,380.75 C178.22,380.75 158.58,382.54 159.78,378.2 C160.98,373.86 161.78,370.04 161.78,370.04 C161.801054,367.355886 162.444595,364.713262 163.66,362.32 C163.882099,361.931003 164.129288,361.556878 164.4,361.2 L163.71,361.1 C163.71,361.1 162.57,351.35 160.69,349.46 C160.27,349.01 160.18,348.68 160.29,348.46 C160.12,347.93 160.62,347.64 161.29,347.46 C161.29,347.58 161.38,347.71 161.42,347.84 C162.047498,347.734125 162.683929,347.69058 163.32,347.71 C163.32,347.71 164.15,342.66 162.16,340.71 C161.834657,340.275203 161.710908,339.721973 161.82,339.19 C161.824133,338.493456 161.921669,337.800613 162.11,337.13 C162.12957,337.17208 162.153004,337.212252 162.18,337.25 C163.4,332.69 167.18,325.51 167.18,325.51 C167.18,325.51 167.51,320.9 166.31,319 C165.11,317.1 167.44,293.94 167.44,293.94 C167.44,293.94 167.39,282.7 169.02,277.53 C170.65,272.36 167.71,266.08 167.71,266.08 C167.71,266.08 167.71,265.96 167.76,265.75 C167.763303,265.720091 167.763303,265.689909 167.76,265.66 C167.76,265.66 167.86,264.97 168.02,263.9 L168.02,264.01 C168.46,261.01 169.27,255.7 169.81,253.22 C170.58,249.71 170.44,232.76 170.44,232.76 L167.85,225.46 L162.28,237.72 L156.28,254.12 C156.28,254.12 153.47,257.52 153.28,261.12 C153.28,261.3 153.28,261.47 153.28,261.65 C153.304709,262.019587 153.304709,262.390413 153.28,262.76 C153.288286,264.859829 152.63003,266.908126 151.4,268.61 C151.4,268.61 149.67,276.4 147.4,278.31 C145.13,280.22 144.95,284.07 144.95,284.07 C144.95,284.07 141.81,295.35 140.46,297.3 C139.33,298.94 139.09,303.57 139.05,304.99 C139.05,305.25 139.05,305.4 139.05,305.4 C139.05,305.4 138.52,309.46 138.4,312.88 C138.4,313.3 138.4,313.71 138.4,314.09 C138.395111,314.063557 138.395111,314.036443 138.4,314.01 C138.361982,314.938815 138.435846,315.868831 138.62,316.78 C138.62,316.78 138.62,316.89 138.62,316.95 L138.62,316.37 C139.095054,318.711738 139.279779,321.103085 139.17,323.49 C139.08,327.58 138.27,332.4 135.68,335.15 C131.2,339.91 128.53,339.15 128.53,339.15 C128.53,339.15 130.36,345.38 132.85,346.71 C132.945903,346.760635 133.036374,346.820949 133.12,346.89 C133.12,346.77 133.12,346.65 133.19,346.54 C133.724889,347.186939 133.964267,348.028387 133.85,348.86 C133.93,351.57 132.05,355.86 130.35,357.86 C129.731069,358.431552 128.977753,358.837448 128.16,359.04 C128.284481,359.134672 128.414733,359.221506 128.55,359.3 C128.827362,359.464183 129.114572,359.611128 129.41,359.74 C129.813397,359.936773 130.245417,360.068404 130.69,360.13 C132.435711,360.247229 134.046304,361.110827 135.11,362.5 C136.61,364.6 137.5,367.43 134.27,369.76 L122.76,373.24 C122.76,373.24 103.06,374.98 104.27,370.64 Z"/>
      <path fill="#2D293D" d="M178.62 380.77L189.77 377.28C192.9 374.94 192.04 372.11 190.59 370 189.577193 368.631775 188.017807 367.773565 186.32 367.65 185.574785 367.52707 184.865122 367.243887 184.24 366.82 183.559121 366.407503 182.986579 365.838389 182.57 365.16 181.818505 363.854033 181.44137 362.366255 181.48 360.86 181.48 360.86 169.54 356.86 166.1 360.27 165.491894 360.88925 164.976558 361.593205 164.57 362.36 163.389945 364.76439 162.761335 367.401821 162.73 370.08 162.73 370.08 161.97 373.89 160.8 378.24 159.63 382.59 178.62 380.77 178.62 380.77zM125.01 373.28L136.16 369.79C139.29 367.45 138.43 364.62 136.98 362.52 135.96695 361.145461 134.403075 360.283137 132.7 360.16 132.268474 360.102879 131.849436 359.974464 131.46 359.78 131.174566 359.646767 130.8974 359.496496 130.63 359.33 127.63 357.52 127.86 353.33 127.86 353.33 127.86 353.33 115.92 349.33 112.48 352.74 112.018551 353.20015 111.609398 353.709914 111.26 354.26 109.862342 356.800923 109.119972 359.650114 109.1 362.55 109.1 362.55 108.33 366.37 107.17 370.71 106.01 375.05 125.01 373.28 125.01 373.28z"/>
      <path fill="#000" d="M166.09 360.27C165.48543 360.889918 164.973486 361.593839 164.57 362.36L182.57 365.15C181.818505 363.844033 181.44137 362.356255 181.48 360.85 181.48 360.85 169.57 356.86 166.09 360.27zM111.26 354.3L111.13 357.69C113.77 362.44 127.42 361.95 131.46 359.78 131.174566 359.646767 130.8974 359.496496 130.63 359.33 127.63 357.52 127.86 353.33 127.86 353.33 127.86 353.33 115.92 349.33 112.48 352.74 112.016186 353.212662 111.606952 353.735945 111.26 354.3z" opacity=".1"/>
      <path fill="#575988" d="M109.67,339.62 C110.464533,341.129119 111.13346,342.701097 111.67,344.32 L111.18,356.46 C114.06,361.66 130.12,360.58 132.38,357.9 C134.64,355.22 137.22,348.07 134.81,346.75 C132.4,345.43 130.63,339.19 130.63,339.19 C130.63,339.19 133.22,339.91 137.57,335.19 C141.92,330.47 141.1,319.46 140.42,316.82 C139.74,314.18 140.87,305.44 140.87,305.44 C140.87,305.44 140.95,299.28 142.26,297.33 C143.57,295.38 146.62,284.1 146.62,284.1 C146.62,284.1 146.76,280.25 148.99,278.34 C151.22,276.43 152.91,268.63 152.91,268.63 C154.247744,266.7201 154.880474,264.404802 154.7,262.08 C154.39,258.22 157.62,254.18 157.62,254.18 L163.49,237.78 L168.89,225.51 L171.38,232.84 C171.38,232.84 171.5,249.79 170.75,253.3 C170,256.81 168.75,266.16 168.75,266.16 C168.75,266.16 171.59,272.43 170.01,277.61 C168.43,282.79 168.45,294.02 168.45,294.02 C168.45,294.02 166.17,317.19 167.33,319.08 C168.49,320.97 168.16,325.58 168.16,325.58 C168.16,325.58 161.34,338.87 163.26,340.8 C165.18,342.73 164.38,347.8 164.38,347.8 C164.38,347.8 160.08,347.63 161.85,349.55 C163.62,351.47 164.57,361.14 164.57,361.14 L183.08,364.01 C184.85367,361.624221 186.349971,359.044276 187.54,356.32 C190.22,350.73 187.28,351.23 184.83,350.52 C182.38,349.81 184,348.33 186.99,346.6 C189.98,344.87 188.45,340.65 188.45,340.65 C188.45,340.65 184.28,332.94 185.85,332.39 C187.42,331.84 187.97,321.23 187.97,321.23 C187.97,321.23 191.53,308.73 190.89,305.32 C190.25,301.91 193.8,293.88 193.8,293.88 L195.24,284.24 C198.745904,278.873049 200.198118,272.421527 199.33,266.07 L199.91,251.15 C199.91,251.15 205.35,222.46 206.57,207.82 C207.33,198.48 207.71,185.71 207.88,177.74 C207.98,173.26 208.02,170.3 208.02,170.3 L141.85,160.82 C141.619864,164.13489 141.087656,167.421857 140.26,170.64 C139.45,174.27 138.2,178.95 136.26,184.79 C130.84,201.52 133.26,214.24 133.26,214.24 L133.05,235.64 C133.05,235.64 126.65,249.72 127.7,254.69 C128.327228,257.647922 128.622389,260.666605 128.58,263.69 C128.58,263.69 114.34,294.37 115.38,303.46 C116.42,312.55 110.17,326.67 110.17,326.67 C110.17,326.67 108.24,336.79 109.67,339.62 Z"/>
      <path fill="#000" d="M150.74,260.96 L130.62,257.46 C130.62,257.46 141.63,269.62 150.74,260.96 Z" opacity=".05"/>
      <path fill="#000" d="M134.3 237.85C134.3 237.85 133.3 244.97 137.61 247.85 137.57 247.83 129.82 246.3 134.3 237.85zM136.42 215.13C136.42 215.13 152.79 229.7 158.98 228.79 165.17 227.88 136.42 215.13 136.42 215.13zM175.57 268.46C175.57 268.46 188.3 271.88 188.49 277.04 188.68 282.2 175.57 268.46 175.57 268.46z" opacity=".1"/>
      <path fill="#000" d="M170.26,332.46 C170.26,332.46 188.26,336.54 183.04,338.65 C177.82,340.76 169.27,342.28 169.27,342.28 C169.27,342.28 163.41,342.38 170.26,332.46 Z" opacity=".05"/>
      <g fill="#000" opacity=".05" transform="translate(109 169)">
        <path d="M77.57 173.46C78.513619 172.916735 79.1606611 171.975583 79.33 170.9L79.5 171.23C79.5 171.23 81.04 175.44 78.04 177.23 77.7 177.42 77.38 177.62 77.04 177.81 76.51 177.69 75.93 177.59 75.38 177.43 72.94 176.68 74.57 175.2 77.57 173.46zM54.23 171.34C53.75 170.86 53.82 169.68 54.23 168.17 54.9187661 169.564484 55.2160053 171.119805 55.09 172.67 54.9087259 172.166777 54.6145274 171.711796 54.23 171.34zM59.97 94.94C60.5667015 96.7877036 60.9032653 98.7094826 60.97 100.65 60.6757758 99.2997134 60.2538787 97.9804479 59.71 96.71 59.71 96.71 59.82 96.02 59.97 94.94zM18.74 85.27C18.6382488 84.7127979 18.6013365 84.1456906 18.63 83.58 18.82 84.74 18.94 85.81 19.01 86.75 18.93 86.27 18.84 85.78 18.74 85.27zM58.3 149.63C57.9994446 148.513113 57.8912319 147.353209 57.98 146.2 58.495359 147.587305 58.7397766 149.060599 58.7 150.54 58.602895 150.222 58.4686348 149.916558 58.3 149.63zM53.38 178.46C54.217603 181.584676 54.8028189 184.771595 55.13 187.99L73.64 190.86C75.4201589 188.476691 76.9200324 185.896372 78.11 183.17 78.35 182.68 78.53 182.24 78.69 181.84 79.78 182.39 80.18 183.57 78.58 186.89 77.3888337 189.610569 75.8925815 192.187075 74.12 194.57L55.57 191.72C55.57 191.72 54.57 181.98 52.78 180.07 51.95 179.12 52.57 178.69 53.38 178.46zM79.01 151.81C79.01 151.81 78.45 162.42 76.89 162.97 76.18 161.18 75.72 159.5 76.42 159.25 77.98 158.69 78.55 148.09 78.55 148.09 78.55 148.09 82.11 135.6 81.47 132.18 80.83 128.76 84.37 120.75 84.37 120.75L85.82 111.1C89.3259044 105.733049 90.7781183 99.281527 89.91 92.93L90.48 78.01C90.48 78.01 95.9 49.27 97.08 34.68 97.83 25.34 98.21 12.57 98.39 4.6 98.39 3.16 98.45 1.88 98.47.8L99 .88C99 .88 99 3.88 98.86 8.31 98.69 16.31 98.31 29.06 97.55 38.4 96.37 52.98 90.96 81.73 90.96 81.73L90.38 96.64C91.2483243 102.990195 89.7998961 109.440671 86.3 114.81L84.84 124.46C84.84 124.46 81.29 132.46 81.93 135.9 82.57 139.34 79.01 151.81 79.01 151.81zM22.92 184.77C24.5110774 182.640501 25.6107458 180.18503 26.14 177.58 27.97 179.36 25.54 185.93 23.39 188.48 21.24 191.03 5.07 192.24 2.19 187.05L2.3 184.12C6.3 188.4 20.78 187.31 22.92 184.77zM.21 166.46C1.00453322 167.969119 1.67345974 169.541097 2.21 171.16L2.12 173.31C1.70070508 172.239726 1.22674815 171.19168.7 170.17.259481642 168.944052.0822974448 167.639022.18 166.34L.21 166.46zM22.57 169.78C22.029015 168.574985 21.5680164 167.335634 21.19 166.07 21.19 166.07 23.78 166.78 28.12 162.02 31.28 158.55 31.71 151.8 31.45 147.36 32.13 150.01 32.94 160.97 28.6 165.73 25.74 168.85 23.65 169.62 22.57 169.78zM31.88 135.98C31.4913875 139.002093 31.2710476 142.043451 31.22 145.09 31.160438 144.605499 31.0736338 144.124738 30.96 143.65 30.29 141 31.4 132.27 31.4 132.27 31.4 132.27 31.49 126.11 32.79 124.16 34.09 122.21 37.15 110.93 37.15 110.93 37.15 110.93 37.3 107.09 39.53 105.17 41.76 103.25 43.45 95.46 43.45 95.46 44.7831914 93.5479662 45.4154691 91.2343243 45.24 88.91 44.93 85.05 48.16 81.01 48.16 81.01L54.03 64.61 59.43 52.34 61.92 59.68C61.92 59.68 61.92 60.58 61.92 62.02L59.92 56.02 54.52 68.28 48.65 84.69C48.65 84.69 45.42 88.69 45.73 92.59 45.9104739 94.914802 45.2777436 97.2301001 43.94 99.14 43.94 99.14 42.25 106.93 40.02 108.84 37.79 110.75 37.65 114.6 37.65 114.6 37.65 114.6 34.59 125.88 33.29 127.84 31.99 129.8 31.88 135.98 31.88 135.98z"/>
      </g>
      <path fill="#FFCDD3" d="M138.85,21.56 L139.79,27.22 L139.63,29.72 L139.51,31.56 L145.9,32.47 L146.67,31.17 C148.09,28.82 151.03,24.03 151.96,23.31 C153.18,22.36 155.9,6.83 153.32,7.65 C151.746722,8.19194921 150.429068,9.29592967 149.62,10.75 C149.62,10.75 136.96,11.71 138.85,21.56 Z"/>
      <path fill="#000" d="M139.51,31.56 L145.9,32.47 L146.67,31.17 C144.970905,29.0948505 142.05024,28.494028 139.67,29.73 L139.51,31.56 Z" opacity=".1"/>
      <path fill="#DCE6F2" d="M137.77,34.54 L146.16,36.83 L146.38,35.57 L146.99,32.2 C146.102472,30.9250018 144.742786,30.0569509 143.212672,29.7884769 C141.682558,29.520003 140.108573,29.8733116 138.84,30.77 L138.36,32.48 L137.77,34.54 Z"/>
      <path fill="#FFCDD3" d="M275.31,27.46 L284.15,32.66 C284.15,32.66 284.52,31.95 285.04,30.98 C285.97,29.21 287.35,26.55 287.74,25.59 C288.33,24.12 292.17,22.37 292.17,22.37 C301.98,13.7 291.01,5.51 291.01,5.51 C285.51,-6.72 278.25,9.09 278.25,9.09 C278.25,9.09 277,17.52 277.63,18.09 C278.26,18.66 278.17,21 278.17,21 C277.238086,22.6248819 276.442043,24.3239973 275.79,26.08 C275.48,26.91 275.31,27.46 275.31,27.46 Z"/>
      <path fill="#000" d="M275.31,27.46 L284.15,32.66 C284.15,32.66 284.52,31.95 285.04,30.98 C283.8,29.87 279.42,25.98 277.93,26.14 C277.218449,26.2113116 276.501551,26.2113116 275.79,26.14 C275.48,26.91 275.31,27.46 275.31,27.46 Z" opacity=".1"/>
      <path fill="#DCE6F2" d="M274.28,30.13 L284.28,35.52 L284.56,33.34 L284.76,31.84 C284.76,31.84 279.08,26.58 277.34,26.7 C276.452589,26.7891743 275.557018,26.7521394 274.68,26.59 L274.5,28.41 L274.28,30.13 Z"/>
      <path fill="#FFCDD3" d="M162.02,59.8 C162.02,59.8 206.09,66.5 197.92,63.5 C192.23,61.4 190.08,57.65 189.76,53.57 C189.650369,50.0692567 190.3341,46.5890672 191.76,43.39 C192.917664,40.6404923 194.348155,38.0140165 196.03,35.55 C196.03,35.55 162.91,15.64 169.03,32.82 C169.975724,35.4188847 170.51866,38.1470537 170.64,40.91 C170.736103,43.6523974 170.33636,46.3896208 169.46,48.99 C168.022967,53.2098034 165.448297,56.9506877 162.02,59.8 Z"/>
      <path fill="#000" d="M169.07,32.82 C170.015724,35.4188847 170.55866,38.1470537 170.68,40.91 C173.76,43.7 177.26,43.66 181.75,43.83 C185.2,43.97 188.98,44.95 191.75,43.39 C192.907664,40.6404923 194.338155,38.0140165 196.02,35.55 C196.02,35.55 162.95,15.64 169.07,32.82 Z" opacity=".1"/>
      <circle cx="183.01" cy="26.73" r="18.31" fill="#FFCDD3"/>
      <path fill="#000" d="M162.02 59.8C162.02 59.8 206.09 66.5 197.92 63.5 192.23 61.4 190.08 57.65 189.76 53.57 187.65 51.1 183.29 49.21 180.48 48.18 177.921548 47.2164324 175.128693 47.0628253 172.48 47.74 171.423624 48.0058261 170.412591 48.4270896 169.48 48.99 168.037408 53.2121392 165.455646 56.9532708 162.02 59.8zM137.77 34.54L146.16 36.83 146.38 35.57C144.629092 32.959374 141.431195 31.7241862 138.38 32.48L137.77 34.54zM274.28 30.13L284.28 35.52 284.56 33.34C281.318616 31.4658589 277.942689 29.8347177 274.46 28.46L274.28 30.13zM140.22 170.64C157.22 174.01 181.52 178.47 185.43 177.44 188.68 176.59 198.93 177.09 207.84 177.74 207.94 173.26 207.98 170.3 207.98 170.3L141.81 160.82C141.579864 164.13489 141.047656 167.421857 140.22 170.64z" opacity=".1"/>
      <path fill="#656691" d="M123.29,165.96 C123.29,165.96 179.35,177.82 185.48,176.21 C191.61,174.6 222.63,177.79 222.63,177.79 C236.26,187.71 230.95,173.65 230.95,173.65 C230.95,173.65 232.46,166.47 230.95,160.56 C229.98288,156.231097 229.37746,151.829259 229.14,147.4 C229.14,147.4 229.81,138.18 228.2,135.97 C226.59,133.76 225.2,118.29 225.2,118.29 C225.2,118.29 224.07,107.78 224.31,105.48 C224.55,103.18 224.19,96.69 224.19,96.69 L222.6,85.85 C234.19,84.76 270.08,64.58 270.08,64.58 C272.08,57.42 285.77,41 285.77,41 C286.015624,39.5849003 286.431999,38.2048204 287.01,36.89 C288.01,34.47 274.38,29.02 274.38,29.02 C274.38,29.02 263.57,41.23 261.33,44.53 C259.09,47.83 251.42,53.85 251.42,53.85 C250.277897,53.6909357 249.114504,53.7970097 248.02,54.16 L247.84,54.16 C245.340809,55.0457216 242.983019,56.2886137 240.84,57.85 C237.375879,57.6338578 233.96303,58.7702789 231.32,61.02 C231.32,61.02 225.05,59.86 223.94,60.89 C222.83,61.92 217.48,60.64 217.48,60.64 C217.48,60.64 212.48,49.06 208.87,52.23 C205.26,55.4 190.2,54.67 190.2,54.67 C188.31,51.93 183.51,49.84 180.51,48.74 C177.952636,47.7712809 175.158177,47.6175856 172.51,48.3 C171.360894,48.5826326 170.268516,49.0594914 169.28,49.71 L159.84,58.27 C159.84,58.27 157.35,54.79 157.69,54.03 C158.03,53.27 154.69,52.53 154.69,52.53 C154.69,52.53 150.28,50.97 148.61,50.45 C146.94,49.93 145.31,51.69 145.17,51.85 C145.933457,49.6919561 146.273006,47.4067901 146.17,45.12 C145.82,42.18 148.22,39.65 148.22,39.65 C143.35,26.22 130.78,36.83 130.78,36.83 C130.78,36.83 129.11,44 130.24,46.83 C131.37,49.66 128.68,55.39 128.92,56.94 C129.16,58.49 128.15,61.07 128.04,63.99 C127.93,66.91 129.25,72.51 130.04,74.99 C130.83,77.47 138.04,83.31 138.04,83.31 C138.04,83.31 138.17,92.09 141.2,97.31 C144.23,102.53 141.57,119.81 141.57,119.81 C141.57,119.81 137.97,133.22 133.96,137.38 C129.95,141.54 123.29,165.96 123.29,165.96 Z"/>
      <path fill="#000" d="M209.45 67.94C209.45 67.94 211.34 62.94 212.89 62.53 214.443712 62.0253942 215.960665 61.4139353 217.43 60.7L216.51 58.77C216.51 58.77 210.67 60.14 209.69 61.77 208.71 63.4 209.45 67.94 209.45 67.94zM240.79 57.91C241.04 59.46 254.67 61.37 254.67 61.37L248.02 54.16 247.85 54.16C245.3264 55.0590554 242.947887 56.32243 240.79 57.91z" opacity=".1"/>
      <circle cx="281.2" cy="38.32" r="1.23" fill="#575988"/>
      <circle cx="279.53" cy="40.72" r="1.23" fill="#575988"/>
      <circle cx="277.9" cy="42.93" r="1.23" fill="#575988"/>
      <circle cx="276.2" cy="45.33" r="1.23" fill="#575988"/>
      <circle cx="131.25" cy="39.62" r="1" fill="#575988"/>
      <circle cx="131.01" cy="41.88" r="1" fill="#575988"/>
      <circle cx="130.78" cy="44.14" r="1" fill="#575988"/>
      <path fill="#000" d="M207.77 109.61C207.92 109.44 171.57 151.88 145.63 125.55 145.63 125.55 187.93 132.95 207.77 109.61zM226.81 133.14C226.81 133.14 206.04 132.91 203.64 138.79L203.4 145C204.575654 145.709145 206.032859 145.765772 207.26 145.15 209.4 144.1 222.18 138.21 226.49 141.45L226.81 133.14z" opacity=".1"/>
      <path fill="#656691" d="M226.42,133.12 C226.42,133.12 206.57,132.9 204.27,138.51 L204.04,144.43 C205.163121,145.111329 206.558482,145.16427 207.73,144.57 C209.73,143.57 222,137.96 226.12,141.04 L226.42,133.12 Z"/>
      <path fill="#000" d="M217.22 87.66C214.908459 92.4806404 212.031573 97.0091353 208.65 101.15 204.954592 105.729122 200.536501 109.674329 195.57 112.83 195.57 112.83 216.76 90.46 217.22 87.66zM224.93 63.82C224.93 63.82 220.93 78.63 211.78 83.36L224.93 63.82zM230.18 65.53C230.28 65.26 232.8 77.47 217.97 83.6 217.97 83.6 224.24 81.73 230.18 65.53zM139.99 52.03C140.22 52.03 132.62 56.48 130.52 58.59 130.57 58.59 135.62 51.55 139.99 52.03z" opacity=".1"/>
      <path fill="#2D293D" d="M187.32,43.51 C187.132433,44.4803525 186.586148,45.3444112 185.79,45.93 C185.242758,46.169748 184.64637,46.2760009 184.05,46.24 C178.46,46.38 172.64,46.4 167.57,44.05 C166.621287,43.673259 165.779875,43.0688166 165.12,42.29 C164.24,41.13 164.12,39.6 163.81,38.18 C163.19,35.42 161.74,32.93 160.73,30.28 C159.029196,25.8184742 158.589801,20.9747525 159.46,16.28 C159.660392,14.8447442 160.190962,13.4755306 161.01,12.28 C162.57,10.23 165.3,9.48 167.32,7.87 C169.34,6.26 170.7,3.74 173.04,2.56 C175.14,1.5 177.65,1.73 179.96,2.22 C184.494539,3.17038405 188.805368,4.97957466 192.66,7.55 C193.95,8.42 195.37,9.41 196.91,9.18 C198.230057,8.81362787 199.38219,8.00077327 200.17,6.88 C201.160321,9.42293365 201.523898,12.1669074 201.23,14.88 C201.159901,15.2769288 201.159901,15.6830712 201.23,16.08 C201.400797,16.5684358 201.673493,17.0149751 202.03,17.39 C203.34,19.04 204.11,21.6 202.69,23.16 C202.07,23.84 201.14,24.16 200.54,24.89 C199.46,26.13 199.73,27.99 199.69,29.64 C199.72629,30.2135878 199.563839,30.7821634 199.23,31.25 C198.599,31.7842805 197.736675,31.9544763 196.95,31.7 C196.178685,31.4371532 195.363238,31.3284269 194.55,31.38 C193.682332,31.6295119 192.924592,32.1652166 192.4,32.9 C189.69,36.04 188.57,39.61 187.32,43.51 Z"/>
      <g fill="#000" opacity=".1" transform="translate(164 6)">
        <path d="M.57 34.85C1.22642319 35.6349297 2.06860569 36.2433636 3.02 36.62 8.09 38.97 13.91 38.94 19.5 38.81 20.0974659 38.8476394 20.6950185 38.7377446 21.24 38.49 22.0377265 37.9102843 22.5847878 37.0485733 22.77 36.08 24 32.17 25.14 28.61 27.85 25.43 28.3729659 24.6914822 29.1308976 24.1521169 30 23.9 30.8130551 23.8534797 31.6275373 23.9620773 32.4 24.22 33.1863071 24.4805267 34.0516398 24.3097374 34.68 23.77 35.0146254 23.3063364 35.1772787 22.740586 35.14 22.17 35.14 20.52 34.91 18.66 35.99 17.41 36.59 16.72 37.52 16.41 38.14 15.69 38.9600771 14.6512884 39.1479693 13.247849 38.63 12.03 39.55 13.62 39.9 15.63 38.7 16.94 38.08 17.62 37.16 17.94 36.55 18.67 35.47 19.91 35.75 21.77 35.71 23.42 35.7476264 23.9952482 35.5812017 24.5653413 35.24 25.03 34.6098687 25.5660811 33.7465562 25.7364718 32.96 25.48 32.1921334 25.2171818 31.3799592 25.1084388 30.57 25.16 29.6972295 25.4100894 28.9355007 25.9496474 28.41 26.69 25.71 29.86 24.57 33.43 23.33 37.33 23.2947449 38.1387493 22.9219052 38.895637 22.3022037 39.4164905 21.6825021 39.9373439 20.872756 40.1744087 20.07 40.07 14.48 40.2 8.66 40.22 3.58 37.87 2.63207519 37.4918186 1.79098871 36.8876095 1.13 36.11.79993438 35.653409.552829635 35.1422746.4 34.6.449713026 34.6878555.506571568 34.771471.57 34.85zM37.19 9.56C36.9419128 9.27119818 36.7639464 8.92895507 36.67 8.56 36.5999007 8.1630712 36.5999007 7.7569288 36.67 7.36 36.9115679 5.12215864 36.7076466 2.85863285 36.07.7L36.17.59C37.1687263 3.1308058 37.5359011 5.87603778 37.24 8.59 37.1943907 8.91119054 37.1776571 9.23582224 37.19 9.56z"/>
      </g>
      <path fill="#000" d="M190.15 54.73C190.15 54.73 167.15 56.88 165.25 53.36M146.08 43.56C146.08 43.56 133.37 43.09 130.4 47.74" opacity=".1"/>
    </g>
  </g>
</svg>
