<svg xmlns="http://www.w3.org/2000/svg" viewBox="0 0 512.0015 512">
  <path d="M200.004 0c-4.8204 0-9.34 2.3203-12.1602 6.2266s-3.5899 8.9336-2.0743 13.5078c.3946 1.1836 38.6797 119.3203-17.5898 175.586l-21.211 21.2148c-25.6132 25.6132-28.793 65.289-9.543 94.3945L13.1603 435.1992c-17.547 17.5469-17.547 46.0938 0 63.6406s46.0937 17.547 63.6406 0L201.0625 374.582c28.8242 19.1407 68.504 16.3516 94.4023-9.5468l21.2149-21.2149c56.2969-56.293 174.4062-17.9766 175.5976-17.586 4.5704 1.5157 9.5977.7462 13.504-2.0741A14.9973 14.9973 0 0 0 512 312c0-83.3398-32.4531-161.6875-91.379-220.6172C361.6876 32.4531 283.3399 0 200.004 0zM55.586 477.629c-5.8477 5.8476-15.3633 5.8476-21.211 0-5.8516-5.8517-5.8516-15.3673 0-21.215l123.1992-123.203c3.7852 3.789 10.8125 10.8124 21.2149 21.2148zM274.25 343.8202c-17.582 17.582-46.0469 17.5899-63.6367.004 0-.004-.004-.004-.004-.004l-42.4296-42.4297c-17.543-17.5469-17.543-46.0937 0-63.6406l10.6094-10.6055 106.0703 106.0703zm32.5117-31.1328L199.3164 205.2422c42.1563-54.5977 29.6016-136.5977 20.5625-174.5469 20.289 1.418 39.9883 5.0078 58.879 10.5117l-7.836 31.336c-3.375 13.4922-7.6992 26.8867-12.8594 39.8047-3.0742 7.6914.6719 16.4218 8.3672 19.496 7.7226 3.082 16.4336-.703 19.4922-8.3671 5.6601-14.172 10.4062-28.8594 14.1054-43.6563l7.1641-28.6523c30.0195 12.3789 57.4414 29.8086 81.2227 51.203l-52.7149 52.7188c-5.8594 5.8555-5.8594 15.3555 0 21.211 5.8555 5.8594 15.3555 5.8594 21.2149 0l52.7148-52.7149c21.3984 23.7852 38.8242 51.2032 51.207 81.2227-21.1562 5.6797-41.9257 9.1328-72.3086 21.2695-7.6953 3.0742-11.4414 11.8008-8.3671 19.4961 3.0625 7.668 11.7812 11.4453 19.496 8.3633 28.297-11.3008 47.3516-14.3477 71.1407-20.6914 5.5039 18.8867 9.0898 38.586 10.5117 58.875-37.9492-9.039-119.9531-21.5938-174.5469 20.5664zm0 0"/>
</svg>
