<?xml version="1.0" encoding="utf-8"?>
<!-- Generator: Adobe Illustrator 23.0.0, SVG Export Plug-In . SVG Version: 6.00 Build 0)  -->
<svg version="1.1" id="Ebene_1" xmlns="http://www.w3.org/2000/svg" xmlns:xlink="http://www.w3.org/1999/xlink" x="0px" y="0px"
	 viewBox="0 0 351.9 306.2" style="enable-background:new 0 0 351.9 306.2;" xml:space="preserve">
<style type="text/css">
	.st0{fill:none;stroke:#02173E;stroke-width:11;}
	.st1{fill:#02173E;}
</style>
<path class="st0" d="M90.6,5.7l170.2,0.1l85.1,147.5l-85.1,147.4l-170.2-0.1L5.5,153.2L90.6,5.7z"/>
<path class="st1" d="M174.5,200.5v52.6h-19.8v-36.2H83.3v-11.8l70.2-108.4h21V200.5z M106,200.5h48.6V124l-2.3,4.3L106,200.5z
	 M265.1,216.9l-0.9-16.4h-79.9l43.4-48.9c19.8-21.3,25.6-39.1,25.6-54.6c0-13.2-6.9-23.3-12.4-29.3c-5.5-5.8-15.5-11.5-30.8-12.7
	c-15.2-1.2-28.5,7.2-35.7,12.9s-11.8,14.1-21,28.8h21c0-10.1,3.2-13.2,10.6-18.7c7.5-5.5,18.7-6.9,25.9-6c8.3,1.2,13.5,4.3,18.4,9.5
	c4.9,5.2,6.6,9.8,6.6,17.8c0,6-2,13.2-5.2,19c-2.9,5.8-6,11.5-14.1,20.7l-42.3,48v29.9H265.1L265.1,216.9z"/>
</svg>
