<svg xmlns="http://www.w3.org/2000/svg" style="display: none;">
    <symbol id="home" viewBox="0 0 512 512">
        <path d="M506.555,208.064L263.859,30.367c-4.68-3.426-11.038-3.426-15.716,0L5.445,208.064 c-5.928,4.341-7.216,12.665-2.875,18.593s12.666,7.214,18.593,2.875L256,57.588l234.837,171.943c2.368,1.735,5.12,2.57,7.848,2.57 c4.096,0,8.138-1.885,10.744-5.445C513.771,220.729,512.483,212.405,506.555,208.064z"/>
        <path d="M442.246,232.543c-7.346,0-13.303,5.956-13.303,13.303v211.749H322.521V342.009c0-36.68-29.842-66.52-66.52-66.52 s-66.52,29.842-66.52,66.52v115.587H83.058V245.847c0-7.347-5.957-13.303-13.303-13.303s-13.303,5.956-13.303,13.303v225.053 c0,7.347,5.957,13.303,13.303,13.303h133.029c6.996,0,12.721-5.405,13.251-12.267c0.032-0.311,0.052-0.651,0.052-1.036v-128.89 c0-22.009,17.905-39.914,39.914-39.914s39.914,17.906,39.914,39.914v128.89c0,0.383,0.02,0.717,0.052,1.024 c0.524,6.867,6.251,12.279,13.251,12.279h133.029c7.347,0,13.303-5.956,13.303-13.303V245.847 C455.549,238.499,449.593,232.543,442.246,232.543z"/>
    </symbol>

    <symbol id="logo_bw" viewBox="0 0 302 349">
        <path d="M151 2l149.2 86.2v172.4L151 346.8 1.8 260.6V88.2L151 2z" stroke="#02173e" stroke-width="3"/>
        <path d="M226.9 104.1L75.2 244.6" fill="#fff" stroke="#fff"/>
        <path class="st2" d="M195.1 230.7V249h-6.9v-12.6h-24.8v-4.1l24.4-37.7h7.3z"/>
        <path d="M171.3 230.7h16.9v-26.6l-.8 1.5z"/>
        <path class="st2"
              d="M226.6 236.4h-31.5V226l14.7-16.7c2.8-3.2 3.9-5.2 4.9-7.2 1.1-2 1.8-4.5 1.8-6.6 0-2.8-.6-4.4-2.3-6.2s-3.5-2.9-6.4-3.3c-2.5-.3-6.4.2-9 2.1-2.6 1.9-3.8 3.1-3.8 6.6h-7.4c3.2-5.1 5-8.1 7.5-10.1s7.1-4.9 12.4-4.5c5.3.4 8.8 2.4 10.7 4.4 1.9 2.1 4.3 5.6 4.3 10.2 0 5.4-2 11.6-8.9 19l-15.1 17h27.8l.3 5.7zM72.8 111.2c-2.8-.5-5.1-.7-6.9-.7-4.6 0-6.9 2.4-6.9 7.2v3.7h8v4.9h-8v32.3h-6.4v-32.3h-5.9v-4.9h5.9v-4.1c0-4 1.1-7 3.3-9.1s5.3-3.2 9.4-3.2c2.3 0 6.9.7 13.8 2.1v51.4h-6.4v-47.3h.1zM112.6 158.6c-.4-.7-.7-2-.9-3.9-3 3.1-6.5 4.6-10.6 4.6-3.7 0-6.7-1-9-3.1-2.4-2.1-3.5-4.7-3.5-7.9 0-3.9 1.5-6.9 4.4-9s7.1-3.2 12.4-3.2h6.2v-2.9c0-2.2-.7-4-2-5.3s-3.3-2-5.9-2c-2.3 0-4.2.6-5.7 1.7s-2.3 2.5-2.3 4.2h-6.4c0-1.9.7-3.6 2-5.4 1.3-1.7 3.1-3.1 5.4-4.1s4.7-1.5 7.5-1.5c4.3 0 7.7 1.1 10.1 3.2s3.7 5.1 3.8 8.8v17.1c0 3.4.4 6.1 1.3 8.1v.6h-6.8z"/>
        <path d="M102.1 154.7c2 0 3.9-.6 5.7-1.7 1.8-1.1 3.1-2.5 3.9-4.3v-8.2h-5c-7.8 0-11.8 2.4-11.8 7.3 0 2.1.7 3.8 2 5 1.4 1.3 3.1 1.9 5.2 1.9z"/>
        <path class="st2"
              d="M136.6 112.4v9h7v4.9h-7v23c0 1.5.3 2.6.9 3.4.6.7 1.7 1.1 3.2 1.1.7 0 1.7-.1 3-.4v5.2c-1.7.5-3.3.7-4.9.7-2.8 0-5-.9-6.4-2.6-1.4-1.7-2.2-4.2-2.2-7.3v-23h-6.8v-4.9h6.8v-9l6.4-.1z"/>
    </symbol>

    <symbol id="logo" viewBox="0 0 350.4 304.6">
        <style>
            .st2{fill:#13a399}
        </style>
        <path fill="none" stroke="#13a399" stroke-width="10" d="M90.4 5.4l169.6.1 84.8 146.9-84.7 146.9-169.6-.1L5.7 152.3 90.4 5.4z"/>
        <path stroke="#13a399" stroke-width="8" d="M250.8 81.9L99.1 222.4"/>
        <path d="M211.7 172.4l-24.4 37.7v4.1h24.8v12.6h6.9V172.4h-7.3zm.4 36.1h-16.9l16.1-25.1.8-1.5v26.6z" class="st2"/>
        <path d="M250.5 214.2H219v-10.4l14.7-16.7c2.8-3.2 3.9-5.2 4.9-7.2 1.1-2 1.8-4.5 1.8-6.6 0-2.8-.6-4.4-2.3-6.2s-3.5-2.9-6.4-3.3c-2.5-.3-6.4.2-9 2.1-2.6 1.9-3.8 3.1-3.8 6.6h-7.4c3.2-5.1 5-8.1 7.5-10.1s7.1-4.9 12.4-4.5c5.3.4 8.8 2.4 10.7 4.4 1.9 2.1 4.3 5.6 4.3 10.2 0 5.4-2 11.6-8.9 19l-15.1 17h27.8l.3 5.7zM96.7 89c-2.8-.5-5.1-.7-6.9-.7-4.6 0-6.9 2.4-6.9 7.2v3.7h8v4.9h-8v32.3h-6.4v-32.3h-5.9v-4.9h5.9v-4.1c0-4 1.1-7 3.3-9.1 2.2-2.1 5.3-3.2 9.4-3.2 2.3 0 6.9.7 13.8 2.1v51.4h-6.4V89h.1zM142 127.7v-17.1c-.1-3.7-1.4-6.7-3.8-8.8-2.4-2.1-5.8-3.2-10.1-3.2-2.8 0-5.2.5-7.5 1.5s-4.1 2.4-5.4 4.1c-1.3 1.8-2 3.5-2 5.4h6.4c0-1.7.8-3.1 2.3-4.2 1.5-1.1 3.4-1.7 5.7-1.7 2.6 0 4.6.7 5.9 2 1.3 1.3 2 3.1 2 5.3v2.9h-6.2c-5.3 0-9.5 1.1-12.4 3.2-2.9 2.1-4.4 5.1-4.4 9 0 3.2 1.1 5.8 3.5 7.9 2.3 2.1 5.3 3.1 9 3.1 4.1 0 7.6-1.5 10.6-4.6.2 1.9.5 3.2.9 3.9h6.8v-.6c-.9-2-1.3-4.7-1.3-8.1zm-6.4-1.2c-.8 1.8-2.1 3.2-3.9 4.3-1.8 1.1-3.7 1.7-5.7 1.7-2.1 0-3.8-.6-5.2-1.9-1.3-1.2-2-2.9-2-5 0-4.9 4-7.3 11.8-7.3h5v8.2zM160.5 90.2v9h7v4.9h-7v23c0 1.5.3 2.6.9 3.4.6.7 1.7 1.1 3.2 1.1.7 0 1.7-.1 3-.4v5.2c-1.7.5-3.3.7-4.9.7-2.8 0-5-.9-6.4-2.6-1.4-1.7-2.2-4.2-2.2-7.3v-23h-6.8v-4.9h6.8v-9l6.4-.1z" class="st2"/>
    </symbol>

    <symbol id="chat" viewBox="0 0 60 60">
        <path d="M10 25.465h13c.553 0 1-.448 1-1s-.447-1-1-1H10c-.553 0-1 .448-1 1s.447 1 1 1zM36 29.465H10c-.553 0-1 .448-1 1s.447 1 1 1h26c.553 0 1-.448 1-1s-.447-1-1-1zM36 35.465H10c-.553 0-1 .448-1 1s.447 1 1 1h26c.553 0 1-.448 1-1s-.447-1-1-1z"/>
        <path d="M54.072 2.535l-34.142-.07c-3.27 0-5.93 2.66-5.93 5.93v5.124l-8.07.017c-3.27 0-5.93 2.66-5.93 5.93v21.141c0 3.27 2.66 5.929 5.93 5.929H12v10c0 .413.254.784.64.933.117.045.239.067.36.067.276 0 .547-.115.74-.327l9.704-10.675 16.626-.068c3.27 0 5.93-2.66 5.93-5.929v-.113l5.26 5.786c.193.212.464.327.74.327.121 0 .243-.022.36-.067.386-.149.64-.52.64-.933v-10h1.07c3.27 0 5.93-2.66 5.93-5.929V8.465c0-3.269-2.659-5.929-5.928-5.93zM44 40.536c0 2.167-1.763 3.929-3.934 3.929l-17.07.07c-.28.001-.548.12-.736.327L14 53.949v-8.414c0-.552-.447-1-1-1H5.93c-2.167 0-3.93-1.763-3.93-3.929V19.465c0-2.167 1.763-3.93 3.932-3.93L15 15.516h.002l25.068-.052c2.167 0 3.93 1.763 3.93 3.93v21.142zm14-10.93c0 2.167-1.763 3.929-3.93 3.929H52c-.553 0-1 .448-1 1v8.414l-5-5.5V19.395c0-3.27-2.66-5.93-5.932-5.93L16 13.514v-5.12c0-2.167 1.763-3.93 3.928-3.93l34.141.07h.002c2.167 0 3.93 1.763 3.93 3.93v21.142z"/>
    </symbol>

    <symbol id="edit" viewBox="0 0 401.5 401">
        <path d="M370.589844 250.972656c-5.523438 0-10 4.476563-10 10v88.789063c-.019532 16.5625-13.4375 29.984375-30 30H50c-16.5625-.015625-29.980469-13.4375-30-30V89.171875c.019531-16.558594 13.4375-29.980469 30-30h88.789062c5.523438 0 10-4.476563 10-10 0-5.519531-4.476562-10-10-10H50c-27.601562.03125-49.96875 22.398437-50 50v260.59375c.03125 27.601563 22.398438 49.96875 50 50h280.589844c27.601562-.03125 49.96875-22.398437 50-50v-88.792969c0-5.523437-4.476563-10-10-10zm0 0"/>
        <path d="M376.628906 13.441406c-17.574218-17.574218-46.066406-17.574218-63.640625 0l-178.40625 178.40625c-1.222656 1.222656-2.105469 2.738282-2.566406 4.402344l-23.460937 84.699219c-.964844 3.472656.015624 7.191406 2.5625 9.742187 2.550781 2.546875 6.269531 3.527344 9.742187 2.566406l84.699219-23.464843c1.664062-.460938 3.179687-1.34375 4.402344-2.566407L388.363281 88.816406c17.546875-17.585937 17.546875-46.054687 0-63.640625zm-220.257812 184.90625L302.382812 52.332031l47.089844 47.089844L203.457031 245.4375zm-9.40625 18.875l37.621094 37.625-52.039063 14.417969zM374.222656 74.675781L363.617188 85.28125l-47.09375-47.09375 10.609374-10.605469c9.761719-9.761719 25.589844-9.761719 35.351563 0l11.738281 11.734375c9.746094 9.773438 9.746094 25.589844 0 35.359375zm0 0"/>
    </symbol>

    <symbol id="trash" viewBox="0 0 483.4 483.4">
        <path d="M381.163 57.799h-75.094C302.323 25.316 274.686 0 241.214 0c-33.471 0-61.104 25.315-64.85 57.799h-75.098c-30.39 0-55.111 24.728-55.111 55.117v2.828c0 23.223 14.46 43.1 34.83 51.199v260.369c0 30.39 24.724 55.117 55.112 55.117h210.236c30.389 0 55.111-24.729 55.111-55.117V166.944c20.369-8.1 34.83-27.977 34.83-51.199v-2.828c0-30.39-24.723-55.118-55.111-55.118zm-139.949-31.66c19.037 0 34.927 13.645 38.443 31.66h-76.879c3.515-18.016 19.406-31.66 38.436-31.66zm134.091 401.173c0 15.978-13 28.979-28.973 28.979H136.096c-15.973 0-28.973-13.002-28.973-28.979V170.861h268.182v256.451zm34.83-311.568c0 15.978-13 28.979-28.973 28.979H101.266c-15.973 0-28.973-13.001-28.973-28.979v-2.828c0-15.978 13-28.979 28.973-28.979h279.897c15.973 0 28.973 13.001 28.973 28.979v2.828z"/>
        <path d="M171.144 422.863c7.218 0 13.069-5.853 13.069-13.068V262.641c0-7.216-5.852-13.07-13.069-13.07-7.217 0-13.069 5.854-13.069 13.07v147.154c-.001 7.217 5.851 13.068 13.069 13.068zM241.214 422.863c7.218 0 13.07-5.853 13.07-13.068V262.641c0-7.216-5.854-13.07-13.07-13.07-7.217 0-13.069 5.854-13.069 13.07v147.154c0 7.217 5.851 13.068 13.069 13.068zM311.284 422.863c7.217 0 13.068-5.853 13.068-13.068V262.641c0-7.216-5.852-13.07-13.068-13.07-7.219 0-13.07 5.854-13.07 13.07v147.154c-.001 7.217 5.853 13.068 13.07 13.068z"/>
    </symbol>

    <symbol id="cart" viewBox="0 0 511.999 511.999">
        <path d="M214.685 402.828c-24.829 0-45.029 20.2-45.029 45.029 0 24.829 20.2 45.029 45.029 45.029s45.029-20.2 45.029-45.029c-.001-24.829-20.201-45.029-45.029-45.029zm0 64.914c-10.966 0-19.887-8.922-19.887-19.887 0-10.966 8.922-19.887 19.887-19.887s19.887 8.922 19.887 19.887c0 10.967-8.922 19.887-19.887 19.887zM372.63 402.828c-24.829 0-45.029 20.2-45.029 45.029 0 24.829 20.2 45.029 45.029 45.029s45.029-20.2 45.029-45.029c-.001-24.829-20.201-45.029-45.029-45.029zm0 64.914c-10.966 0-19.887-8.922-19.887-19.887 0-10.966 8.922-19.887 19.887-19.887 10.966 0 19.887 8.922 19.887 19.887 0 10.967-8.922 19.887-19.887 19.887zM383.716 165.755H203.567c-6.943 0-12.571 5.628-12.571 12.571s5.629 12.571 12.571 12.571h180.149c6.943 0 12.571-5.628 12.571-12.571 0-6.944-5.628-12.571-12.571-12.571zM373.911 231.035H213.373c-6.943 0-12.571 5.628-12.571 12.571s5.628 12.571 12.571 12.571H373.91c6.943 0 12.571-5.628 12.571-12.571 0-6.942-5.628-12.571-12.57-12.571z"/>
        <path d="M506.341 109.744c-4.794-5.884-11.898-9.258-19.489-9.258H95.278L87.37 62.097c-1.651-8.008-7.113-14.732-14.614-17.989l-55.177-23.95c-6.37-2.767-13.773.156-16.536 6.524-2.766 6.37.157 13.774 6.524 16.537L62.745 67.17l60.826 295.261c2.396 11.628 12.752 20.068 24.625 20.068h301.166c6.943 0 12.571-5.628 12.571-12.571s-5.628-12.571-12.571-12.571H148.197l-7.399-35.916H451.69c11.872 0 22.229-8.44 24.624-20.068l35.163-170.675c1.531-7.432-.341-15.071-5.136-20.954zM451.69 296.301H135.619l-35.161-170.674 386.393.001-35.161 170.673z"/>
    </symbol>

    <symbol id="info" viewBox="0 0 437.6 437.6">
        <path d="M194 142.8c.8 1.6 1.6 3.2 2.4 4.4.8 1.2 2 2.4 2.8 3.6 1.2 1.2 2.4 2.4 4 3.6 1.2.8 2.8 2 4.8 2.4 1.6.8 3.2 1.2 5.2 1.6 2 .4 3.6.4 5.2.4s3.6 0 5.2-.4 3.2-.8 4.4-1.6h.4c1.6-.8 3.2-1.6 4.8-2.8 1.2-.8 2.4-2 3.6-3.2l.4-.4c1.2-1.2 2-2.4 2.8-3.6s1.6-2.4 2-4c0-.4 0-.4.4-.8.8-1.6 1.2-3.6 1.6-5.2.4-1.6.4-3.6.4-5.2s0-3.6-.4-5.2-.8-3.2-1.6-5.2c-1.2-2.8-2.8-5.2-4.8-7.2l-.8-.8c-1.2-1.2-2.4-2-4-3.2-1.6-.8-2.8-1.6-4.4-2.4-1.6-.8-3.2-1.2-4.8-1.6-2-.4-3.6-.4-5.2-.4s-3.6 0-5.2.4-3.2.8-4.8 1.6h-.4c-1.6.8-3.2 1.6-4.4 2.4-1.6 1.2-2.8 2-4 3.2-1.2 1.2-2.4 2.4-3.2 3.6-.8 1.2-1.6 2.8-2.4 4.4-.8 1.6-1.2 3.2-1.6 4.8-.4 2-.4 3.6-.4 5.2s0 3.6.4 5.2c.4 3.2 1.2 4.8 1.6 6.4zM249.6 289.2h-9.2v-98c0-5.6-4.4-10.4-10.4-10.4h-42c-5.6 0-10.4 4.4-10.4 10.4v21.6c0 5.6 4.4 10.4 10.4 10.4h8.4v66.4H188c-5.6 0-10.4 4.4-10.4 10.4v21.6c0 5.6 4.4 10.4 10.4 10.4h61.6c5.6 0 10.4-4.4 10.4-10.4V300c0-6-4.8-10.8-10.4-10.8z"/>
        <path d="M218.8 0C98 0 0 98 0 218.8s98 218.8 218.8 218.8 218.8-98 218.8-218.8S339.6 0 218.8 0zm0 408.8c-104.8 0-190-85.2-190-190s85.2-190 190-190 190 85.2 190 190-85.2 190-190 190z"/>
    </symbol>

    <symbol id="download" viewBox="0 0 512 512">
        <path d="M498.966 339.946c-7.197 0-13.034 5.837-13.034 13.034v49.804c0 28.747-23.388 52.135-52.135 52.135H78.203c-28.747 0-52.135-23.388-52.135-52.135V352.98c0-7.197-5.835-13.034-13.034-13.034C5.835 339.946 0 345.782 0 352.98v49.804c0 43.121 35.082 78.203 78.203 78.203h355.594c43.121 0 78.203-35.082 78.203-78.203V352.98c0-7.198-5.835-13.034-13.034-13.034z"/>
        <path d="M419.833 391.3H92.167c-7.197 0-13.034 5.837-13.034 13.034s5.835 13.034 13.034 13.034h327.665c7.199 0 13.034-5.835 13.034-13.034 0-7.197-5.835-13.034-13.033-13.034zM387.919 207.93c-4.795-5.367-13.034-5.834-18.404-1.038l-100.482 89.765V44.048c0-7.197-5.835-13.034-13.034-13.034-7.197 0-13.034 5.835-13.034 13.034v252.609l-100.482-89.764c-5.367-4.796-13.607-4.328-18.404 1.038-4.794 5.369-4.331 13.609 1.037 18.404l109.174 97.527c6.187 5.529 13.946 8.292 21.708 8.292 7.759 0 15.519-2.763 21.708-8.289l109.174-97.53c5.37-4.798 5.834-13.038 1.039-18.405z"/>
    </symbol>

    <symbol id="add" viewBox="0 0 42 42">
        <path d="M42 20H22V0h-2v20H0v2h20v20h2V22h20z"/>
    </symbol>
</svg>
