<svg xmlns="http://www.w3.org/2000/svg" viewBox="0 0 411.79 600.5">
  <defs>
    <style>
      .cls-1{fill:#a2c33d}.cls-2{fill:#598a26}.cls-19,.cls-23{stroke-miterlimit:10}.cls-4{fill:#fff}.cls-11{letter-spacing:0}.cls-19,.cls-20,.cls-27{fill:none}.cls-19{stroke:#598a26}.cls-20{stroke:#335918;stroke-width:2px}.cls-20,.cls-26,.cls-27{stroke-linecap:round;stroke-linejoin:round}.cls-22{fill:#1f3d0d}.cls-23{fill:#121e04;stroke:#121e04}.cls-24{fill:#83b036}.cls-25{fill:#e9eae8}.cls-26{stroke:#000}.cls-27{stroke:#f28e4a;stroke-width:4px}
    </style>
  </defs>
  <g id="body">
    <path d="M486.82 665.82a.71.71 0 0 0-.32-.07l-60 1c-.13 0-11.23.4-25.27.4-17.2 0-40.28-.59-52.55-3.38-20.77-4.72-55.47-24-58.58-25.8l-21.85-51.66c-.5-5.14-15.65-165.95-1-218.61a350.4 350.4 0 0 0 7.69-35.32c4.93-27.82 8.82-49.8 52.22-117.48 16.89-26.32 39.46-45.54 67.08-57.11 20-8.39 42.23-12.64 66-12.64 19.61 0 33 3 33.15 3.08.72.19 74.07 19.62 107.52 78.64S637.72 340 637.75 340.54a.8.8 0 0 0 .17.44c.14.16 13.67 17 6.86 42.33a.64.64 0 0 0 0 .2l2 143c0 .7-2.17 72.88-17.8 89.48-8.31 8.83-15.29 15.52-21.45 21.42-5.79 5.52-10.77 10.29-15.53 15.59-9.36 10.28-50.32 34.23-54.49 36.65z" class="cls-1" transform="translate(-235.71 -107.5)"/>
    <path d="M460.18 145.9a163.56 163.56 0 0 1 32.95 3A204.83 204.83 0 0 1 534 165.82c20.58 11.08 48.77 30.74 66.16 61.42 33.41 59 36.77 112.81 36.8 113.34a1.51 1.51 0 0 0 .34.87c.14.17 13.43 16.7 6.71 41.66a1.84 1.84 0 0 0 0 .41l2 143c0 1.8-2.28 72.71-17.59 89-8.3 8.82-15.27 15.5-21.43 21.4-5.77 5.53-10.76 10.31-15.59 15.62-9.07 10-48.31 33-54 36.32l-50.29-23.67a1.57 1.57 0 0 0-.64-.14l-60 1c-.11 0-11.21.4-25.23.4-17.16 0-40.18-.59-52.39-3.36-20.25-4.6-53.9-23.22-58.15-25.6L269 586.13c-.67-7-15.53-166-1-218.23a352.18 352.18 0 0 0 7.7-35.39c4.91-27.74 8.79-49.65 52.11-117.2 16.8-26.2 39.26-45.32 66.74-56.83 19.94-8.35 42-12.58 65.68-12.58m0-1.5c-36.66 0-95.46 10.5-133.68 70.1-59 92-45 99-60 153s1 219 1 219l22 52s37 21 59 26c12.22 2.78 34.94 3.4 52.72 3.4 14.22 0 25.28-.4 25.28-.4l60-1 51 24s45-26 55-37 21-20 37-37 18-90 18-90l-2-143c7-26-7-43-7-43s-3-54-37-114-108-79-108-79-13.38-3.1-33.32-3.1z" class="cls-2" transform="translate(-235.71 -107.5)"/>
    <path fill="#498d28" stroke="#498d28" stroke-miterlimit="10" d="M373.5 513.5l-8 16s-11 17-3 41 58 38 58 38a159.4 159.4 0 0 0 34 2c18-1 46-19 46-19s11-22 5-56-12-60-12-60l-11-94-3-10s-2-15-33-15c-23 0-25 4-32 12-13.5 15.44-41 145-41 145z" transform="translate(-235.71 -107.5)"/>
    <path d="M345 531v-45.75a31.19 31.19 0 0 0 5.31-6.86A46.52 46.52 0 0 0 356.5 457c1.88-15-9.84-25.38-11.5-26.77V372l230-7-.5 62.61c-1.8.57-9.8 3.47-17.86 12-5.08 5.44-11.14 14.39-11.14 26.39 0 29 26.19 33.88 30 34.44L575 541z" class="cls-4" transform="translate(-235.71 -107.5)"/>
    <path d="M574.49 365.53l-.49 61.74c-2.37.8-10 3.87-17.74 12-5.13 5.5-11.26 14.56-11.26 26.73 0 16.47 8.42 25.12 15.48 29.48a40.61 40.61 0 0 0 14.52 5.39l-.48 39.59-229-9.92v-45.07c1.89-1.79 10.57-10.93 11.5-28.38 1.85-15-9.22-25.15-11.5-27.07v-57.55l229-6.94m1-1l-231 7v59S358 441 356 457c-1 19-11.5 28-11.5 28v46.5l231 10 .5-41.5s-30-3-30-34c0-11.51 5.76-20.43 11-26 9-9.52 18-12 18-12l.5-63.5z" transform="translate(-235.71 -107.5)"/>
    <text font-family="MyriadPro-Regular,Myriad Pro" font-size="36" transform="translate(131.03 312.07)">
      <tspan letter-spacing=".01em">S</tspan><tspan x="17.96" y="0">o</tspan><tspan x="37.73" y="0" letter-spacing="0">r</tspan><tspan x="49.64" y="0" letter-spacing=".02em">r</tspan><tspan x="62.32" y="0" letter-spacing="-.04em">y</tspan><tspan x="77.87" y="0">...</tspan><tspan font-size="24"><tspan x="0" y="28.8">I </tspan><tspan x="10.82" y="28.8" class="cls-11">a</tspan><tspan x="22.3" y="28.8" letter-spacing="-.01em">t</tspan><tspan x="30.1" y="28.8">e </tspan><tspan x="47.21" y="28.8" letter-spacing="-.01em">y</tspan><tspan x="58.27" y="28.8">our pag</tspan><tspan x="136.25" y="28.8" letter-spacing="-.01em">e</tspan><tspan x="147.98" y="28.8">.</tspan><tspan x="0" y="57.6" letter-spacing=".02em">I</tspan><tspan x="6.12" y="57.6">t </tspan><tspan x="19.15" y="57.6" class="cls-11">w</tspan><tspan x="36.72" y="57.6" letter-spacing="0">as yum</tspan><tspan x="107.42" y="57.6" letter-spacing="-.01em">m</tspan><tspan x="127.13" y="57.6" letter-spacing="-.04em">y</tspan><tspan x="137.5" y="57.6">.</tspan></tspan>
    </text>
    <path d="M86.29 463.5l23 43" class="cls-19"/>
    <path d="M285.5 341.5s-7 40-10 48-8 43-8 43-5 37 11 51 45 10 45 10 23-2 29-20 4-22 4-22 0-12-12-21-23-10-23-10M551 351s-3 6-3 12M513 326c1 0 9 5 13 13M385 266s7 7 10 13M383 339c9-10 14-16 14-16M623 368c10 9 15 23 15 23l6-5M590 421s-21 6-33 19c-9.78 10.6-11 18-11 26s3 26 21 32c0 0 20 7 33 7 16 0 19 0 29-9 14.75-13.28 15-43 15-43M544 593c15-12 16-13 16-13" class="cls-20" transform="translate(-235.71 -107.5)"/>
    <path d="M97.29 480.5l12-11" class="cls-20"/>
    <path d="M299.29 466.5l18 40" class="cls-19"/>
  </g>
  <g id="ohren">
    <path d="M365.35 172c1.77-31.85-22-57.78-28-63.78h18.07c1.3.3 18.19 4.22 26.66 9.87 8.66 5.77 13.64 26.35 13.69 26.55a.58.58 0 0 0 .06.17l4.56 9.11c-10.83 2.39-29.9 14.7-35.04 18.08z" class="cls-1" transform="translate(-235.71 -107.5)"/>
    <path d="M355.33 109c1.78.41 18.11 4.26 26.34 9.75 8.4 5.6 13.32 25.89 13.37 26.1a1.75 1.75 0 0 0 .12.32l4.13 8.27c-10.31 2.66-26.84 13-33.12 17.15.57-18.28-7.07-34.32-13.78-44.78A111.46 111.46 0 0 0 339.16 109h16.17m.17-1.5h-20s32 29 29 66c0 0 25-17 37-19l-5-10s-5-21-14-27-27-10-27-10z" class="cls-2" transform="translate(-235.71 -107.5)"/>
    <path d="M529.41 164.37c-19.94-10.9-35.62-15.37-35.78-15.37s-13.69-3.4-33.45-3.4a167.63 167.63 0 0 0-40.84 4.94c2.89-4.26 14.37-20 29.11-24.23l-10.38 17.56a.5.5 0 0 0 0 .5.47.47 0 0 0 .43.25h12a.53.53 0 0 0 .27-.08c.07 0 6.91-4.36 9.73-4.36.71 0 .9.29 1 .39.51.8-.15 2.66-.42 3.25a.5.5 0 0 0 .45.71h24.2l-.44.24c-.53.29-.74.63-.65 1s.26 1 4.89 1a.59.59 0 0 0 .26-.07c5.61-3.43 17.05-9.9 20.22-9.9a1.07 1.07 0 0 1 .35.05c.12 0 .13.09.14.14.31 1.51-5.26 7.44-9.31 11.18a.51.51 0 0 0 .13.82l7 3.27a.52.52 0 0 0 .21 0h.16c.4-.14 9.27-3.2 11.79-4.42a48.9 48.9 0 0 1-3.4 8 .5.5 0 0 0 0 .49.49.49 0 0 0 .42.24 64.47 64.47 0 0 0 17.15-3.38 13.16 13.16 0 0 1 3.6-.79c.41 0 .7.08.75.21.24.59-1.28 2.6-2.85 4.1z" class="cls-1" transform="translate(-235.71 -107.5)"/>
    <path d="M447.36 127.16l-9.72 16.43a1 1 0 0 0 .86 1.51h12a1 1 0 0 0 .5-.1c1.88-1.2 7.24-4.29 9.46-4.29.2 0 .46 0 .55.16.28.43 0 1.81-.46 2.78a1 1 0 0 0 .91 1.41h22.74a1.13 1.13 0 0 0-.11.87c.08.33.19.75 1.29 1.05a170.28 170.28 0 0 0-25.24-1.85 168.49 168.49 0 0 0-39.68 4.64 82.71 82.71 0 0 1 7.34-9c4.54-4.83 11.47-10.88 19.52-13.57M510 137.31c-.36 1.48-4.37 6.1-9.14 10.5a1 1 0 0 0-.31.89 1 1 0 0 0 .57.75l7 3.27a1 1 0 0 0 .42.09 1 1 0 0 0 .33-.05c.35-.12 7.5-2.59 10.84-4a68.89 68.89 0 0 1-3.06 6.87 1 1 0 0 0 .89 1.45 63.44 63.44 0 0 0 17.3-3.41 12.1 12.1 0 0 1 3.45-.76h.24a12 12 0 0 1-2.69 3.44l-.06.06-6.45 7.32c-19.82-10.79-35.37-15.2-35.56-15.25s-2.45-.61-6.66-1.3c.65.06 1.44.09 2.42.09a1 1 0 0 0 .52-.15c6.46-3.93 17.07-9.79 19.94-9.82M449.5 125.5zm0 0c-18 4.36-31.28 25.82-31.28 25.82a167.23 167.23 0 0 1 42-5.24c19.93 0 33.32 3.38 33.32 3.38s15.73 4.4 36 15.54l7-7.92s5.43-5.17 1.76-5.17a13.44 13.44 0 0 0-3.76.81 63.12 63.12 0 0 1-17 3.36s4.49-8.88 3.26-8.88a.51.51 0 0 0-.26.08c-2 1.09-12 4.53-12 4.53l-7-3.26s12-11.07 9-12.16a1.58 1.58 0 0 0-.52-.08c-4.14 0-20.48 10-20.48 10s-6 0-4-1.09a10.7 10.7 0 0 0 2-1.18h-26s2-4.35-1-4.35-10 4.44-10 4.44h-12l11-18.6zm38 18.51z" class="cls-1" transform="translate(-235.71 -107.5)"/>
    <path fill="#a2c33d" stroke="#598a26" stroke-linecap="round" stroke-linejoin="round" stroke-width="1.5" d="M182.51 43.82S195.79 22.36 213.79 18l-11 18.6h12s7-4.44 10-4.44 1 4.35 1 4.35h26a10.7 10.7 0 0 1-2 1.18c-2 1.09 4 1.09 4 1.09s18-11 21-9.89-9 12.16-9 12.16l7 3.26s10-3.44 12-4.53-3 8.8-3 8.8a63.12 63.12 0 0 0 17-3.36c10-3.26 2 4.36 2 4.36l-7 7.92"/>
    <path d="M578.65 190c-5.14-3.41-24.21-15.72-35-18.08l4.56-9.11a.58.58 0 0 0 .06-.17c0-.2 5-20.78 13.69-26.55 8.48-5.65 25.36-9.57 26.66-9.87h18.07c-6.03 6.03-29.81 31.96-28.04 63.78z" class="cls-1" transform="translate(-235.71 -107.5)"/>
    <path d="M604.84 127a111.46 111.46 0 0 0-13.23 16.81c-6.71 10.46-14.35 26.5-13.77 44.78-6.29-4.11-22.82-14.49-33.13-17.15l4.13-8.27a1.75 1.75 0 0 0 .12-.32c0-.21 5-20.5 13.37-26.1 8.23-5.48 24.56-9.34 26.34-9.75h16.17m3.66-1.5h-20s-18 4-27 10-14 27-14 27l-5 10c12 2 37 19 37 19-3-37 29-66 29-66z" class="cls-2" transform="translate(-235.71 -107.5)"/>
  </g>
  <g id="füße">
    <path d="M289.49 696.45a68.32 68.32 0 0 1-23.8-4.41c-.27-.08-20.25-5.41-26.71-25.69-6.7-21 .93-50.43 1-50.72 0-.11 3.21-11.5 6.09-23.62 2.54-10.75 9.14-22.34 10.58-24.78l25.83 18.87.28-.18c.12-.07 12.23-7.55 17.93-10 5.2-2.19 17.86-5.2 21-5.2h.33c.46 4.09 7.19 48.57 8 53.8.12.54 11.58 50.84-16.44 66.08a49.79 49.79 0 0 1-24.09 5.85z" class="cls-22" transform="translate(-235.71 -107.5)"/>
    <path d="M256.8 568l25.11 18.35.54.39.58-.35c.12-.07 12.19-7.54 17.86-9.93 5-2.1 17.47-5.09 20.69-5.16.77 6.06 6.68 45.14 7.93 53.39v.08a114.12 114.12 0 0 1 2.38 27.18c-.52 13.15-4.17 30.48-18.58 38.31a49.32 49.32 0 0 1-23.82 5.74 67.7 67.7 0 0 1-23.6-4.37h-.14c-.2 0-19.92-5.34-26.3-25.33-6.65-20.87.94-50.15 1-50.43 0-.11 3.22-11.52 6.09-23.64 2.4-10.1 8.4-21 10.25-24.17m-.3-1.46s-8 13.15-10.92 25.39-6.08 23.61-6.08 23.61-7.82 29.6-1 51c6.63 20.79 27 26 27 26a68 68 0 0 0 24 4.45 50.56 50.56 0 0 0 24.32-5.85c28.69-15.6 16.69-66.6 16.69-66.6s-8-52.78-8-54c0-.16-.29-.24-.81-.24-3.34 0-16.16 3.12-21.19 5.24-5.81 2.45-18 10-18 10l-26-19z" class="cls-22" transform="translate(-235.71 -107.5)"/>
    <path d="M282.5 601.5l-24-24s0 14-2 24a131.79 131.79 0 0 1-6 20s-6 19 0 37 17 24 17 24 20 9 36 0 13-51 13-51v-51c0-1-4 0-8 2s-26 19-26 19z" class="cls-23" transform="translate(-235.71 -107.5)"/>
    <path d="M258.12 567.12c5.71.5 24.66 3 30.71 14.17-1.6.93-5.19 3.69-6.33 4.58z" class="cls-24" transform="translate(-235.71 -107.5)"/>
    <path d="M259.82 567.79c6.94.79 22.71 3.63 28.34 13.33-1.62 1-4.34 3.09-5.66 4.12l-22.68-17.45m-3.32-1.29l26 20s5.7-4.45 7-5c-7-14-33-15-33-15z" class="cls-24" transform="translate(-235.71 -107.5)"/>
    <path d="M324.57 681.64c5.15-7.49 7.58-18.89 8.12-21.69a119.51 119.51 0 0 0 18.18 5.5z" class="cls-1" transform="translate(-235.71 -107.5)"/>
    <path d="M333.06 660.64a119.15 119.15 0 0 0 16.5 5l-23.41 14.41c4.12-7 6.24-16.14 6.91-19.44m-.75-1.39s-2.81 16.25-9.81 24.25l29.69-18.28a119.69 119.69 0 0 1-19.88-6z" class="cls-2" transform="translate(-235.71 -107.5)"/>
    <path d="M465.1 571h.64c6.44 0 27.74 1 34.09 13.32-1.78 1-6.82 3.71-8.05 4.39z" class="cls-24" transform="translate(-235.71 -107.5)"/>
    <path d="M466.76 571.46c7.25.11 26.22 1.5 32.4 12.62-1.94 1-5.91 3.21-7.36 4l-25-16.62m-1-1h-2.24l28.26 18.75s7.46-4.1 8.74-4.75c-6.17-13-27.73-14-34.76-14z" class="cls-24" transform="translate(-235.71 -107.5)"/>
    <path d="M499.05 707.5a74.85 74.85 0 0 1-25.7-4.68c-.29-.08-21.88-5.75-28.86-27.3-7.23-22.32 1-53.55 1.09-53.86 0-.12 3.46-12.22 6.56-25.08 2.77-11.47 9.95-23.85 11.45-26.36l27.89 20 .29-.17c.13-.08 13.19-8 19.35-10.58 5.62-2.33 19.29-5.53 22.69-5.53h.39c.46 4.18 7.76 51.59 8.62 57.15.14.58 12.51 54-17.76 70.19a54.53 54.53 0 0 1-26.01 6.22z" class="cls-22" transform="translate(-235.71 -107.5)"/>
    <path d="M463.74 571l27.18 19.53.54.39.57-.34c.13-.08 13.16-8 19.29-10.55 5.42-2.25 19.08-5.45 22.44-5.49.79 6.22 7.21 48 8.56 56.74v.08a120.12 120.12 0 0 1 2.58 28.92c-.37 8.93-1.94 16.72-4.67 23.16-3.39 8-8.58 13.86-15.43 17.52a54 54 0 0 1-25.75 6.04 74.4 74.4 0 0 1-25.51-4.64h-.14c-.21 0-21.53-5.64-28.43-26.94-7.19-22.18 1-53.27 1.09-53.57 0-.12 3.47-12.23 6.57-25.1 2.6-10.81 9.17-22.45 11.11-25.75m-.3-1.45s-8.65 14-11.78 27-6.57 25.07-6.57 25.07-8.44 31.38-1.09 54.05c7.16 22.08 29.15 27.61 29.15 27.61a74.43 74.43 0 0 0 25.9 4.72 55.16 55.16 0 0 0 26.24-6.21c31-16.56 18-70.71 18-70.71s-8.63-56-8.63-57.33c0-.18-.31-.26-.87-.26-3.61 0-17.45 3.31-22.88 5.57-6.26 2.6-19.42 10.61-19.42 10.61l-28.05-20.17z" class="cls-22" transform="translate(-235.71 -107.5)"/>
    <path d="M490.74 606.49l-26.13-25s0 14.58-2.17 25a133 133 0 0 1-6.54 20.83s-6.53 19.78 0 38.52 18.51 25 18.51 25 21.77 9.38 39.19 0 14.16-53.1 14.16-53.1v-53.12c0-1-4.36 0-8.71 2.09s-28.31 19.78-28.31 19.78z" class="cls-23" transform="translate(-235.71 -107.5)"/>
  </g>
  <g id="augen">
    <path d="M383.52 241.22c-3.66 0-5.95-.22-6-.22a76.74 76.74 0 0 1-24.83-8.2c-16.02-8.8-23.33-22.06-21.69-39.25 2-21.5 12.15-33.55 20.27-39.88A47.31 47.31 0 0 1 368.6 145a160.14 160.14 0 0 1 16.34-.88 91 91 0 0 1 13.48.88c.3 0 25.1 1.59 38.55 18 7.29 8.87 10 20.47 8 34.48-2.4 17.19-11.48 29.59-27 36.85-12.85 5.99-27.1 6.89-34.45 6.89z" class="cls-4" transform="translate(-235.71 -107.5)"/>
    <path d="M385 143.61v1a90 90 0 0 1 13.4.88h.09c.25 0 24.84 1.57 38.15 17.77 7.2 8.76 9.86 20.23 7.92 34.09-2.38 17-11.37 29.28-26.7 36.47-12.81 6-27 6.89-34.29 6.89-3.63 0-5.9-.21-5.9-.21a76.6 76.6 0 0 1-24.69-8.16c-15.84-8.75-23.05-21.79-21.43-38.76 2-21.29 12-33.23 20-39.49a46.93 46.93 0 0 1 17.12-8.61 156.37 156.37 0 0 1 16.28-.88v-1m0 0a157.64 157.64 0 0 0-16.44.89s-34 7-38 49 47 48 47 48 2.28.22 6 .22c15.57 0 56.34-3.9 62-44.22 7-50-47-53-47-53a91.13 91.13 0 0 0-13.56-.89z" class="cls-25" transform="translate(-235.71 -107.5)"/>
    <path d="M549.74 249.5c-6.65 0-19.56-.83-31.24-6.37-14-6.65-22.26-18-24.44-33.77-1.79-12.93.71-23.62 7.41-31.77 12.22-14.85 34.5-16.26 34.72-16.28a81.61 81.61 0 0 1 12.26-.81 141.8 141.8 0 0 1 14.85.81c.26.06 30.45 6.81 34 44.5s-41.7 43.43-42.16 43.49c0 0-2.08.2-5.4.2z" class="cls-4" transform="translate(-235.71 -107.5)"/>
    <path d="M548.45 161a142.57 142.57 0 0 1 14.74.8 42.28 42.28 0 0 1 15.41 7.83c7.29 5.74 16.36 16.68 18.2 36.23 1.46 15.53-5.06 27.46-19.38 35.47a68.43 68.43 0 0 1-22.32 7.47s-2.07.2-5.36.2c-6.61 0-19.44-.82-31-6.32-13.87-6.57-22-17.81-24.15-33.38-1.77-12.79.68-23.35 7.29-31.38 12.07-14.67 34.15-16.09 34.37-16.11h.1a80.74 80.74 0 0 1 12.13-.8m0-1a80.78 80.78 0 0 0-12.28.82s-48.95 2.75-42.6 48.61c5.11 37 42.06 40.57 56.17 40.57 3.39 0 5.46-.21 5.46-.21s46.22-5.5 42.6-44-34.44-44.94-34.44-44.94a140.61 140.61 0 0 0-14.91-.82z" class="cls-25" transform="translate(-235.71 -107.5)"/>
    <path d="M371.5 190a8.5 8.5 0 1 1-14.66-5.86c.68-.71 6.77 5.8 7.66 5.36 1.14-.57-2.86-8-1.5-8a8.51 8.51 0 0 1 8.5 8.5z" class="cls-26" transform="translate(-235.71 -107.5)"/>
    <path d="M361.08 175.32a15.71 15.71 0 0 1 3.17-.32c8.7 0 14.75 7.05 14.75 15.75a15.75 15.75 0 1 1-26.89-11.14" class="cls-27" transform="translate(-235.71 -107.5)"/>
    <path d="M572.5 200a8.5 8.5 0 1 1-14.66-5.86c.68-.71 6.77 5.8 7.66 5.36 1.14-.57-2.86-8-1.5-8a8.51 8.51 0 0 1 8.5 8.5z" class="cls-26" transform="translate(-235.71 -107.5)"/>
    <path d="M563 185.5a13.49 13.49 0 1 1-8.86 3.31" class="cls-27" transform="translate(-235.71 -107.5)"/>
  </g>
  <g id="mund" stroke-miterlimit="10">
    <path stroke="#000" d="M519.5 322.5c-12-12 1-57-1-50s-9 13-9 13l-113-5c11 31-2 42-2 42 7-2 11-15 11-15l104 1s1 8 4 12 6 2 6 2z" transform="translate(-235.71 -107.5)"/>
    <path fill="#ebebeb" stroke="#ebebeb" d="M170.79 197l5-8 8 5 6-5 7 5 8-3 7 3 8-3 5 4 8-4 7 4 5-5 5 4 7-4 7 6 6-5 5 6-1 3-104-1 1-2z"/>
  </g>
</svg>
