<svg id="Ebene_1" xmlns="http://www.w3.org/2000/svg" viewBox="0 0 302 349"><style>.st2{fill:#fff}</style><path d="M151 2l149.2 86.2v172.4L151 346.8 1.8 260.6V88.2L151 2z" stroke="#02173e" stroke-width="3"/><path d="M226.9 104.1L75.2 244.6" fill="#fff" stroke="#fff"/><path class="st2" d="M195.1 230.7V249h-6.9v-12.6h-24.8v-4.1l24.4-37.7h7.3z"/><path d="M171.3 230.7h16.9v-26.6l-.8 1.5z"/><path class="st2" d="M226.6 236.4h-31.5V226l14.7-16.7c2.8-3.2 3.9-5.2 4.9-7.2 1.1-2 1.8-4.5 1.8-6.6 0-2.8-.6-4.4-2.3-6.2s-3.5-2.9-6.4-3.3c-2.5-.3-6.4.2-9 2.1-2.6 1.9-3.8 3.1-3.8 6.6h-7.4c3.2-5.1 5-8.1 7.5-10.1s7.1-4.9 12.4-4.5c5.3.4 8.8 2.4 10.7 4.4 1.9 2.1 4.3 5.6 4.3 10.2 0 5.4-2 11.6-8.9 19l-15.1 17h27.8l.3 5.7zM72.8 111.2c-2.8-.5-5.1-.7-6.9-.7-4.6 0-6.9 2.4-6.9 7.2v3.7h8v4.9h-8v32.3h-6.4v-32.3h-5.9v-4.9h5.9v-4.1c0-4 1.1-7 3.3-9.1s5.3-3.2 9.4-3.2c2.3 0 6.9.7 13.8 2.1v51.4h-6.4v-47.3h.1zM112.6 158.6c-.4-.7-.7-2-.9-3.9-3 3.1-6.5 4.6-10.6 4.6-3.7 0-6.7-1-9-3.1-2.4-2.1-3.5-4.7-3.5-7.9 0-3.9 1.5-6.9 4.4-9s7.1-3.2 12.4-3.2h6.2v-2.9c0-2.2-.7-4-2-5.3s-3.3-2-5.9-2c-2.3 0-4.2.6-5.7 1.7s-2.3 2.5-2.3 4.2h-6.4c0-1.9.7-3.6 2-5.4 1.3-1.7 3.1-3.1 5.4-4.1s4.7-1.5 7.5-1.5c4.3 0 7.7 1.1 10.1 3.2s3.7 5.1 3.8 8.8v17.1c0 3.4.4 6.1 1.3 8.1v.6h-6.8z"/><path d="M102.1 154.7c2 0 3.9-.6 5.7-1.7 1.8-1.1 3.1-2.5 3.9-4.3v-8.2h-5c-7.8 0-11.8 2.4-11.8 7.3 0 2.1.7 3.8 2 5 1.4 1.3 3.1 1.9 5.2 1.9z"/><path class="st2" d="M136.6 112.4v9h7v4.9h-7v23c0 1.5.3 2.6.9 3.4.6.7 1.7 1.1 3.2 1.1.7 0 1.7-.1 3-.4v5.2c-1.7.5-3.3.7-4.9.7-2.8 0-5-.9-6.4-2.6-1.4-1.7-2.2-4.2-2.2-7.3v-23h-6.8v-4.9h6.8v-9l6.4-.1z"/></svg>