<svg xmlns="http://www.w3.org/2000/svg" width="302" height="349"><g fill="none" fill-rule="evenodd"><path stroke="#02173E" stroke-width="3" d="M151 2l149.2 86.2v172.4L151 346.8 1.8 260.6V88.2z"/><path fill="#13A399" fill-rule="nonzero" d="M129.175 117.839C138.37 103.245 142.902 94.799 150.1 89c7.2-5.7 20.5-14.1 35.7-12.9 15.3 1.2 25.3 6.9 30.8 12.7 5.5 6 12.4 16.1 12.4 29.3 0 15.5-5.8 33.3-25.6 54.6L160 221.6h79.9l.9 16.4h-90.669l.069 36.2h-19.8V238H59v-11.8l70.175-108.361zm20.925.01v89.998L192.3 160c8.1-9.2 11.2-14.9 14.1-20.7 3.2-5.8 5.2-13 5.2-19 0-8-1.7-12.6-6.6-17.8-4.9-5.2-10.1-8.3-18.4-9.5-7.2-.9-18.4.5-25.9 6-7.4 5.5-10.6 8.748-10.6 18.848zM81.7 221.6h48.6v-76.5l-2.3 4.3-46.3 72.2z"/></g></svg>