<svg xmlns="http://www.w3.org/2000/svg" viewBox="0 0 350.4 304.6">
  <style>
    .st2{fill:#13a399}
  </style>
  <path fill="none" stroke="#13a399" stroke-width="10" d="M90.4 5.4l169.6.1 84.8 146.9-84.7 146.9-169.6-.1L5.7 152.3 90.4 5.4z"/>
  <path stroke="#13a399" stroke-width="8" d="M250.8 81.9L99.1 222.4"/>
  <path d="M211.7 172.4l-24.4 37.7v4.1h24.8v12.6h6.9V172.4h-7.3zm.4 36.1h-16.9l16.1-25.1.8-1.5v26.6z" class="st2"/>
  <path d="M250.5 214.2H219v-10.4l14.7-16.7c2.8-3.2 3.9-5.2 4.9-7.2 1.1-2 1.8-4.5 1.8-6.6 0-2.8-.6-4.4-2.3-6.2s-3.5-2.9-6.4-3.3c-2.5-.3-6.4.2-9 2.1-2.6 1.9-3.8 3.1-3.8 6.6h-7.4c3.2-5.1 5-8.1 7.5-10.1s7.1-4.9 12.4-4.5c5.3.4 8.8 2.4 10.7 4.4 1.9 2.1 4.3 5.6 4.3 10.2 0 5.4-2 11.6-8.9 19l-15.1 17h27.8l.3 5.7zM96.7 89c-2.8-.5-5.1-.7-6.9-.7-4.6 0-6.9 2.4-6.9 7.2v3.7h8v4.9h-8v32.3h-6.4v-32.3h-5.9v-4.9h5.9v-4.1c0-4 1.1-7 3.3-9.1 2.2-2.1 5.3-3.2 9.4-3.2 2.3 0 6.9.7 13.8 2.1v51.4h-6.4V89h.1zM142 127.7v-17.1c-.1-3.7-1.4-6.7-3.8-8.8-2.4-2.1-5.8-3.2-10.1-3.2-2.8 0-5.2.5-7.5 1.5s-4.1 2.4-5.4 4.1c-1.3 1.8-2 3.5-2 5.4h6.4c0-1.7.8-3.1 2.3-4.2 1.5-1.1 3.4-1.7 5.7-1.7 2.6 0 4.6.7 5.9 2 1.3 1.3 2 3.1 2 5.3v2.9h-6.2c-5.3 0-9.5 1.1-12.4 3.2-2.9 2.1-4.4 5.1-4.4 9 0 3.2 1.1 5.8 3.5 7.9 2.3 2.1 5.3 3.1 9 3.1 4.1 0 7.6-1.5 10.6-4.6.2 1.9.5 3.2.9 3.9h6.8v-.6c-.9-2-1.3-4.7-1.3-8.1zm-6.4-1.2c-.8 1.8-2.1 3.2-3.9 4.3-1.8 1.1-3.7 1.7-5.7 1.7-2.1 0-3.8-.6-5.2-1.9-1.3-1.2-2-2.9-2-5 0-4.9 4-7.3 11.8-7.3h5v8.2zM160.5 90.2v9h7v4.9h-7v23c0 1.5.3 2.6.9 3.4.6.7 1.7 1.1 3.2 1.1.7 0 1.7-.1 3-.4v5.2c-1.7.5-3.3.7-4.9.7-2.8 0-5-.9-6.4-2.6-1.4-1.7-2.2-4.2-2.2-7.3v-23h-6.8v-4.9h6.8v-9l6.4-.1z" class="st2"/>
</svg>
