<svg id="Ebene_1" data-name="Ebene 1" xmlns="http://www.w3.org/2000/svg" viewBox="0 0 348.09 301.61">
  <defs>
    <style>
      .cls-1, .cls-4 {
        fill: #fff;
      }

      .cls-1, .cls-2 {
        stroke: #13a399;
      }

      .cls-1 {
        stroke-width: 3px;
      }

      .cls-2 {
        stroke-width: 4px;
      }

      .cls-3 {
        fill: #13a399;
      }
    </style>
  </defs>
  <title>logo</title>
  <path class="cls-1" d="M88.68,5.29,261,5.34l86.2,149.3L261.08,303.9l-172.31-.06L2.57,154.54Z" transform="translate(-0.84 -3.79)"/>
  <path class="cls-2" d="M250.78,84.29,99.08,224.79" transform="translate(-0.84 -3.79)"/>
  <polygon class="cls-3" points="218.14 207.1 218.14 225.4 211.24 225.4 211.24 212.8 186.44 212.8 186.44 208.7 210.84 171 218.14 171 218.14 207.1"/>
  <polygon class="cls-4" points="194.34 207.1 211.24 207.1 211.24 180.5 210.44 182 194.34 207.1"/>
  <path class="cls-3" d="M250.48,216.59H219v-10.4l14.7-16.7a30.34,30.34,0,0,0,4.9-7.2,14.54,14.54,0,0,0,1.8-6.6,7.86,7.86,0,0,0-2.3-6.2,10,10,0,0,0-6.4-3.3,13.8,13.8,0,0,0-9,2.1c-2.6,1.9-3.8,3.1-3.8,6.6h-7.4c3.2-5.1,5-8.1,7.5-10.1s7.1-4.9,12.4-4.5,8.8,2.4,10.7,4.4a15.36,15.36,0,0,1,4.3,10.2c0,5.4-2,11.6-8.9,19l-15.1,17h27.8l.3,5.7Z" transform="translate(-0.84 -3.79)"/>
  <path class="cls-3" d="M96.68,91.39a40,40,0,0,0-6.9-.7q-6.9,0-6.9,7.2v3.7h8v4.9h-8v32.3h-6.4v-32.3h-5.9v-4.9h5.9v-4.1c0-4,1.1-7,3.3-9.1s5.3-3.2,9.4-3.2q3.45,0,13.8,2.1v51.4h-6.4V91.39Z" transform="translate(-0.84 -3.79)"/>
  <path class="cls-3" d="M136.48,138.79a11.08,11.08,0,0,1-.9-3.9,14.17,14.17,0,0,1-10.6,4.6,12.8,12.8,0,0,1-9-3.1,9.92,9.92,0,0,1-3.5-7.9,10.48,10.48,0,0,1,4.4-9c2.9-2.1,7.1-3.2,12.4-3.2h6.2v-2.9a7.24,7.24,0,0,0-2-5.3,8.09,8.09,0,0,0-5.9-2,9.41,9.41,0,0,0-5.7,1.7,5.06,5.06,0,0,0-2.3,4.2h-6.4a9,9,0,0,1,2-5.4,13.38,13.38,0,0,1,5.4-4.1,18.27,18.27,0,0,1,7.5-1.5c4.3,0,7.7,1.1,10.1,3.2A11.65,11.65,0,0,1,142,113v17.1a20.16,20.16,0,0,0,1.3,8.1v.6Z" transform="translate(-0.84 -3.79)"/>
  <path class="cls-4" d="M126,134.89a10.82,10.82,0,0,0,5.7-1.7,9.5,9.5,0,0,0,3.9-4.3v-8.2h-5c-7.8,0-11.8,2.4-11.8,7.3a6.55,6.55,0,0,0,2,5A7.26,7.26,0,0,0,126,134.89Z" transform="translate(-0.84 -3.79)"/>
  <path class="cls-3" d="M160.48,92.59v9h7v4.9h-7v23a5.51,5.51,0,0,0,.9,3.4,4.11,4.11,0,0,0,3.2,1.1,13.7,13.7,0,0,0,3-.4v5.2a17.06,17.06,0,0,1-4.9.7,7.93,7.93,0,0,1-6.4-2.6,11.35,11.35,0,0,1-2.2-7.3v-23h-6.8v-4.9h6.8v-9l6.4-.1Z" transform="translate(-0.84 -3.79)"/>
</svg>
