<svg xmlns="http://www.w3.org/2000/svg" viewBox="0 0 411.04 411.04">
  <path d="M405.041 89.999c-.027 0-.054 0-.081.001h-54.8V50c0-3.314-2.686-6-6-6H36.4C16.315 44.044.044 60.315 0 80.4v250.24c.044 20.085 16.315 36.356 36.4 36.4h338.24c20.085-.044 36.356-16.315 36.4-36.4V96c0-3.314-2.686-6-5.999-6.001zM36.4 355.12c-13.458-.044-24.356-10.942-24.4-24.4V80.64c.044-13.458 10.943-24.356 24.4-24.4h301.76v274.4a36.4818 36.4818 0 0 0 9.44 24.4l-311.2.08zm362.24-24.48c.003 13.335-10.668 24.219-24 24.48-13.253.223-24.177-10.34-24.4-23.593-.005-.269-.005-.538 0-.807V102.08h48.4v228.56z"/>
  <path d="M93.28 80.72c-2.368.043-4.277 1.952-4.32 4.32v33.04L62.64 82.24c-1.428-1.92-4.13-2.347-6.08-.96a4.3204 4.3204 0 0 0-1.76 3.68v46.72c-.051 2.43 1.878 4.44 4.307 4.491.138.003.275-.001.413-.011 2.381-.085 4.279-2.018 4.32-4.4V98.4l25.76 35.68.4.48a4.3193 4.3193 0 0 0 3.28 1.6c2.412-.043 4.357-1.988 4.4-4.4V85.04c-.085-2.381-2.018-4.279-4.4-4.32zM142.64 127.28h-22V112.4h18.72c2.452-.33 4.173-2.585 3.843-5.037-.269-2-1.842-3.574-3.843-3.843h-18.72V88.8h22c2.425-.085 4.359-2.054 4.4-4.48-.043-2.412-1.988-4.357-4.4-4.4h-26.48c-2.43 0-4.4 1.97-4.4 4.4v47.36c-.044 2.43 1.89 4.435 4.319 4.479.027 0 .054.001.081.001h26.48c2.452-.33 4.173-2.585 3.843-5.037-.269-2.001-1.843-3.574-3.843-3.843zM227.44 80.88c-2.254-.95-4.853.082-5.84 2.32l-16 37.2-10.32-24.64c-.727-1.649-2.358-2.715-4.16-2.72a4.4008 4.4008 0 0 0-4.16 2.72l-10.32 24.64-16-37.2c-1.301-2.052-4.02-2.661-6.072-1.36-1.582 1.003-2.355 2.897-1.928 4.72l23.76 46.8c.117.249.251.489.4.72v.48h.56c.204.209.449.372.72.48h2.56c.209-.058.431-.058.64 0l.64-.48h.48l.48-.48v-.72l10.48-24.88 10.56 24.88a2.23 2.23 0 0 0 0 .72v.48h.56c.188.226.439.393.72.48h3.12s.48 0 .72-.48h.56v-.48c.177-.213.312-.457.4-.72l19.68-46.8c.948-2.187-.054-4.729-2.24-5.68zM285.44 112.24a18.7962 18.7962 0 0 0-8-6.64 48.0053 48.0053 0 0 0-11.12-3.52 27.6696 27.6696 0 0 1-10-3.52 7.993 7.993 0 0 1-2.16-2.08 3.8386 3.8386 0 0 1-.56-2.24 6.3995 6.3995 0 0 1 3.04-5.04 15.3612 15.3612 0 0 1 8.96-2.72c4.824-.058 9.478 1.78 12.96 5.12 1.755 1.268 4.205.873 5.473-.882.074-.103.143-.209.207-.318 1.221-1.885.726-4.4-1.12-5.68a27.0402 27.0402 0 0 0-17.52-6.4 23.9995 23.9995 0 0 0-13.92 4.24 14.8808 14.8808 0 0 0-6.4 11.76c-.016 2.316.622 4.59 1.84 6.56a17.3638 17.3638 0 0 0 7.44 6.24 42.9459 42.9459 0 0 0 10.4 3.12c3.879.567 7.621 1.841 11.04 3.76a7.536 7.536 0 0 1 2.4 2.4c.489.763.74 1.654.72 2.56a7.1981 7.1981 0 0 1-3.44 5.76 17.2775 17.2775 0 0 1-10 2.96 26.1626 26.1626 0 0 1-15.36-6.16c-1.769-1.451-4.379-1.201-5.84.56-1.388 1.803-1.106 4.38.64 5.84a34.7183 34.7183 0 0 0 20.48 8.16 25.115 25.115 0 0 0 14.88-4.56 15.5193 15.5193 0 0 0 6.88-12.48c-.002-2.4-.666-4.753-1.92-6.8zM291.36 155.44H49.52c-3.314 0-6 2.686-6 6s2.686 6 6 6h241.84c3.314 0 6-2.686 6-6s-2.686-6-6-6zM264.64 204.08H49.52c-3.314 0-6 2.686-6 6s2.686 6 6 6h215.12c3.314 0 6-2.686 6-6s-2.686-6-6-6zM264.64 235.12H49.52c-3.314 0-6 2.686-6 6s2.686 6 6 6h215.12c3.314 0 6-2.686 6-6s-2.686-6-6-6zM264.64 266.08H49.52c-3.314 0-6 2.686-6 6s2.686 6 6 6h215.12c3.314 0 6-2.686 6-6s-2.686-6-6-6zM264.64 297.12H49.52c-3.314 0-6 2.686-6 6s2.686 6 6 6h215.12c3.314 0 6-2.686 6-6s-2.686-6-6-6z"/>
</svg>
